<?xml version="1.0" encoding="UTF-8"?>
<svg id="uuid-fe839b90-62b5-4b3d-b2f3-7e9b95a1746f" data-name="Lager 2" xmlns="http://www.w3.org/2000/svg" viewBox="0 0 173.03 180.94">
  <g id="uuid-32e55887-4196-43a2-977a-ba4c21dd7c3f" data-name="logo + text">
    <g id="uuid-94914496-e725-4524-867a-985423f6eb6c" data-name="Lager 2 kopia">
      <polyline points="28.72 42.21 19.38 54.6 5.38 85.37 10.61 100.52 8.83 108.59 22.71 125.25 55.1 160.64 85.85 175.4 115.49 161.21 116.56 161.19 150.92 125.82 163.57 109.64 162.39 100.58 164.09 95.81 167.64 85.11 149.54 48.28 144.83 41.94 150.64 35.94 150.9 18.11 138.29 10.14 123.42 16.96 122.38 14.18 111.59 15.44 86.38 5.4 63.03 15.04 51.27 14.18 49.93 16.96 36.66 10.2 22.13 18 22.19 35.61 28.72 42.21" style="fill: #1d1d1b; stroke: #fbfcf5; stroke-miterlimit: 10; stroke-width: 10px;"/>
    </g>
    <g>
      <path d="M29.22,12.52c1.72-.95,3.43-1.93,5.18-2.83.49-.25,1.1-.29,1.65-.43,1.97.26,3.69,1.06,5.19,2.35.08.2.09.41.02.62-.36.6-.81.25-1.2.08-.59-.25-1.15-.59-1.75-.84-1.75-.74-2.06-.53-3.51.67-1.59,1.32-3.41,2.35-5.1,3.54-.86.6-1.82,1.08-2.71,1.68-1.24.84-2.6,1.18-4.09.75-.35-.1-.7-.25-1.08-.11-.14.02-.27.01-.41-.01-.13-.05-.24-.13-.34-.22.09-.2.17-.41.26-.61.46-.27.92-.53,1.39-.8,1.88-1.77,4.24-2.72,6.5-3.84Z" style="fill: #f5f7f7; stroke-width: 0px;"/>
      <path d="M21.07,17.76c.09,0,.18,0,.27,0,.94,1.32.43,2.83.51,4.25.05.83.21,1.76-.56,2.43-.23.04-.32-.05-.27-.28,0-.84,0-1.67-.01-2.51.02-1.3.04-2.6.06-3.89Z" style="fill: #dcece2; stroke-width: 0px;"/>
      <path d="M151.71,126.24c-.08.09-.16.19-.25.28-1.6.3-2.96-.55-4.42-.92-.78-.2-1.67-.29-2.19-1.07-.24-.55-.11-1.09.03-1.63.78-3.04,1.39-6.11,2.29-9.12.22-.72.26-1.59,1.16-1.91.74.15.77.81.95,1.35.39,1.21.53,2.47.86,3.69.56,2.43,1.11,4.85,1.61,7.29.07.68.18,1.36-.05,2.03Z" style="fill: #339065; stroke-width: 0px;"/>
      <path d="M145.04,124.5c2.14.67,4.28,1.34,6.43,2.01-1.21,1.31-2.41,2.62-3.62,3.93-.65.71-1.32,1.4-1.98,2.11-1.48,1.41-2.96,2.81-4.45,4.22-.41-.36-.39-.83-.27-1.27.87-3.42,1.8-6.83,2.96-10.16.11-.3.29-.57.51-.81.14-.11.28-.11.42-.02Z" style="fill: #136e46; stroke-width: 0px;"/>
      <path d="M164.43,110.21c-.65.83-1.29,1.67-1.94,2.5-2.68,3.38-5.34,6.77-8.04,10.14-.48.6-1.07,1.11-1.61,1.66-.11.09-.23.09-.35,0-.26-.72.12-1.27.52-1.77.98-1.23,1.8-2.56,2.58-3.92.71-1.24,2.01-1.98,2.82-3.19,1.29-1.94,2.76-3.75,4.61-5.21.13-.11.1-.35.19-.52.28-.46.69-.62,1.22-.53.12.07.2.18.24.31.02.21-.02.4-.24.51Z" style="fill: #7eda84; stroke-width: 0px;"/>
      <path d="M152.54,124.51c.1,0,.2,0,.3.01-.38.57-.75,1.14-1.13,1.72-.1-.66-.2-1.33-.3-1.99-.14-.41.12-.35.34-.27.31.1.42.51.78.53Z" style="fill: #7edb8e; stroke-width: 0px;"/>
      <path d="M168.64,85.05c-.08.92-.17,1.85-.25,2.77,0,.09,0,.18,0,.28-.69,2.07-1.18,4.22-2.12,6.21-.29.61-.46,1.31-1.21,1.58-.57,1.61-1.15,3.21-1.72,4.82-.75-.21-.71-.92-.86-1.46-.47-1.69-.74-3.43-1.24-5.11-.55-2.58-1.23-5.13-1.85-7.7-.05-.28-.18-.53-.25-.8-1.44-2.99-2.81-6-4.28-8.98-.28-.57-.69-1.11-.6-1.8q.61-.4,1.41.56c1.43-1.08,1.5-1.09,2.82.17.39.37.8.59,1.33.58.87.24,1.32.97,1.84,1.61.85,1.04,1.91,1.88,2.76,2.93,1.26,1.59,2.7,3.01,4.23,4.34Z" style="fill: #034149; stroke-width: 0px;"/>
      <path d="M21.62,17.75c.43-.02.88-.15,1.28-.05,1.43.35,2.7.09,3.93-.72,2.34-1.54,4.72-3.02,7.06-4.54.34-.22.75-.5.89-.85.56-1.36,1.63-1.23,2.66-.89,1.24.41,2.42.99,3.62,1.5.79-.03,1.44.54,2.22.56h0c2.13.87,2.31,2.66,2.16,4.59-.13,1.78.32,3.59-.25,5.35-.9.67-1.53-.1-2.25-.42-1.71-1.18-3.58-2.1-5.27-3.32-1.01-.73-1.9-.71-2.93-.08-1.73,1.06-3.51,2.03-5.28,3.04-.56.32-1.12.64-1.76.79-.45.07-.82-.12-1.15-.38-1.55-1.17-3.09-2.36-4.52-3.66-.25-.23-.62-.46-.43-.92Z" style="fill: #fbfaf8; stroke-width: 0px;"/>
      <path d="M21.62,17.75c2.02,1.57,4.04,3.15,6.07,4.72.23.17.29.4.29.67-.09,1.9.12,3.81-.17,5.7-.41.94-.07,1.91-.12,2.87-.03.51-.02,1.01-.22,1.49-1.74,1.57-3.82,1.94-6.07,1.76-.09-3.51-.18-7.02-.27-10.54.07-2.22.14-4.44.22-6.66.09,0,.18-.01.28-.02Z" style="fill: #e2e5d0; stroke-width: 0px;"/>
      <path d="M43.29,12.76c-.74-.19-1.48-.37-2.22-.56,0-.17,0-.33,0-.5.74.35,1.48.71,2.22,1.06Z" style="fill: #f5f6ef; stroke-width: 0px;"/>
      <path d="M128.08,150.38c-1.95,2.12-3.9,4.25-5.85,6.37-.69-.67-.53-1.54-.53-2.36-.02-7.13,0-14.26,0-21.39,0-1.06,0-2.13-.05-3.19.03-1.11.81-1.78,1.5-2.49.53-.56,1.13-1.05,1.63-1.64,1.01-1,2.17-1.82,3.17-2.83.36-.36.8-.63,1.36-.45,1.03.92.4,2.25.81,3.33.15.4.03.9.13,1.35.01,3.01-.39,6-.66,8.99-.36,4.01-.67,8.02-.96,12.03-.06.8-.1,1.57-.54,2.26Z" style="fill: #025741; stroke-width: 0px;"/>
      <path d="M128.08,150.38c.36-4.85.72-9.71,1.06-14.57.21-2.93.4-5.87.6-8.8.27-1.84-.1-3.7.17-5.54.04-.47.27-.86.56-1.22.09-.12.19-.23.32-.31.14-.06.28-.09.43-.09.15.01.29.05.42.12,1.95.83,4.05,1.24,6.04,1.95.54.19,1.22.22,1.36.99-1.77,6.6-3.42,13.22-4.85,19.9-.14.65-.55,1.16-.83,1.74-1.76,1.95-3.52,3.89-5.28,5.84Z" style="fill: #126441; stroke-width: 0px;"/>
      <path d="M121.97,129.21c.09.77.25,1.55.25,2.32.02,8.4.01,16.81.01,25.21-1.77,1.76-3.54,3.51-5.31,5.27-.36,0-.72.01-1.08.02-.77-.11-.57-.72-.57-1.18.01-3.88.51-7.73.71-11.59.2-3.68.46-7.36.69-11.04.09-1.47.29-2.94.31-4.41.27-1.44,3.59-4.51,4.98-4.6Z" style="fill: #146b44; stroke-width: 0px;"/>
      <path d="M133.37,144.54c1.48-6.27,2.95-12.55,4.47-18.81.24-.99.72-1.93,1.09-2.89.07-.07.14-.17.22-.16,2.02.16,3.99.49,5.61,1.85-.93,3.23-1.88,6.45-2.79,9.69-.24.84-.36,1.71-.53,2.56-2.68,2.59-5.37,5.18-8.05,7.77Z" style="fill: #035740; stroke-width: 0px;"/>
      <path d="M164.49,109.49l-1.11.56c-.65.93-1.72,1.21-2.68,1.62-3.65,1.58-7.26,3.21-10.65,5.32-.07.05-.17.02-.27,0-.47-1.67-.93-3.33-1.4-5-.31-.2-.53-.47-.58-.85-.03-.21,0-.43.05-.63,2.37-5.27,4.68-10.57,7.15-15.79.27-.58.49-1.21,1.02-1.63.61-.2.79.31,1.04.66.43.59.76,1.25,1.09,1.9.3.59.75,1.03,1.36,1.3,1.09.49,2.18,1.29,2.81,2.08,1.02,3.14,1.76,6.34,2.4,9.57.06.32.01.64-.25.89Z" style="fill: #8ce982; stroke-width: 0px;"/>
      <path d="M148.04,111.13c.12.29.24.57.35.86-.53,1.61-1.14,3.2-1.56,4.84-.66,2.54-1.2,5.12-1.79,7.68-.1,0-.19.01-.29.02-1.94-.56-3.88-1.12-5.83-1.69-2.06-.65-4.12-1.28-6.17-1.96-.47-.16-.88-.52-1.32-.78.08-.6.58-.8,1.01-1.05,4.67-2.68,9.49-5.09,14.18-7.73.42-.24.9-.52,1.42-.18Z" style="fill: #27795b; stroke-width: 0px;"/>
      <path d="M149.79,116.98c.29-.33.53-.8.89-.97,4.22-2.01,8.46-3.98,12.7-5.96,0,.23.08.56-.04.69-.81.87-1.71,1.66-2.49,2.55-.93,1.07-1.76,2.22-2.63,3.33-.25.33-.45.72-.76.98-2.25,1.87-3.35,4.55-4.92,6.9-.67,1.18-.69-.45-1.13-.26-.54-2.42-1.08-4.84-1.63-7.26Z" style="fill: #7adc77; stroke-width: 0px;"/>
      <path d="M164.49,109.49c-.46-2.24-.87-4.49-1.38-6.72-.3-1.3-.74-2.56-1.12-3.84-.53-1.17-.98-2.36-.97-3.66,0-.51-.12-1.14.62-1.33.56,2.25,1.12,4.5,1.68,6.75.54,2.4,1.13,4.78,1.57,7.2.11.61-.24,1.31-.38,1.97,0-.12-.02-.25-.03-.37Z" style="fill: #91e287; stroke-width: 0px;"/>
      <path d="M163.39,72.51c1.38,3.36,2.75,6.72,4.14,10.07.16.38.38.72.57,1.08.18.46.36.92.54,1.38-.09.11-.19.22-.28.33-1.39-1.5-2.78-3-4.17-4.5,1.31-.27,1.54-.71.94-1.96-.75-1.57-1.5-3.12-1.97-4.81-.16-.58-.43-1.15.23-1.6Z" style="fill: #076d70; stroke-width: 0px;"/>
      <path d="M156.24,93.13c-2.52,5.52-5.05,11.04-7.58,16.55-.15.33-.35.63-.53.94-1.04-.98-.71-2.43-1.21-3.59-.99-4.87-2.35-9.66-3.42-14.51-.06-.28-.21-.51-.36-.73-.19-.3-.4-.59-.58-.9-.82-2.01-1.45-4.08-2.24-6.11-.02-.16-.02-.31.02-.46.13-.35.34-.56.74-.43.49.29,1.05.43,1.59.42,2.03-.06,4.03.35,6.07.35,3.27,0,6.52.43,9.79.54.39.01.71.16,1.01.4l.25.56c-1.05,2.39-1.8,4.93-3.52,6.98Z" style="fill: #0c6e6a; stroke-width: 0px;"/>
      <path d="M163.39,72.51c.39,1.37.74,2.76,1.2,4.12.36,1.09.92,2.11,1.25,3.21.12.41-.18.94-.29,1.41-.45-.13-.91-.25-1.36-.38-1.47-1.48-2.95-2.97-4.42-4.45-1.35-.28-1.91-1.47-2.7-2.38-1.95-2.25-4.19-4.25-5.98-6.65-.14-.19-.42-.16-.63-.25-.78-.46-.95-1.33-1.38-2.03-.8-1.29-1.43-2.7-2.54-3.78-.16-.43-.06-.8.24-1.14.87-.67,1.46.04,2.09.45,4.55,3.01,8.96,6.23,13.45,9.35.36.84.72,1.68,1.08,2.51Z" style="fill: #067271; stroke-width: 0px;"/>
      <path d="M146.71,61.41c.33.19.79.3.96.59,1,1.64,1.94,3.31,2.9,4.98.48.16.71.57.94.97,1.03,1.8,1.92,3.67,2.71,5.6.16.39.3.79.02,1.18-1.02.1-1.36-.68-1.63-1.38-.57-1.5-1.36-2.82-2.59-3.86-1.41,1.31-1.54,1.27-3.8-1.12-1.28,4.61-3.09,9.01-3.83,13.71-.17,1.09.56,1.8,2.1,1.93,2.9.24,5.81.37,8.71.58,1.24.09,2.5-.06,3.74.17.31.06.69.13.9-.17.24-.33-.02-.62-.22-.86-.95-1.17-1.36-2.6-2-3.92-.56-1.16-.96-2.37-1.52-3.51-.26-.52-.49-1.02.06-1.51.1-.12.21-.13.34-.03,1.47,3.1,2.94,6.21,4.4,9.31.23.5.43,1.01.64,1.51-4.83-.27-9.66-.55-14.49-.8-1.06-.06-2.13.04-3.19-.08-.35-.04-.66-.51-.99-.79-.48-.67-.12-1.35.04-2,1.54-6.29,3.22-12.55,4.9-18.8.34-.55.08-1.43.92-1.71Z" style="fill: #0e9c8c; stroke-width: 0px;"/>
      <path d="M156.24,93.13c1.17-2.33,2.35-4.65,3.52-6.98.63,2.6,1.26,5.2,1.88,7.8.09,1.44.18,2.88.27,4.31.01.22.04.45.07.67-.09.02-.18.05-.27.07-.2-1.4-1.45-1.34-2.37-1.65-1.33-.46-1.55-1.72-2.16-2.71-.31-.51-.63-1.01-.95-1.51Z" style="fill: #8be57f; stroke-width: 0px;"/>
      <path d="M154.23,74.74c-1.22-2.59-2.44-5.17-3.66-7.76.3.06.7.02.87.2,1.91,2.04,3.79,4.1,5.66,6.17.91,1,1.78,2.04,2.67,3.06-.47-.14-1.05-.15-1.38-.44-1.5-1.35-1.48-1.38-2.72.22-.4-.48-.8-.95-1.2-1.43-.08-.02-.17-.03-.25-.04h0Z" style="fill: #06434f; stroke-width: 0px;"/>
      <path d="M10.77,70.02c.46-1.2.92-2.41,1.38-3.61,2.04-3.89,4.08-7.79,6.11-11.68-.22-.42-.02-.61.36-.72,4.95-.32,9.92-.35,14.87-.86.28-.03.55,0,.81.12.13.09.21.21.24.36-.04.77-.69,1.05-1.19,1.41-2.39,1.72-4.71,3.54-7.09,5.27-4.68,3.32-9.39,6.6-14.16,9.79-.31.2-.6.47-.98.5-.45.04-.6-.17-.35-.59Z" style="fill: #04535f; stroke-width: 0px;"/>
      <path d="M34.4,53.9c0-.09,0-.18,0-.27.29-.86-.49-.75-.88-.9-3.1-1.22-6.2-2.42-9.29-3.67-.63-.26-1.35-.44-1.51-1.27.83-1.2,1.65-2.41,2.48-3.61.22-1.39,1.05-2.34,2.24-3.01.29-.03.55.06.78.24,1.73,1.98,4.11,2.73,6.49,3.49.27.01.52.09.74.26.18.41.54.56.91.76,2.52,1.33,5.1,2.53,7.61,3.87.86.46,1.91.79,2.17,1.95.02.22.03.43.02.65-.69,3.67-1.61,7.29-2.34,10.96-.08.41-.24.8-.52,1.12-.68.61-1.25.44-1.73-.26-2.01-2.94-4.49-5.51-6.51-8.44-.38-.55-.94-1.06-.68-1.86Z" style="fill: #044454; stroke-width: 0px;"/>
      <path d="M22.73,47.78c1.97.86,3.93,1.74,5.92,2.56,1.91.78,3.85,1.49,5.78,2.22,1.02.39.7.73-.03,1.07-4.11.26-8.22.56-12.33.77-1.17.06-2.35-.13-3.52-.21,1.2-1.85,2.4-3.71,3.6-5.56.19-.28.39-.56.58-.83Z" style="fill: #1d5665; stroke-width: 0px;"/>
      <path d="M21.39,34.97c1.92-.56,3.84-1.12,5.76-1.67.25.16.4.41.41.68.08,2.12.5,4.28-.61,6.29-.35.27-.73.19-1-.06-1.2-1.09-2.58-2.03-3.17-3.65-.46-.53-.92-1.06-1.38-1.59Z" style="fill: #a7b3a5; stroke-width: 0px;"/>
      <path d="M52.75,13.28c3.33.29,6.66.58,10,.87,1.42-.1,2.74.39,4.07.77,6.41,1.8,12.8,3.7,19.24,5.39.22.08.38.21.47.43.03.14.02.28-.02.42-.54.84-1.5,1.03-2.3,1.47-1.33.74-2.76,1.3-4.05,2.11-2.1,1.21-4.32,2.16-6.44,3.32-2.13,1.29-4.45,2.21-6.57,3.51-.35.22-.75.35-1.18.33-.21-.02-.41-.09-.6-.18-.13-.06-.24-.13-.35-.22-3.95-4.63-7.96-9.21-11.77-13.97-.75-.94-1.63-1.77-2.29-2.78-.27-.42-.73-.86-.44-1.36.26-.46.85-.17,1.28-.21.31-.02.65-.08.95.09Z" style="fill: #0e9bd1; stroke-width: 0px;"/>
      <path d="M86.16,20.61c-1.36-.29-2.74-.52-4.09-.89-6.16-1.7-12.32-3.43-18.47-5.16-.3-.08-.57-.27-.86-.4,4.51-1.86,9.01-3.72,13.52-5.57,1.15-.47,2.32-.9,3.48-1.35.49.14.73.54.93.96,1.82,3.61,3.64,7.23,5.42,10.86.24.49.49,1.02.07,1.55Z" style="fill: #167385; stroke-width: 0px;"/>
      <path d="M52.75,13.28h-1.92c-.1.12-.19.23-.29.35,4.92,5.91,9.84,11.81,14.76,17.72-.39.49-.88.35-1.39.25-3.25-.65-6.43-1.55-9.65-2.35-.45-.11-.88-.24-1.34-.27-2.03-1.11-3.89-2.41-5.1-4.46.08-2.5.7-4.92,1.04-7.38.06-.4.18-.82.6-1.03.14-.43.31-.86.4-1.3.43-1.97.78-2.17,2.87-1.52Z" style="fill: #0e6771; stroke-width: 0px;"/>
      <path d="M86.16,20.61c-.2-.56-.34-1.15-.6-1.68-1.93-3.9-3.87-7.79-5.82-11.69,2.21-.95,4.42-1.89,6.64-2.84,2.4.94,4.8,1.89,7.2,2.83.31.88-.34,1.5-.68,2.15-1.82,3.47-3.44,7.05-5.41,10.44-.25.43-.38,1.09-1.13.99-.07-.07-.13-.14-.2-.21Z" style="fill: #2a94af; stroke-width: 0px;"/>
      <path d="M49.48,16.1c-.48,2.88-.96,5.75-1.45,8.63-.74.28-1.19-.34-1.76-.57-.49-.37-1.25-.47-1.34-1.26,0-2.61.07-5.22-.04-7.83-.02-.53-.71-1.03-1.08-1.55-.18-.25-.33-.51-.5-.76,2.06,1.11,4.12,2.23,6.18,3.34Z" style="fill: #f5f6ef; stroke-width: 0px;"/>
      <path d="M27.76,23.03c-.03-.19-.05-.37-.08-.56,2.59-1.48,5.17-2.98,7.8-4.41.39-.21,1.11-.23,1.49-.01,2.05,1.21,4.04,2.53,6.06,3.81.15.28-.04.39-.25.49-2.03.11-4.06.03-6.09.05-1.64.02-1.64.01-1.27,1.62.04.18.03.37,0,.55-.58.79-1.24.43-1.8.04-1.11-.75-2.2-1.1-3.47-.38-.68.39-1.21-.22-1.8-.4-.32-.17-.55-.41-.57-.8Z" style="fill: #115d6d; stroke-width: 0px;"/>
      <path d="M42.75,22.2c.09-.11.19-.22.28-.34.63.35,1.26.69,1.9,1.04.47.33.95.65,1.42.98.7,3.52,1.17,7.07,1.74,10.61.07.41.07.83-.12,1.21-.69.65-1.13.13-1.4-.4-1.74-3.47-3.96-6.64-5.9-9.99.28-1.31.79-2.48,2.09-3.11Z" style="fill: #04283a; stroke-width: 0px;"/>
      <path d="M27.17,40.84c-.17-.19-.34-.39-.51-.58.16-2.32.32-4.64.48-6.96.09-1.49.18-2.98.27-4.47.43.34.03-.19.17-.16.03-.21-.06-.46.26-.64.5.17.54.64.57,1.07.07.85.55,1.43,1.15,1.96.67.6,1.32.81,2.02.05.32-.34.7-.61,1.22-.48.53.21.73.65.81,1.18-.01.89-.55,1.56-1,2.24-1.33,2-2.77,3.93-4.19,5.88-.3.42-.54,1.01-1.25.91Z" style="fill: #95a395; stroke-width: 0px;"/>
      <path d="M32.74,30.83c-.21.09-.49.11-.61.27-.49.6-.96,1.58-1.82.95-.91-.65-1.58-1.65-2.28-2.56-.17-.23-.03-.7-.23-1.08-.04.5-.09,1-.13,1.5-.05,0-.1.01-.15.02-.03-.37-.07-.73-.1-1.1.11-1.93.23-3.86.34-5.79.19.19.37.37.56.56.67.31,1,.94,1.36,1.52.81,1.34,1.7,2.63,2.54,3.95.33.53.81,1.04.53,1.76Z" style="fill: #92a193; stroke-width: 0px;"/>
      <path d="M117.23,133.4c.09.54.28,1.08.25,1.61-.13,1.92-.38,3.84-.5,5.76-.23,3.72-.35,7.45-.59,11.17-.2,3.16-.5,6.32-.74,9.48-.02.2.13.41.2.62-.74.37-1.48.73-2.23,1.1-.75.69-1.76.91-2.57,1.47-.24.16-.5.27-.78.33-.7-.03-1.39.8-2.11.05-.23-.44-.18-.9-.1-1.36,1.35-8.32,2.27-16.7,3.59-25.02.61-1.7,2.06-2.69,3.35-3.78.66-.56,1.12-1.54,2.24-1.42Z" style="fill: #054d4d; stroke-width: 0px;"/>
      <path d="M117.23,133.4c-1.77,1.67-3.53,3.33-5.3,5-.95,1.36-2.23,2.41-3.44,3.51-1.56,1.42-3.16,2.78-4.67,4.25-.57.45-1.04,1.12-1.91.98-.69-.33-.77-.98-.82-1.64-.1-1.42-.52-1.91-1.9-2.3-.64-.18-1.43-.06-1.82-.8-.05-.59.4-.93.67-1.37.86-1.17,1.89-2.21,2.8-3.34.51-.53.89-1.16,1.42-1.68.22-.22.42-.45.57-.72,2.46-2.97,4.75-6.08,7.28-9,.16-.14.35-.23.56-.27.14,0,.28,0,.42.05.29.16.63.23.94.19,4.05-.63,8.19.14,12.22-.74.29-.06.77-.23.79.39-1.02,1.1-2.04,2.2-3.06,3.29-1.58,1.4-3.16,2.79-4.74,4.19Z" style="fill: #061623; stroke-width: 0px;"/>
      <path d="M125.04,125.92c-.08-.04-.17-.13-.24-.11-3.45,1-6.99.52-10.5.66-.58.02-1.16.34-1.72.28-.61-.06-1.19-.39-1.78-.61.01-.07.03-.13.04-.2,1.58-1.93,3.4-3.62,5.35-5.17,1.23-.51,2.55-.44,3.83-.51,3.36-.18,6.7-.7,10.08-.53.36.08.54.37.75.64-.18.26-.36.53-.55.79-.26.67-.71,1.16-1.4,1.4-1.29,1.12-2.57,2.24-3.86,3.36Z" style="fill: #031321; stroke-width: 0px;"/>
      <path d="M128.9,122.55c.47-.46.93-.93,1.4-1.39-.18,1.95-.37,3.9-.55,5.85-.1-1.27-.17-2.54-.31-3.8-.03-.24-.35-.44-.54-.66Z" style="fill: #0b5540; stroke-width: 0px;"/>
      <path d="M147.28,106.98c.28,1.21.57,2.43.85,3.64-.03.17-.06.34-.09.51-4,2.13-8,4.26-11.99,6.4-1.55.83-3.08,1.7-4.61,2.56-.1-.01-.19-.02-.29-.03-.35-.74.09-1.34.36-1.96,1.26-2.88,2.55-5.75,3.78-8.65.36-.68.68-1.38.99-2.09.19-.45.35-.96.97-1.01,1.81,1.66,4.32,1.47,6.41,2.38.34.15.71.19,1.07.29,1.45.41,1.44.41,1.83-1.09.1-.4.02-1,.73-.95Z" style="fill: #082c30; stroke-width: 0px;"/>
      <path d="M130.84,120.37c-.19-.1-.37-.19-.56-.29-3.54-1.33-6.67-3.45-10.08-5.04-.42-.19-.8-.47-.87-.99.11-.69.65-1.1,1.07-1.57,2.01-2.27,4.1-4.46,6.2-6.66.28-.3.59-.59,1.02-.68.23-.02.44.04.61.19.44.49.46,1.12.61,1.71.62,3.45,1.46,6.86,2.09,10.3.16.9.43,1.81-.06,2.7-.01.11-.02.22-.03.33Z" style="fill: #05614b; stroke-width: 0px;"/>
      <path d="M130.87,120.04c-.81-4.12-1.62-8.25-2.43-12.37-.04-.22-.05-.45-.08-.68.47-1.17,1.35-1.54,2.55-1.3,1.08.22,2.17.4,3.2.79,1.97.75,2.05.93,1.49,3.06-1.16,2.75-2.31,5.49-3.47,8.24-.32.76-.66,1.52-.98,2.28-.09,0-.18,0-.27-.02Z" style="fill: #198051; stroke-width: 0px;"/>
      <path d="M162.31,69.99c-.34-.08-.74-.07-1.01-.25-4.41-3.04-8.8-6.11-13.21-9.15-.3-.21-.73-.21-1.1-.31-1.97-.94-3.71-2.21-5.35-3.63-.66-.58-1.39-1.07-2.01-1.69-.4-.41-.97-.91-.04-1.4.95-.29,1.93-.24,2.88-.17,3.53.26,7.08.34,10.61.56.52.03,1,.15,1.4.51,2.31,4.51,4.63,9.01,6.93,13.52.33.65.59,1.35.89,2.02Z" style="fill: #088e85; stroke-width: 0px;"/>
      <path d="M154.49,54.45c-5.1-.18-10.21-.36-15.31-.54-.7.37-1.11-.06-1.49-.56-.15-.58.23-.87.67-1.05,3.94-1.65,7.88-3.3,11.91-4.72.41.08.71.26.63.75,1.03,1.67,2.06,3.34,3.1,5,.17.37.34.74.5,1.11Z" style="fill: #328988; stroke-width: 0px;"/>
      <path d="M138.92,9.2c3.8,2.36,7.6,4.73,11.4,7.09.73-.08,1.22.26,1.5.92.01.14.04.31-.05.4-1.95,1.96-3.82,4.03-6.46,5.13-1.26-.25-2.25-1.03-3.3-1.68-1.3-.8-2.67-1.46-3.96-2.27-.89-.57-1.72-.47-2.57.11-1.6,1.09-3.3,2.03-4.96,3.03-.35.23-.71.45-1.08.65-.38.16-.75.18-1.09-.1-.6-.59-.73-1.35-.75-2.13-.05-1.5-.09-3,.03-4.49.02-1.13.08-2.24,1.35-2.76,1.25-.69,2.69-.97,3.89-1.77.12-.06.24-.1.37-.13,1.35-.26,2.39-1.24,3.74-1.59.65-.17,1.29-.31,1.95-.4Z" style="fill: #fafaf8; stroke-width: 0px;"/>
      <path d="M133.05,11.34c1.22-.63,2.45-1.27,3.67-1.9.73-.08,1.46-.16,2.2-.24-.07.19-.16.55-.22.55-1.69-.1-3.02.72-4.38,1.56-.31.19-.84.03-1.27.03Z" style="fill: #e6f3f0; stroke-width: 0px;"/>
      <path d="M146.17,63.08c-.74,2.89-1.47,5.79-2.21,8.68-1.04,4.06-2.08,8.11-3.12,12.16-.09.19-.18.38-.27.57-.59.18-.97-.23-1.34-.54-3.53-2.9-6.99-5.88-10.51-8.8-.29-.24-.52-.52-.6-.91-.02-.14,0-.27.02-.41.31-.73.97-1.1,1.58-1.5,4.78-3.14,9.7-6.07,14.38-9.37.41-.29.85-.57,1.39-.57.37.09.57.34.68.68Z" style="fill: #016264; stroke-width: 0px;"/>
      <path d="M128.35,74.2c1.77,1.53,3.52,3.08,5.31,4.59,2.29,1.92,4.6,3.81,6.91,5.71,0,.08,0,.17,0,.25-.11.3-.3.52-.6.64-5.84,1.79-11.79,3.22-17.66,4.91-.44.13-.9.23-1.37.21-.24-.03-.42-.15-.53-.36-.08-.21-.07-.43,0-.64,1.61-2.93,2.68-6.09,4.14-9.09.85-1.75,1.58-3.55,2.43-5.3.25-.52.41-1.36,1.36-.91Z" style="fill: #013b43; stroke-width: 0px;"/>
      <path d="M140.03,85.04c.18-.1.36-.2.55-.3.74,2.04,1.49,4.09,2.23,6.13.44.86-.26,1.29-.74,1.69-1.57,1.32-2.96,2.84-4.58,4.1-2.8,2.8-5.67,5.51-8.64,8.13-.24.21-.43.49-.78.53h-.53c-.69.07-1.31-.16-1.9-.49-.65-.64-.68-1.98-.09-3.03.2-.36.52-.63.78-.94,3.48-4.39,7.19-8.59,10.83-12.84.9-1.05,1.63-2.26,2.86-2.99Z" style="fill: #1b705d; stroke-width: 0px;"/>
      <path d="M147.28,106.98c-.16.6-.5,1.23-.44,1.81.14,1.32-.74,1.06-1.38.93-.97-.2-1.91-.6-2.87-.87-1.23-.35-2.45-.75-3.71-.96-.95-.16-1.45-.6-1.65-1.48-.33-.39-.18-.81-.1-1.23,1.81-4.33,3.79-8.58,5.56-12.92.14-.34.31-.67.7-.81.31.9.7,1.79.92,2.71,1.02,4.27,1.99,8.54,2.97,12.82Z" style="fill: #072a31; stroke-width: 0px;"/>
      <path d="M143.39,91.45c-1.8,4.24-3.6,8.48-5.4,12.73-.16.38-.32.76-.47,1.15-.95,0-.85-.66-.73-1.24.16-.76.56-1.45.88-2.16.54-1.17.81-2.35.67-3.71-.09-.91-.77-1.18-1.1-1.78,1.55-1.41,3.12-2.81,4.64-4.25.38-.36.62-.87.92-1.31.19.19.39.38.58.57Z" style="fill: #1f8159; stroke-width: 0px;"/>
      <path d="M146.17,63.08c-.19-.19-.39-.37-.58-.56-.28-.36-.82-.72-.75-1.12.32-1.85-1.3-2.05-2.28-2.53-1.09-.53-2.39-1.16-3.66-.18-.1.08-.26.13-.39.12-2.48-.05-3.42,1.85-4.51,3.55-.24.37-.34.75-.23,1.18.1.39.03.75-.34.97-.43.26-.8.03-1.14-.22-.34-.25-.72-.49-.83-.9-.25-.96-.86-1.73-1.27-2.6.41.77.55,1.63.79,2.46.15.54.34,1.2-.33,1.45-.67.26-.74-.5-1.02-.87-1.04-3.88-1.97-7.78-2.69-11.73.01-.15.06-.29.12-.42,1.26-1.09,2.66-.66,4.01-.28.79.22,1.52.64,2.28.96,1.25.53,2.43,1.3,3.89.72.2-.08.43.12.61.27.45.19.9.39,1.34.58,2.14,1.71,4.28,3.42,6.41,5.14.48.39.93.82,1.4,1.23-.09.38-.19.75-.28,1.13-.18.55-.36,1.11-.54,1.66Z" style="fill: #06696a; stroke-width: 0px;"/>
      <path d="M154.22,74.73c.08.47.12.94.25,1.4.15.51.35,1.01.57,1.5.17.38.43.71.6,1.09.4.87.74,1.77,1.17,2.63.38.75.88,1.44,1.26,2.19.22.42.3.91.45,1.37-.46.13-.93.39-1.38.37-2.58-.13-5.15-.34-7.72-.51-1.75-.11-3.51-.1-5.24-.32-.8-.1-1.57-.59-2.32-.96-.15-.07-.28-.42-.23-.6.71-2.66,1.45-5.31,2.17-7.97.61-2.23,1.2-4.46,1.81-6.68.07-.24.25-.44.39-.66.24.15.51.28.72.46.17.15.25.38.39.57q1.29,1.83,2.71.19c.11-.13.31-.18.43-.24,1.34,2.08,2.66,4.13,3.99,6.18,0,0,0-.01,0-.01Z" style="fill: #0c9f8c; stroke-width: 0px;"/>
      <path d="M6.05,90.87c-.46-.93-.93-1.85-1.39-2.78-.09-.93-.19-1.85-.28-2.78,5.75-6.07,11.36-12.26,16.99-18.44.36-.39.78-1.42,1.57-.37.06.39-.11.72-.28,1.05-3.06,5.97-5.83,12.08-8.7,18.14-.07.27-.21.51-.28.78-.49,2.25-1.07,4.48-1.65,6.72-.37,1.41-.54,2.87-1.04,4.25-.41,1.08-.19,2.4-1.23,3.24-.54-.1-.69-.56-.85-.99-.9-2.46-1.78-4.92-2.76-7.35-.19-.48-.32-.96-.11-1.47Z" style="fill: #052f3b; stroke-width: 0px;"/>
      <path d="M22.74,66.42c-.19.05-.45.03-.56.15-2.12,2.3-4.22,4.62-6.32,6.94-1.2,1.33-2.36,2.7-3.59,4-2.51,2.69-5.06,5.35-7.59,8.02-.03.03-.07.06-.1.09-.07-.1-.13-.21-.2-.31.37-1.01.75-2.03,1.12-3.04,1.12-2.67,2.22-5.34,3.35-7.99.61-1.43,1.28-2.84,1.92-4.26.24,0,.56.09.73-.03,4.86-3.31,9.72-6.64,14.57-9.97.44.25.55.63.43,1.1-.98,1.31-1.83,2.7-2.6,4.14-.26.48-.38,1.16-1.15,1.16Z" style="fill: #054954; stroke-width: 0px;"/>
      <path d="M26.33,61.14c-.09-.37-.18-.75-.27-1.12,2.78-2.04,5.56-4.08,8.34-6.11,1.68,2.28,3.35,4.57,5.04,6.84.82,1.1,1.64,2.19,2.52,3.23.23.27.7.33,1.06.49.27.2.37.48.41.79.35,2.19,1.22,4.24,1.76,6.39.18.7.52,1.4.2,2.15-.56.58-1,.12-1.45-.17-3.86-2.53-7.64-5.19-11.65-7.5-1.84-1.06-3.56-2.31-5.64-2.89-.61-.62-.89-1.29-.32-2.09Z" style="fill: #02414e; stroke-width: 0px;"/>
      <path d="M43.02,65.31c0-.28,0-.56,0-.84.83-3.63,1.66-7.25,2.49-10.88.1-.45.2-.9.3-1.35.5-.4.89-.05,1.23.23,4.1,3.3,8.3,6.47,12.21,10,.37.34.75.7.89,1.22-.01,1.56-1.01,2.75-1.6,4.08-.72,1.63-1.25,3.37-2.36,4.82-.65.24-1.18-.12-1.69-.4-3.44-1.89-6.88-3.78-10.27-5.76-.49-.28-.92-.61-1.19-1.12Z" style="fill: #149b98; stroke-width: 0px;"/>
      <path d="M59.95,63.63c-4.43-3.66-8.86-7.32-13.3-10.97-.24-.19-.56-.29-.84-.43,0-.18,0-.37.01-.55.12-.11.25-.2.39-.28,2.42-.05,4.72.67,7.08,1.07,2.13.36,4.23.89,6.39,1.05,3.15.54,6.28,1.19,9.44,1.64,1.49.22,2.95.54,4.43.8.58.1,1.18.21,1.52.79.09.65-.32.98-.81,1.26-3.92,1.32-7.65,3.12-11.47,4.7-.55.23-1.09.48-1.66.68-.39.12-.76.33-1.18.23Z" style="fill: #097b81; stroke-width: 0px;"/>
      <path d="M35.51,45.29c-.28,0-.56,0-.83-.01-.59-.34-.6-.94-.68-1.51-.49-2.7-.6-5.42-.6-8.15.19-.93.43-1.11,1.32-.41,2.77,2.18,5.76,4.06,8.92,5.64.83.4,1.1,1.04.85,1.92-1.61,1.59-3.65,2.25-5.82,2.61-1.05.04-2.13.74-3.16-.09Z" style="fill: #0c2a3d; stroke-width: 0px;"/>
      <path d="M35.51,45.29c1.11-.1,2.22-.2,3.33-.29,3.67-.62,7.34-1.14,11.08-1.06.89.52.32,1.14.03,1.63-1.15,1.95-2.24,3.93-3.52,5.8-.1.09-.2.19-.29.29-.11,0-.21.02-.32.03-.75-.56-1.45-1.23-2.27-1.66-2.61-1.38-5.27-2.66-7.89-4.02-.13-.07-.1-.47-.14-.71Z" style="fill: #1f5a68; stroke-width: 0px;"/>
      <path d="M33.81,35.33c.18,2.92.36,5.84.55,8.76-.26.19-.54.14-.79.03-1.86-.79-3.87-1.28-5.55-2.47-.18-.09-.36-.18-.54-.27-.1-.18-.2-.36-.3-.54,2.05-2.98,4.11-5.96,6.16-8.94.17-.04.31,0,.42.16.68,1.08-.02,2.18.06,3.27Z" style="fill: #72847a; stroke-width: 0px;"/>
      <path d="M28.01,41.65c2.12.81,4.23,1.63,6.35,2.44.11.4.21.8.32,1.2-2.49-.73-4.98-1.44-6.67-3.64Z" style="fill: #083d4f; stroke-width: 0px;"/>
      <path d="M86.36,20.82c.88-1.55,1.79-3.08,2.62-4.66,1.56-2.96,3.07-5.95,4.6-8.92,2.88,1.18,5.77,2.36,8.65,3.54.9.38.95,1.07.5,1.77-.97,1.5-2.29,2.63-3.88,3.45-.39.2-.8.1-1.22.01-.65-.14-1.33-.48-1.82.37-.5.88.27,1.22.64,1.74-.23.77-.95.79-1.54.95-2.03.55-4.05,1.16-6.08,1.72-.58.16-1.14.34-1.62.72-.41.11-.71,0-.86-.43,0-.09,0-.17,0-.26Z" style="fill: #157589; stroke-width: 0px;"/>
      <path d="M96.4,18.05c-.8.05-1.58-.27-1.26-1.09.23-.6.05-2.11,1.64-1.54.64.23,1.6.48,2.03.17,1.34-.96,2.55-2.14,3.69-3.35.2-.21-.16-.96-.26-1.46,1.85.66,3.7,1.31,5.55,1.97,1.55.9,3.21,1.36,5.02,1.16-.05.56-.51.63-.91.66-2.79.23-5.37,1.31-8.05,2.02-1.96.52-3.92,1.08-5.89,1.58-.53.13-1.08.35-1.57-.11Z" style="fill: #187389; stroke-width: 0px;"/>
      <path d="M65.82,31.65c2.34-1.19,4.68-2.37,7.02-3.56.24-.12.5-.22.75-.33,3.06-.26,6.11.11,9.16.17.78.24,1.58.29,2.39.27.49,0,.99-.02,1.38.37.45.65.42,1.4.39,2.12-.08,1.86.27,3.75-.26,5.59-.25.43-.63.64-1.13.6-2.22-.46-4.49-.45-6.73-.48-3.46-.06-6.92-.21-10.38-.34-.56-.02-1.11-.06-1.6-.36-.98-1.19-1.55-2.49-1-4.06Z" style="fill: #075a72; stroke-width: 0px;"/>
      <path d="M86.38,28.61l-3.62-.28c.59-.64,1.38-.39,2.09-.43,1.55-.09,2.22-1.04,1.65-2.5-.29-.76-.25-1.54-.29-2.34-1.63,0-2.86,1.05-4.27,1.61-.72.28-1.38.57-1.95-.23,2.12-1.12,4.24-2.24,6.36-3.36.29.1.57.2.86.29.43-.23.82-.04,1.19.14,3.22,1.63,6.51,3.12,9.64,4.91.55.31,1.37.53,1.12,1.5-.48.68-1.22.88-1.96.87-3.01-.05-6.01.37-9.01.33-.65,0-1.31-.02-1.82-.52Z" style="fill: #054c60; stroke-width: 0px;"/>
      <path d="M80,24.44c1.13.71,1.89-.42,2.8-.65,1.3-.32,2.47-1.14,3.86-1.82,0,.54-.07,1.21.02,1.85.08.59.27,1.2.54,1.74.37.72-.57,2.71-1.42,2.75-1.01.05-2.03.01-3.04.02-2.81-.09-5.62-.18-8.43-.3-.25-.01-.5-.18-.75-.27,2.14-1.11,4.27-2.21,6.41-3.32Z" style="fill: #04495e; stroke-width: 0px;"/>
      <path d="M52.75,28.61c3.06.7,6.11,1.4,9.17,2.08,1.12.25,2.25.44,3.38.66.07.02.13.05.19.09.07.54-.3.76-.71.85-2.03.45-3.95,1.24-5.94,1.82-.4.12-.81.17-1.22,0-1.43-1.6-2.85-3.2-4.51-4.57-.28-.23-.54-.51-.36-.94Z" style="fill: #05304a; stroke-width: 0px;"/>
      <path d="M57.48,33.9c1.79-.52,3.58-1.04,5.37-1.58.89-.27,1.76-.58,2.63-.88.11.07.22.13.34.2.28,1.21.55,2.42.83,3.63-.54.6-1.26.51-1.94.51-1.67,0-3.31-.32-4.98-.39-.94-.14-1.73-.58-2.5-1.11-.13-.27-.08-.42.25-.38Z" style="fill: #075670; stroke-width: 0px;"/>
      <path d="M57.48,33.9c-.1.09-.2.17-.31.26-.71,1.51-1.65,2.84-2.89,3.96-1.16.5-2.3,1.04-3.41,1.64-1.46.57-2.72,1.61-4.31,1.9-1.07-.3-.67-1.02-.41-1.62.59-1.38,1.24-2.73,1.59-4.2-.41-2.77-.83-5.54-1.25-8.31-.15-.95-.35-1.9-.46-2.85-.03-.25.19-.53.3-.79.56.29,1.12.57,1.68.86,1.57,1.29,3.15,2.58,4.72,3.87,1.31,1.26,2.65,2.5,3.91,3.8.38.39.55.99.82,1.49Z" style="fill: #041326; stroke-width: 0px;"/>
      <path d="M33.58,31.94c-.08-.01-.17-.03-.25-.04-.2-.36-.39-.71-.59-1.07-1.47-2.41-2.95-4.82-4.42-7.23.95.24,1.79.19,2.78-.15.7-.25,1.75.47,2.64.77.5.16,1,.34,1.5.5,1.57,1.05,2.29,2.57,2.44,4.41-.81,1.31-2.18,1.96-3.33,2.86-.22.17-.52.19-.76-.04Z" style="fill: #13616f; stroke-width: 0px;"/>
      <path d="M37.47,29.16c-.74-1.48-1.48-2.97-2.23-4.45-.34-.84-.69-1.68-1.03-2.51,2.9,0,5.71,0,8.53,0-.65,1.02-1.3,2.04-1.96,3.07-.57,1.63-1.72,2.82-2.95,3.97-.13.03-.26,0-.37-.07Z" style="fill: #0d3f4f; stroke-width: 0px;"/>
      <path d="M37.75,29.16c1.01-1.3,2.03-2.59,3.04-3.89,1.19,1.74,2.45,3.44,3.57,5.23.94,1.52,1.71,3.15,2.59,4.7.16.28.53.43.8.64,0,.55.14,1.15-.03,1.64-.36,1.03-.91,1.99-1.3,3.01-.09.24.13.6.21.9-.37,1.1-1.14,1.42-2.22,1.12-.28-.46-.56-.93-.84-1.39-.48-.15-.73-.54-.95-.95-1.71-3.21-3.16-6.54-4.74-9.8-.18-.38-.27-.78-.14-1.2Z" style="fill: #072335; stroke-width: 0px;"/>
      <path d="M103.61,145.89c2.78-2.5,5.55-5,8.33-7.49-.3,2.63-.56,5.26-.9,7.88-.5,3.82-1.04,7.63-1.58,11.45-.35,2.45-.73,4.9-1.1,7.35-.11.52-.54.72-.94.96-1.35.82-2.74,1.56-4.17,2.21-.51.23-1.1.67-1.58-.11-.39-1.9.15-3.76.28-5.63.12-1.69.23-3.39.4-5.08.36-3.61.46-7.24.97-10.84.08-.24.18-.48.31-.7Z" style="fill: #033b40; stroke-width: 0px;"/>
      <path d="M97.49,142.27c.56.18,1.15.28,1.66.54.86.44,1.67.97,2.48,1.5.08.05.04.3.06.45.09.76.17,1.51.26,2.27.1.23.07.48-.09.65-1.28,1.37-2.54,2.78-4.35,3.5-3.6.4-7.22.31-10.82.04-1.78-.13-3.51.13-5.26.17-1.9.04-3.8.07-5.68-.2-.95-.07-1.61-.65-2.23-1.29-1.23-1.26-2.55-2.41-3.95-3.48-1.89-1.76-3.79-3.49-5.74-5.19-.35-.31-.66-.65-.76-1.13.23-1.13.52-1.28,1.37-.68.26.19.49.43.7.67,1,1.19,2.21,2.08,3.58,2.81,1.13.59,2.32,1.1,2.93,2.39.27.57.93.89,1.5,1.21.54.3,1.06.34,1.44-.28.4-.64,1.03-.65,1.7-.71,2.63-.22,4.74.98,6.79,2.38.57.39,1.13.83,1.84.93.44.06.85-.06,1.03-.52.18-.45-.18-.67-.47-.89-.65-.5-1.43-.62-2.21-.74-.46-.07-.93-.04-1.37-.21-.55-.21-1.02-.54-.86-1.23.14-.63.65-.68,1.21-.65,2.43.14,4.86.6,7.31.16.63-.11,1.25-.08,1.85-.44.82-.49,1.72.06,2.66.02.06,0,.07-.03-.06-.02-.38.01-.74,0-1.01-.32-.05-.24.08-.4.26-.52,1.48-.15,2.82-.78,4.22-1.19Z" style="fill: #071825; stroke-width: 0px;"/>
      <path d="M110.8,126.14c-.08,0-.15.02-.22.06-.41-.22-.52-.63-.63-1.03-1.68-5.96-4.12-11.64-6.29-17.42-.32-.86-.71-1.71-.72-2.65-.07-1,.45-1.56,1.38-1.76,1.19-.25,2.25-.81,3.38-1.2.77-.26,1.34-.76,1.77-1.47,1-1.68,1.33-1.73,2.84-.56.18.16.29.36.36.58.04.16.04.31,0,.47-.43,2.42-.99,4.81-.89,7.3.04,1,.52,1.97.18,2.98-.27,2.59-.74,5.18-.21,7.79.16,1.05-.15,2.07-.22,3.11-.1,1.3.08,2.65-.75,3.8h.02Z" style="fill: #b8e5d8; stroke-width: 0px;"/>
      <path d="M97.76,150.9c1.4-1.29,2.8-2.57,4.2-3.86.55-.38,1.1-.76,1.66-1.15,0,.19,0,.38,0,.57-.74,3.8-.75,7.68-1.1,11.51-.32,3.48-.6,6.97-.84,10.46-1.86,1.01-3.71,2.03-5.57,3.04-.5-.42-.44-.99-.39-1.54.5-5.94,1.2-11.86,1.57-17.81.02-.28.09-.55.17-.81.07-.16.17-.3.3-.42Z" style="fill: #0e3d3c; stroke-width: 0px;"/>
      <path d="M103.33,105.07c.93,2.59,1.9,5.18,2.79,7.79,1.51,4.44,2.98,8.89,4.47,13.34-.09.1-.18.21-.27.31-.9.25-1.58-.4-2.38-.6-1.89-.48-3.71-1.17-5.56-1.78-.56-.19-1.19-.31-1.45-.96-.12-.84.21-1.51.77-2.12,2.22-2.43,1.82-6.54-.81-8.45-.49-.35-.96-.72-1.14-1.33-.05-.21-.05-.43-.02-.64.52-1.77,1.39-3.4,2.1-5.1.21-.5.46-1.02,1.11-1.12.37.08.19.49.4.67Z" style="fill: #fcfdf7; stroke-width: 0px;"/>
      <path d="M101.11,123.12c1.93.69,3.87,1.37,5.8,2.07,1.14.42,2.27.88,3.4,1.32-2.42,3.04-4.85,6.07-7.27,9.11-.59.35-.82-.12-1.1-.48-1.19-3.06-2.26-6.17-3.4-9.25-.36-.99-.33-2-.33-3.02-.02-.67.1-1.32.32-1.95.27-.74.44-1.51.78-2.23.3-.77-.02-1.77.86-2.32.8.34.76,1.05.75,1.73,0,.55-.2,1.08-.44,1.57-.63,1.31-.72,2.5.64,3.44Z" style="fill: #f6fbec; stroke-width: 0px;"/>
      <path d="M102.33,135.05c.23.19.47.38.7.57-.17.19-.33.38-.5.57-1.42.79-2.9.52-4.39.27-.67-.22-1.38-.18-2.06-.35-.6-.09-1.19-.2-1.78-.34-2.55-.36-5.03-1.03-7.54-1.61-.55-.98.39-1.23.86-1.67.39-.37.86-.67,1.46-.6.22.1.38.25.49.58-.08-.56.15-.89.63-1.06.71-.25,1.54-.6,2.13-.12,1.94,1.6,4.4,1.16,6.59,1.76,1.4.38,2.62.69,3.39,1.98Z" style="fill: #97b899; stroke-width: 0px;"/>
      <path d="M97.99,135.92c1.52.09,3.03.18,4.55.27-.47.55-.95,1.11-1.42,1.66-.88.11-1.24.88-1.74,1.44-.46.5-.94.9-1.65.75-1.1-.23-2.05.33-3.07.51-.4.07-.78.32-1.1-.14-.1-.28,0-.52.13-.75,1.34-1.36,2.73-2.67,4.31-3.75Z" style="fill: #d5e1bf; stroke-width: 0px;"/>
      <path d="M93.65,140.36c.66-.17,1.33-.33,1.99-.51.12-.03.24-.23.34-.21,1.86.34,3.25-.35,4.32-1.87.08-.11.54.04.82.08-.93,1.1-1.86,2.2-2.8,3.3-1.49.39-3.04.36-4.56.57-1.82-.08-3.63-.02-5.45-.07-.61-.01-1.31.11-1.71-.58.17-.47.59-.6,1-.62,2.01-.08,4.03-.15,6.05-.1Z" style="fill: #dae2c5; stroke-width: 0px;"/>
      <path d="M93.89,141.46c1.48-.1,2.96-.21,4.43-.31-.28.37-.55.75-.83,1.12-1.05,1.47-2.63,1.38-4.16,1.41-.35-.21-.79-.24-1.11-.53-.46-.42-.32-1.36.25-1.38.52-.02.87-.57,1.41-.31Z" style="fill: #e3e6ca; stroke-width: 0px;"/>
      <path d="M119.48,113.92c.39.3.74.66,1.17.88,2.72,1.43,5.47,2.83,8.19,4.26.52.27.97.68,1.45,1.02-4.81.37-9.62.73-14.43,1.1-.78.47-1.6.86-2.55.82-1.04-.32-.51-.93-.18-1.37,1.19-1.58,2.42-3.15,3.91-4.46,1.28-1.13,1.84-2.42,1.71-4.13-.11-1.42-.11-2.86.04-4.28.04-.41-.13-1.42.94-.81.36,2.34.66,4.68-.24,6.97Z" style="fill: #053c41; stroke-width: 0px;"/>
      <path d="M113.34,121.73c.84-.18,1.67-.37,2.51-.55-1.69,1.65-3.38,3.31-5.07,4.96.13-1.28.25-2.57.38-3.85.69-.33,1.41-.54,2.18-.57Z" style="fill: #072c36; stroke-width: 0px;"/>
      <path d="M137.25,96.43c.4-.02.81-.05,1.16-.07,1.04,2.68.11,5.07-1.06,7.45-.19.38.1.99.17,1.5-.09.36-.19.72-.28,1.09-.55,1.04-1.09,2.09-1.64,3.13q-.05-2.38-2.41-2.86c-.49-.1-.99-.21-1.46-.38-1.26-.44-2.41-.38-3.36.68-.1-.55-.2-1.11-.29-1.66.71-.76,1.4-1.55,2.15-2.27,2.33-2.22,4.68-4.42,7.03-6.63Z" style="fill: #208055; stroke-width: 0px;"/>
      <path d="M119.48,113.92c-.01-2.4-.02-4.8-.04-7.2-.77-1.23-.66-2.43.1-3.62.5-.39,1.03-.22,1.56-.1,1.63.36,3.24.76,4.75,1.5.56.28,1.13.56,1.69.84-2.69,2.86-5.38,5.72-8.07,8.58Z" style="fill: #04937b; stroke-width: 0px;"/>
      <path d="M137.84,53.33c-.09,0-.2-.03-.27.01-2.32,1.24-4.02-.6-5.89-1.3-1.52-.57-2.95-.71-4.49-.35-.29-.06-.26-.26-.2-.46.28-.51.8-.76,1.28-1.01,3.28-1.76,6.59-3.46,10.03-4.88,2.36-.57,4.17-2.19,6.22-3.34.43-.24.78-.65,1.35-.51,1.08.73,2.1,1.51,2.24,2.95.74,1.11,1.47,2.23,2.21,3.34-2.29.96-4.58,1.93-6.87,2.88-1.66.69-3.33,1.35-4.98,2.06-.25.11-.42.4-.63.6Z" style="fill: #086568; stroke-width: 0px;"/>
      <path d="M151.69,17.26c.1.79.24,1.58.3,2.38.06.67.03,1.35.05,2.03.2,3.68.71,7.34.35,11.04-.08.86-.03,1.77-.59,2.52-2.29.02-4.44-.42-6.22-2.01-.33-2.92-.53-5.86-.51-8.8,0-.41.01-.83-.05-1.24,0-.27.1-.5.3-.69,2.12-1.74,4.24-3.48,6.36-5.22Z" style="fill: #e7ecdc; stroke-width: 0px;"/>
      <path d="M128.65,22.54c.27-.11.54-.22.81-.33,1.4.14,2.32,1.12,2.66,2.83-1.57,3.53-3.42,6.92-5.38,10.25-.23.4-.52.91-1.01.82-.62-.12-.5-.78-.6-1.26.33-3.76,1.14-7.43,1.86-11.12.26-.8.85-1.16,1.66-1.18Z" style="fill: #052e3e; stroke-width: 0px;"/>
      <path d="M145.33,22.48c0,.19,0,.38,0,.57-.16.43-.17,1-.88.88-1.26-1.48-3.08-.87-4.64-1.21-.39-.09-.82.06-1.23-.05-2.1-.34-4.21-.18-6.32-.25-.71-.02-1.51.09-1.91-.76,1.94-1.23,3.86-2.49,5.84-3.64.36-.21,1.07-.12,1.47.09,2.58,1.41,5.12,2.9,7.67,4.36Z" style="fill: #13616f; stroke-width: 0px;"/>
      <path d="M130.34,21.67c1.93.09,3.86.13,5.78.29.94.07,1.86.35,2.79.53-.75,2.34-1.78,4.51-3.54,6.28-1.8-.66-2.79-2.05-3.41-3.78-.84-.93-1.67-1.86-2.51-2.78.29-.18.59-.36.88-.54Z" style="fill: #0e4351; stroke-width: 0px;"/>
      <path d="M128.65,22.54c-.47.35-.95.7-1.42,1.05-.55.93-1.26,1.47-2.4,1.03-.49-.92-.57-1.9-.52-2.92.19-1.53.07-3.09.6-4.59.55-1.56,1.66-2.17,3.16-1.58.19,2.33-.49,4.74.57,7Z" style="fill: #eff5f0; stroke-width: 0px;"/>
      <path d="M128.08,15.54c-2.22.16-3.62,2.07-3.3,4.45.07.56-.03,1.14-.06,1.71-.09-.01-.23-.01-.26-.07-.77-1.78-1.24-3.6-.59-5.54,1.68-1,3.37-2,5.05-2.99.13.02.22.09.27.21-.95.45-1.17,1.27-1.11,2.22Z" style="fill: #e8f2eb; stroke-width: 0px;"/>
      <path d="M129.19,13.32c-.09-.07-.18-.14-.27-.21,1.38-.59,2.76-1.18,4.14-1.77-1.29.66-2.58,1.32-3.87,1.98Z" style="fill: #e6f3f0; stroke-width: 0px;"/>
      <path d="M99.16,27.5c-3.98-2.04-7.96-4.09-11.94-6.13.3-.28.54-.7.89-.82,2.75-.87,5.52-1.68,8.28-2.51,3.68-1,7.36-2.03,11.06-2.99,1.77-.46,3.57-.77,5.35-1.15,2.59-.21,5.17-.41,7.76-.62.72-.21,1.45-.1,2.18-.07.28.71-.22,1.09-.55,1.49-2.67,3.31-5.4,6.57-8.2,9.77-2.1,2.39-3.93,5.03-6.36,7.13-.6.36-1.16.16-1.68-.15-1.86-1.09-3.81-1.99-5.72-2.97-.45-.23-.9-.46-1.08-.99Z" style="fill: #0b95c6; stroke-width: 0px;"/>
      <path d="M107.52,31.39c4.04-4.74,8.08-9.47,12.11-14.21,1.01-1.19,1.98-2.41,3.19-3.89-.94,0-1.6,0-2.26,0,.58-.08,1.18-.31,1.72-.21.4.08.84.54,1.02.94.29.65.39,1.38.56,2.08.28,1.87.57,3.74.85,5.6.11,1,.22,1.99.33,2.99.16.35,0,.67-.24.87-1.55,1.26-2.9,2.84-4.92,3.43-3.23.59-6.35,1.64-9.55,2.32-.81.17-1.6.43-2.44.35-.15-.05-.27-.14-.37-.27Z" style="fill: #0e6974; stroke-width: 0px;"/>
      <path d="M130.05,63.91c.15.21.3.43.45.64.09-.02.19-.04.28-.06-.35-1.67-.71-3.34-1.06-5.02.08-.03.17-.05.25-.08.57,1.13,1.14,2.25,1.71,3.38.15.3.27.66.51.87.31.28.72.44,1.09.65-.05-.35-.12-.71-.15-1.06-.02-.18-.04-.41.05-.53.89-1.23,1.76-2.47,2.72-3.65.22-.27.73-.31,1.12-.41.44-.11,1.03-.01,1.33-.27,1.43-1.17,2.89-.23,4.33-.16.2,0,.38.33.58.5.24.2.53.6.71.56,1.54-.39,1.34.48,1.16,1.45-.05.26.22.57.3.87.08.3.1.62.15.93-4.97,3.23-9.95,6.45-14.91,9.68-.8.52-1.55,1.14-2.32,1.71-.14.11-.27.1-.39-.03-.4-.63-.12-1.25.02-1.87.49-2.12,1.23-4.17,1.64-6.3.11-.61-.15-1.31.42-1.81Z" style="fill: #036b6b; stroke-width: 0px;"/>
      <path d="M128.07,73.91c.09,0,.19,0,.28,0,0,.09,0,.19,0,.28-.31.34-.74.62-.93,1.02-2.08,4.56-4.11,9.15-6.18,13.71-.1.23-.44.36-.67.53-.62-.38-.73-1.06-.91-1.66-1.27-4.21-2.52-8.42-3.85-12.61-.17-.53-.34-1.08.15-1.56.86-.58,1.86-.62,2.81-.5,2.49.31,4.98.2,7.48.25.65.01,1.3.02,1.81.52Z" style="fill: #066565; stroke-width: 0px;"/>
      <path d="M140.03,85.04c-1.42,1.74-2.83,3.49-4.26,5.22-3.02,3.64-6.05,7.26-9.08,10.89-.74.13-.94-.47-1.2-.92-1.75-3.04-3.26-6.2-4.84-9.33-.02-.22.04-.42.19-.58,3.54-1.01,7.08-2.03,10.63-3.01,2.84-.78,5.7-1.51,8.56-2.26Z" style="fill: #135b59; stroke-width: 0px;"/>
      <path d="M115.86,73.91c1.51,4.87,3.02,9.74,4.52,14.61.09.3.14.63.2.94,0,.19,0,.38-.01.57-.22.23-.49.29-.79.27-3.81-1.55-7.58-3.21-11.3-4.98-.68-.47-1.52-.65-2.21-1.09-.75-.48-1.46-1-1.23-2.07.25-.65.83-.79,1.43-.94,1.22-.3,2.47-.33,3.71-.37,2.03-.06,3.09-1.16,3.69-2.94.24-.7.45-1.4.39-2.16.12-.9.47-1.63,1.41-1.92.07.02.13.05.2.07Z" style="fill: #04313c; stroke-width: 0px;"/>
      <path d="M119.7,90.03c.29,0,.58,0,.87,0,.09.09.18.18.27.28,0,.19.01.38.02.57.46.87.32,1.8.23,2.72-.26,2.57-.22,5.17-.88,7.68-.96.78-1.66.51-2.43-.41-1.4-1.66-3.13-2.99-4.71-4.47-.81-.75-1.74-1.37-2.49-2.2-.76-.85-1.68-1.43-2.76-1.78-.39-.33-.59-.72-.39-1.23.31-.41.77-.48,1.24-.52,2.99-.23,5.98-.51,8.97-.81.7-.07,1.37.22,2.06.17Z" style="fill: #03343c; stroke-width: 0px;"/>
      <path d="M119.75,101.46c.17-1.11.4-2.22.51-3.35.23-2.41.41-4.82.6-7.23,1.22,2.26,2.42,4.54,3.67,6.78.67,1.19,1.43,2.33,2.15,3.49-1.3.64-.91,2-1.26,3.04-.02.05.27.2.42.3-2.04-.46-4.08-.93-6.12-1.39-.28-.21-.35-.51-.37-.83.02-.33.1-.62.39-.82Z" style="fill: #186d5e; stroke-width: 0px;"/>
      <path d="M130.05,63.91c-.01.55-.02,1.1-.03,1.65-.29.32-.59.61-1.07.4-.07-.06-.17-.12-.17-.2-.19-2.61-1.2-5.06-1.42-7.66-.07-.76-.21-1.38-.97-1.64-1.01-.34-1.55-1.09-1.98-1.98.4-1.43,1.43-2.15,2.79-2.49.85,3.57,1.69,7.15,2.54,10.72.1.4.21.8.32,1.2Z" style="fill: #2fd7b1; stroke-width: 0px;"/>
      <path d="M127.18,51.99c-.91.82-1.82,1.64-2.73,2.46-.75,1.29-1.84,2.11-3.3,2.43-.57-.63-.78-1.46-1.22-2.16-.37-.58.08-1.17.71-1.38.72-.23,1.3-.64,1.83-1.14.76-.68,1.91-.34,2.66-1.03.59-.38,1.17-.48,1.74.03.04.06.07.12.11.18.06.1.13.21.19.31,0,.1,0,.19,0,.29Z" style="fill: #1dbba5; stroke-width: 0px;"/>
      <path d="M26.33,61.14c.18.65.36,1.3.54,1.94.5.42.61,1.01.77,1.59,1.66,5.97,3.24,11.96,4.89,17.93.17.62.38,1.25.16,1.91-.4.74-1.13.74-1.81.77-4.99.23-9.97.5-14.96.81-.81.05-1.68.2-2.35-.51,3.05-6.39,6.11-12.77,9.16-19.16.88-1.48,1.73-2.98,2.65-4.44.22-.34.63-.56.95-.84Z" style="fill: #017170; stroke-width: 0px;"/>
      <path d="M13.57,85.57c4.78-.26,9.55-.53,14.33-.78,1.15-.06,2.31,0,3.46-.07.38-.03.73-.34,1.1-.52.26-.07.38.09.48.29.04.14.05.28.03.42-.86,2.39-1.84,4.74-2.88,7.06-1.41,5.74-2.99,11.43-4.34,17.18-.11.45-.22.9-.64,1.19-.59.2-.79-.25-1.04-.62-3.38-7.24-6.79-14.46-10.09-21.73-.27-.59-.35-1.24-.67-1.81.09-.2.18-.41.27-.61Z" style="fill: #084f51; stroke-width: 0px;"/>
      <path d="M24.36,109.51c.18.29.35.58.53.87.22.11.3.31.33.53.02.15,0,.29-.02.44-.48,1.79-.53,3.7-1.51,5.35-.21.15-.44.15-.65.04-3.98-2.1-8.19-3.7-12.2-5.73-.5-.15-.92-.42-1.26-.83-.99-.71-1.33-1.57-1.09-2.84.5-2.65,1.12-5.27,1.81-7.88.19-.71.39-1.42.3-2.16.35-1.4.7-2.8,1.05-4.19.96.24,1.36,1.05,1.69,1.83.37.87.85,1.6,1.53,2.26.7.68,1.13,1.57,1.43,2.5.6,1.82,1.47,3.5,2.71,4.94.99,1.15,1.66,2.4,2.11,3.83.25.81.32,2.17,1.83,1.05.32-.24.92.53,1.4,0Z" style="fill: #5bb475; stroke-width: 0px;"/>
      <path d="M24.36,109.51c-.21.43-.42.86-.69,1.43-.14-.52-.24-.89-.37-1.35-1.32,1.51-1.98,1.44-2.37-.49-.53-2.65-2.72-4.22-3.75-6.51-.43-.96-.79-1.95-1.3-2.86-.53-.93-1.23-1.77-1.81-2.68-.83-1.3-1.61-2.62-2.41-3.93.55-2.31,1.1-4.62,1.64-6.93.35.53.77,1.02,1.03,1.58,3.21,6.85,6.39,13.72,9.58,20.58.17.38.3.77.44,1.16Z" style="fill: #5ab174; stroke-width: 0px;"/>
      <path d="M10.61,97.31c-.28,1.79-.54,3.58-.86,5.36-.26,1.4-.65,2.78-.9,4.18-.22,1.24-.06,2.41,1.1,3.21-.22.31-.53.47-.89.53-.3.03-.56-.04-.76-.29-.51-.82-.51-1.6-.24-2.56.65-2.34,1.1-4.73,1.63-7.1.31-1.11.62-2.22.93-3.33Z" style="fill: #5faf7c; stroke-width: 0px;"/>
      <path d="M32.74,84.49c-.09-.1-.19-.19-.28-.29-1.78-6.59-3.57-13.18-5.34-19.77-.12-.44-.16-.9-.24-1.35,1.47.6,3.03,1.03,4.38,1.82,2.89,1.71,5.66,3.6,8.48,5.42,1.84,1.19,3.67,2.39,5.51,3.59.03.06.06.12.09.18,0,.14-.05.26-.12.38-3.07,2.77-6.28,5.38-9.42,8.08-.59.51-1.15,1.06-1.74,1.57-.37.31-.73.77-1.31.37Z" style="fill: #003f4a; stroke-width: 0px;"/>
      <path d="M43.02,65.31c4.34,2.41,8.68,4.82,13.01,7.23.68.22,1.67.25.84,1.38-3.49.49-6.99.63-10.5.49-.43-.02-.81-.19-1.12-.49,0,0,0,0,0,0-.65-2.38-1.32-4.75-1.96-7.13-.13-.48-.18-.98-.27-1.47Z" style="fill: #055461; stroke-width: 0px;"/>
      <path d="M57.23,73.59c-.4-.35-.8-.71-1.2-1.06,1.31-2.97,2.61-5.93,3.92-8.9.29-.17.58-.35.86-.52,1.56,1.01,3.42,1.41,4.93,2.52.45,1.11.72,2.28,1.09,3.42.19.57.3,1.18-.25,1.66-2.83.05-5.11,1.7-7.63,2.66-.51.2-.97.56-1.57.37-.05-.05-.1-.1-.15-.15Z" style="fill: #bdd0ca; stroke-width: 0px;"/>
      <path d="M69.15,55.57c-3.15-.55-6.3-1.09-9.45-1.64-2.17-.49-4.36-.81-6.54-1.22-1.07-.2-1.27-.86-1.18-1.66.11-1,.38-2,1.25-2.67.54-.49,1.21-.71,1.86-.98,4.1-1.7,8.08-3.69,12.29-5.12.29,0,.55.1.79.25.78.88,2.09,1.2,2.57,2.41-.06.73.41,1.33.49,2.03.21.99.24,2,.52,2.98.34,1.2-1.1,3.57-2.33,4.05-.38.15-.82.18-1.12.52.05.54,1.02.34.87,1.04Z" style="fill: #25bead; stroke-width: 0px;"/>
      <path d="M66.3,70.62c.03-.5.16-1.01.07-1.49-.22-1.19-.55-2.37-.83-3.55.03-.57.45-.9.83-1.23,2.16-1.89,4.36-3.72,6.39-5.75.4-.4,1.02-.44,1.38-.89.27-.27.55-.53.82-.8.22-.29.46-.45.77-.11.09.14.15.28.18.44.26,3.84.48,7.68.76,11.52.07.22.11.44.06.67-.26.41-.74.42-1.11.64-2.31,1.02-4.49,2.34-6.97,2.96-1.18-.41-2.07-1.12-2.36-2.41Z" style="fill: #a8cbc5; stroke-width: 0px;"/>
      <path d="M74.14,57.71c-1.23,1.21-2.42,2.47-3.7,3.63-1.6,1.45-3.26,2.83-4.9,4.24-1.71-.57-3.58-.82-4.73-2.47,4.08-1.74,8.17-3.48,12.26-5.21.33-.14.71-.13,1.07-.19Z" style="fill: #cddecc; stroke-width: 0px;"/>
      <path d="M75.52,56.73c-.18.06-.37.12-.55.18-1.59-.35-3.18-.7-4.77-1.06-.35-.08-.7-.19-1.04-.28-.65-.26-1.3-.53-2.3-.94.96-.44,1.58-.68,2.14-1.01.46-.27.86-.64,1.27-.98,2.06-1.71.52-3.77.55-5.68.68-.09.86.48,1.05.91,1.05,2.32,2.39,4.48,3.41,6.81.28.64.79,1.3.24,2.06Z" style="fill: #24c1b1; stroke-width: 0px;"/>
      <path d="M53.57,48.57c-.44.87-1.05,1.7-1.27,2.62-.13.53.18,1.22,1.12,1.38,2.11.35,4.19.89,6.28,1.35-3.12-.51-6.24-1.02-9.36-1.53-1.4-.23-2.8-.49-4.2-.73-.01-.06-.02-.13-.03-.19,2.01-1.63,4.49-2.21,6.83-3.09.21-.08.45.03.63.2Z" style="fill: #2db5af; stroke-width: 0px;"/>
      <path d="M37.75,29.16c1.94,3.98,3.89,7.97,5.83,11.95-.29-.05-.64,0-.87-.15-2.55-1.58-5.09-3.17-7.61-4.8-.43-.28-.72-.77-1.09-1.16,0,0-.1.03-.11.06-.04.08-.06.17-.09.26-.08-1.13-.15-2.26-.23-3.38,1.3-.93,2.59-1.85,3.89-2.78.09,0,.18,0,.27,0Z" style="fill: #133c4f; stroke-width: 0px;"/>
      <path d="M44.41,42.51c.74-.37,1.48-.74,2.22-1.12,1.39-.65,2.78-1.3,4.17-1.95.67.25,1.55.06,1.91.94-.41,1.53-.99,2.95-2.46,3.79-1.59.18-3.18.42-4.78.53-2.2.15-4.41.2-6.62.3,1.86-.83,3.72-1.66,5.57-2.49Z" style="fill: #1a4a5a; stroke-width: 0px;"/>
      <path d="M50.24,44.17c.75-1.29,1.49-2.58,2.24-3.87.17-1.09.93-1.79,1.67-2.5,1.01-1.22,2.01-2.43,3.02-3.65.75.28,1.49.57,2.24.85.94.21,1.67.81,2.27,1.49,1.44,1.61,3.28,2.83,4.51,4.63-.17.83-.71.71-1.27.48-.51-.22-.94-.58-1.42-.86-1.76-1.01-3.24-.78-4.59.69-.91.98-1.77,2-2.98,2.66-.89.48-.87,1.37-.67,2.2.12.51.25.98-.03,1.46-.56.27-1.11.55-1.67.82-2.49.96-4.98,1.93-7.46,2.89,1.38-2.43,2.76-4.86,4.14-7.29Z" style="fill: #0b747b; stroke-width: 0px;"/>
      <path d="M107.52,31.39c.1,0,.21.01.31.02,2.49.29,4.81,1.25,7.21,1.88.42.24,1.11.17,1.12.92-.71.68-1.59,1.01-2.53,1.19-5.88.59-11.78.88-17.69.95-1.18-.17-2.38-.21-3.54.06-1.56.36-3.19-.05-4.73.48-.54.1-.99,0-1.3-.49,0-2.59,0-5.18,0-7.77,3.62-.09,7.23-.15,10.84-.32.66-.03,1.29-.51,1.94-.79,2.28,1.18,4.56,2.37,6.85,3.51.45.22,1,.25,1.51.37Z" style="fill: #06536e; stroke-width: 0px;"/>
      <path d="M86.38,36.38c.37.09.75.18,1.12.28,1.55-.23,2.84.67,4.26,1.01.58.14,1.11.44,1.71.56,3.13,1.06,6.29,2.03,9.37,3.22.58.22,1.28.3,1.49,1.07-.08.69-.52.99-1.17,1.03-5.32.08-10.63-.06-15.95.11-1.53.05-3.05-.03-4.57-.1-4.02-.19-8.03.59-12.05.06-.59-.08-1.22.01-1.66-.52-.41-.92.37-1.12.91-1.37,1.13-.52,2.32-.91,3.49-1.3,3.41-1.13,6.77-2.4,10.18-3.52.66-.22,1.32-.39,2.03-.25.28-.09.56-.18.84-.28Z" style="fill: #024452; stroke-width: 0px;"/>
      <path d="M85.54,36.66c-4.82,1.68-9.65,3.36-14.46,5.07-.77.27-1.49.69-2.23,1.04-.27.27-.54.21-.82.01-.18-.1-.37-.19-.55-.29-.57-.35-1.18-.66-1.39-1.37-2.22-2.04-4.45-4.08-6.67-6.11,2.41.09,4.82.18,7.23.28.35.09.71.25,1.06.26,2.86.11,5.72.19,8.58.29,2.63.09,5.26.16,7.88.3.46.02.91.34,1.37.52Z" style="fill: #076580; stroke-width: 0px;"/>
      <path d="M54.16,37.8c-.56.83-1.12,1.67-1.67,2.5-.56-.29-1.12-.58-1.68-.86,1.12-.55,2.24-1.09,3.36-1.64Z" style="fill: #164556; stroke-width: 0px;"/>
      <path d="M101.68,168.44c0-1.35-.05-2.71.04-4.06.22-3.12.47-6.24.8-9.35.3-2.86.73-5.71,1.1-8.57-.36,4.2-.73,8.4-1.06,12.6-.24,3.11-.42,6.23-.62,9.34-.09.01-.17.02-.26.03Z" style="fill: #115150; stroke-width: 0px;"/>
      <path d="M97.77,151.17c-.26,3.29-.52,6.59-.79,9.88-.29,3.48-.58,6.95-.87,10.43-2.59,1.3-5.19,2.6-7.78,3.9-.7-.32-1.52.07-2.17-.99-.51-.84-.5-1.19-.26-2.05.33-1.19,0-2.48-.77-3.55-.64-.88-1.05-1.83-1.2-2.91-.09-.69-.37-1.32-.77-1.91-.95-1.42-.55-2.66,1.15-2.87,1.21-.15,2.39-.69,3.67-.43.7.15,1.37-.19,1.65-.79.65-1.4,1.53-2.7,1.87-4.24.62-1.21,1.87-1.71,2.85-2.53.67-.56,1.38-1.06,2.08-1.59.39-.3.79-.67,1.36-.37Z" style="fill: #1b483e; stroke-width: 0px;"/>
      <path d="M91.66,155.66c.08.31.32.68.22.91-.53,1.19-1.06,2.39-1.75,3.48-.6.96-1.5,1.45-2.73,1.01-.32-.12-.77.11-1.15.16-.43.06-.89.01-1.29.16-.7.27-1.37.61-1.99,1.02-.07.04.34.76.5,1.18.98,2.58,2.01,5.14,2.87,7.75.21.64.89,1.76-.61,2.21.41.1.83.19,1.32.31-.13.33-.25.64-.46,1.16.54-.17.9-.38,1.24-.34.19.02.33.45.49.7-.38.27-.75.55-1.13.82-.4.45-.88.33-1.36.19-.86-.33-1.78-.52-2.55-1.08-1.73-.93-3.5-1.77-5.24-2.66-.65-.33-1.33-.64-1.5-1.47-.58-3.57-.55-7.18-.95-10.76-.22-2.02-.28-4.05-.5-6.08-.1-.91-.21-1.85.24-2.72.73-.7,1.3-.1,1.81.3,2.5,1.97,5.11,3.79,7.59,5.78,1.71,1.37,1.7,1.36,3.55.12.62-.41,1.09-1,1.7-1.41.5-.35.91-.97,1.67-.75Z" style="fill: #19483d; stroke-width: 0px;"/>
      <path d="M63.31,140.07c1.48,1.34,2.97,2.67,4.42,4.03.7.65,1.32,1.38,1.98,2.07.44.5.72,1.06.75,1.74.27,5.48.85,10.94,1.15,16.43.06,1.11.24,2.2.4,3.3.08.51.23,1.03-.44,1.27-.57.16-1.08-.05-1.58-.28-1.62-.74-3.15-1.65-4.75-2.44-.42-.21-.76-.5-.9-.98-1.04-6.2-1.79-12.44-2.64-18.67-.31-2.24-.77-4.47-.9-6.73-.03-.46-.14-.92.02-1.37.29-.64.71-.37,1.09-.13.66.43,1.08,1.05,1.4,1.76Z" style="fill: #03373b; stroke-width: 0px;"/>
      <path d="M63.31,140.07c-.74-.65-1.49-1.29-2.23-1.94-1.05-.32-1.76-1.12-2.52-1.83-.97-.91-1.84-1.92-2.94-2.67-1.49-1.61-3.24-2.94-4.79-4.47-.3-.41-.85-.72-.58-1.38.71-.32,1.37.08,1.79.45.97.88,2.2,1.12,3.31,1.63,2.27,1.05,4.28,2.54,6.47,3.72,1.94,1.05,4.06,1.76,5.79,3.23,1.08.92,1.81-.22,2.6-.78.28-.04.53.06.76.21,1.44,1.51,2.75,3.12,4.08,4.73.29.39.66.71.98,1.08.65.73,1.49,1.03,2.45,1.12,1.93.18,3.85.42,5.76.74,2.21.37,4.41-.08,6.61-.31.72-.08,1.47-.27,2.11.31.67.12,1.35.24,2.02.36v.26c-.71,0-1.42-.07-2.11.01-1.25.14-2.49.5-3.74.54-2.24.07-4.49-.03-6.73-.03-.36,0-.73.22-1.09.33.37.26.71.62,1.12.76,1.18.41,2.42.67,3.58,1.12.32.12.46.71.69,1.09-.6.32-1.36,1.05-1.77.89-1.38-.55-2.7-1.31-3.91-2.18-1.71-1.22-3.63-1.05-5.53-1.13-.15,0-.39.25-.45.44-.46,1.43-1.45,1.03-2.16.46-.82-.65-1.37-1.62-2.13-2.36-.45-.44-1.04-.81-1.64-1.01-2.07-.67-3.48-2.17-4.84-3.73-.61-.69-.82-.38-.94.31Z" style="fill: #051624; stroke-width: 0px;"/>
      <path d="M71.37,168.71c.15-.1.43-.21.42-.29-.31-2.38-.76-4.75-.95-7.14-.37-4.53-.58-9.07-.88-13.61-.03-.5-.17-.99-.26-1.49,1,.78,2.02,1.54,3.01,2.35.96.78,1.88,1.6,2.82,2.4.23.11.43.23.28.54-.09.48-.3.97-.26,1.45.23,3.07.54,6.14.77,9.21.23,3.12.4,6.25.6,9.37-.23.22-.51.24-.77.13-1.54-.63-3.02-1.38-4.45-2.23-.23-.14-.43-.36-.33-.69Z" style="fill: #0f3b39; stroke-width: 0px;"/>
      <path d="M75.82,151.47c-.09-.18-.19-.36-.28-.54.85,0,1.7.01,2.55-.02,2.57-.08,5.15-.26,7.72-.25,3.17,0,6.33.17,9.5.25.82.02,1.64,0,2.45,0,0,.09.01.18.02.27-2.04,1.5-4.07,2.99-6.11,4.49-1.38,1.06-2.81,2.07-4.14,3.19-.76.64-1.29.55-2.04-.03-3.19-2.48-6.44-4.9-9.67-7.34Z" style="fill: #09202c; stroke-width: 0px;"/>
      <path d="M92.95,143.92c-2.64.18-5.28.58-7.91.49-2.77-.09-5.53-.58-8.27-1.05-.48-.08-.84-.87-1.25-1.34.18-.37.53-.57.9-.51,1.34.21,2.5-.26,3.65-.85,1.61-.02,3.22,0,4.83.01.59,0,1.21-.03,1.68.46,2.35-.04,4.7-.08,7.05-.1.09,0,.18.27.27.42-.4.18-.81.36-1.21.56-.1.05-.23.21-.22.3.02.21.07.44.18.6.2.27.45.51.69.76-.13.08-.25.16-.38.23Z" style="fill: #dee4c8; stroke-width: 0px;"/>
      <path d="M119.72,102.27c0,.28,0,.56,0,.84-.1,1.2-.19,2.41-.29,3.61-.09,1.68-.34,3.37-.22,5.04.15,2.05-.47,3.55-2.02,4.93-1.49,1.33-2.7,2.99-4.01,4.52-.06.07.09.34.15.51-.32.62-1.65.06-1.49,1.26-.23-.23-.46-.46-.69-.69.06-1.02.13-2.05.19-3.07-.16-1.24-.17-2.49.03-3.72.21-1.23.09-2.48.15-3.71.31-.34.29-.76.27-1.17-.17-3.27.28-6.5.65-9.74l.12.05c.73.33.05,1,.34,1.28,0-1.61.08-1.65,1.75-1.22,1.68.43,3.28,1.18,5.04,1.3Z" style="fill: #03343c; stroke-width: 0px;"/>
      <path d="M107.51,91.41c.16.3.31.59.47.89.54.25.79.73,1.05,1.22.9,1.75,1.88,3.45,2.81,5.18.27.5.72.98.33,1.62-.21-.06-.53-.06-.62-.2-.69-1.05-1.27-.36-1.44.24-.39,1.34-1.31,1.91-2.5,2.29-1.13.36-2.29.67-3.36,1.17-.41.19-.62.82-.91,1.25-.1-.18-.19-.37-.29-.55-.62-.4-.7-1.05-.76-1.7-.53-5.41-.95-10.84-1.39-16.26-.12-1.4-.73-2.79-.17-4.22.84-.58,1.28.09,1.69.6.73.94,1.45,1.9,2.08,2.91.82,1.23,1.63,2.47,2.39,3.74.33.56.59,1.14.64,1.8Z" style="fill: #bee3d6; stroke-width: 0px;"/>
      <path d="M112.17,100.32c-1.4-2.68-2.8-5.35-4.19-8.03.9.46,1.93.77,2.69,1.41,2.35,1.97,4.6,4.07,6.87,6.12.23.2.39.48.56.74.35.5.56,1.38,1.38.47.09.14.18.29.27.43,0,.27-.02.55-.03.82-.48.1-1,.37-1.43.26-1.69-.44-3.34-1-5.12-1.55-.07.67-.13,1.23-.22,2.04-.16-.89-.26-1.5-.37-2.12-.14-.2-.28-.39-.42-.59Z" style="fill: #052f38; stroke-width: 0px;"/>
      <path d="M112.46,100.87c-.12,2.93-.22,5.87-.38,8.8-.04.7-.26,1.39-.4,2.08-.09-.06-.12-.13-.1-.2.03-.07.06-.11.09-.11,0-2.42-.08-4.85.03-7.26.05-1.11.49-2.21.75-3.31Z" style="fill: #bfe7da; stroke-width: 0px;"/>
      <path d="M111.68,111.44c0,.1,0,.2.01.31-.11,2.49-.22,4.98-.33,7.47-.08-1.31-.18-2.62-.22-3.93-.03-1.03-.01-2.07.06-3.1.02-.26.32-.5.48-.75Z" style="fill: #bbe2db; stroke-width: 0px;"/>
      <path d="M101.21,82.23c0,.96-.09,1.92-.01,2.87.22,2.69.49,5.38.75,8.07.36,3.78.73,7.57,1.09,11.35-.73,1.41-1.47,2.81-2.18,4.23-.31.61-.57,1.24-.85,1.86-.37-.88-.97-.05-1.44-.2-1.2-1.19-2.47-2.29-3.82-3.31-.6-.45-1.19-.85-1.91-1.04-3.49-.14-6.99-.01-10.48-.06-.64,0-1.29.11-1.9-.2-.14-.1-.22-.23-.25-.4.48-.69,1.23-.55,1.9-.55,2.78-.03,5.56,0,8.34-.01,2.03,0,2.05,0,2.62-2.02,1.97-7.05,4.2-14.02,6.46-20.98.07-.22.16-.44.29-.63.17-.21.39-.27.64-.24.59.22.96.57.75,1.27Z" style="fill: #dbf3df; stroke-width: 0px;"/>
      <path d="M101.11,123.12c-2-.66-2.25-1.17-1.17-3.33.58-1.16.76-2.23.3-3.42-.48-.42-.54-1-.63-1.57-.04-.88-.61-1.64-.53-2.55.11-.53.19-1.08.91-1.1.27.31.5.67.82.92,2.69,2.06,3.58,5.29,2.14,8.31-.47.98-1.22,1.83-1.85,2.74Z" style="fill: #f8f9f6; stroke-width: 0px;"/>
      <path d="M100,111.15c-.2.39-.4.79-.6,1.18-.79-.47-1.18-1.09-.76-2.01.39-.2.78-.41,1.16-.61.07.3.13.6.2.9,0,.18,0,.36,0,.54Z" style="fill: #ccecd7; stroke-width: 0px;"/>
      <path d="M99.98,114.75c.09.54.18,1.08.26,1.62-.22.86-.44,1.73-.65,2.59-.8.23-1.57-.2-2.36-.14-1.3.11-2.55-.34-3.85-.29-.8.03-1.43.28-1.87.99.62-.55,1.27-.97,2.12-.55.89.56,1.48,1.52,2.52,1.9.58.27,1.27.28,1.71.83.24.29.46.6.31,1-.16.41-.55.46-.92.45-.88-.04-1.72-.27-2.57-.47-.73-.18-1.33-.07-1.9.47-.98.94-2.17,1.53-3.48,1.87-.63.13-1.2-.13-1.77-.33-.69-.19-1.35-.06-2.01.19-.44.16-.88.27-1.35.18-1.33-.41-2.66-.86-3.68-1.84-.86-.83-1.68-1.03-2.69-.35-.26.18-.59.27-.91.32-1.49-.21-1.67-.72-.73-1.96,1.39-.43,2.25-1.66,3.51-2.28,1.47-.3,1.84.8,2.31,1.79.02-.98-.48-1.64-1.33-2.08-1.79-.24-3.54.39-5.33.24-.59-.05-1.19.05-1.78-.1-1.27-1-1.04-2.32-.78-3.65.17-.39.45-.74.83-.88,2.83-1.03,5.59-2.26,8.62-2.68,3.05,0,6.11-.02,9.16,0,1.54.13,2.98.65,4.43,1.16.85.48,1.79.74,2.71,1.05.58.19,1.11.44,1.49.95Z" style="fill: #031125; stroke-width: 0px;"/>
      <path d="M102.33,135.05c-2.26-1.68-4.86-2.03-7.58-2.07-.61,0-1.29-.5-1.79-.94-.93-.81-1.9-.62-2.8-.17-.35.18-.46.84-.96,1.17-.02-.37-.05-.73-.07-1.1.03-1.18,1.25-1.36,1.79-2.1,1.21-.9,2.34-1.89,3.54-2.8.25-.19.48-.41.72-.62,1.21-.94,2.51-1.79,2.96-3.41.05-.17.24-.26.44-.2.45,1.86.82,3.75,1.38,5.58.7,2.24,1.57,4.43,2.36,6.65Z" style="fill: #95b696; stroke-width: 0px;"/>
      <path d="M98.59,122.82c-.34,1.95-1.76,3.01-3.29,3.97-1.75-.12-3.42-.69-5.1-1.11-.45-.11-1.04-.19-1.03-.89,1.25-.82,2.46-1.69,3.76-2.44.41-.24,1.04-.25,1.54-.18,1.14.17,2.26.46,3.39.7.07-.2.15-.4.22-.6-.74-.36-1.49-.71-2.23-1.07.98-.53,1.92-1.31,3.09-.43-.11.68-.22,1.36-.33,2.04Z" style="fill: #052033; stroke-width: 0px;"/>
      <path d="M98.92,120.78c-1.03.14-2.06.29-3.09.43-.75-.65-1.49-1.3-2.24-1.94-.04-.89.59-.9,1.19-.82.81.1,1.61.14,2.42.01.8.17,1.6.34,2.4.5-.23.61-.45,1.21-.67,1.82Z" style="fill: #1f6695; stroke-width: 0px;"/>
      <path d="M94.42,135.41l1.66.26c-1.89.71-2.84,2.73-4.76,3.41-3.12.26-6.25.13-9.38.08-.41,0-.82-.12-1.2-.3-.46-.23-.83-.57-1.13-.98-.62-.83-1.32-1.51-2.42-1.64-.31-.04-.62-.21-.59-.63.31-.4.79-.43,1.22-.57.32-.05.63-.04.95.05,1.57.76,3.23.85,4.95.9,3.59.09,7.14-.25,10.7-.58Z" style="fill: #0c3139; stroke-width: 0px;"/>
      <path d="M94.42,135.41c-4.4,1.57-8.96.98-13.47.99-.78,0-1.57-.65-2.35-1.01,1.22-1.03,2.8-.98,4.23-1.38.7-.25,1.48-.1,2.17-.39.45-.09.91-.09,1.35.03.14.07.26.16.37.27,1.9.34,3.81.68,5.71,1.04.67.12,1.33.29,2,.44Z" style="fill: #09262f; stroke-width: 0px;"/>
      <path d="M86.72,133.94c-.15,0-.3-.02-.44-.02-.36-.27-.86-.25-1.2-.57-.88-.61-1.62-1.43-2.6-1.92-.44-.56-1.38-.84-1.03-1.84.32-.28.69-.21,1.05-.12,2.41.57,4.83.54,7.26.13.49-.08,1.23-.46,1.38.53-.66.61-1.33,1.21-1.99,1.82-.81.67-1.61,1.33-2.42,2Z" style="fill: #0a2834; stroke-width: 0px;"/>
      <path d="M91.66,138.68c.67-.68,1.26-1.48,2.03-2.01.69-.48,1.59-.67,2.39-1,.63.08,1.27.16,1.9.24-1.35,1.32-2.71,2.65-4.06,3.97-.69-.53-1.61-.62-2.27-1.21Z" style="fill: #14504c; stroke-width: 0px;"/>
      <path d="M91.66,138.68c.92.1,1.93,0,2.27,1.21-.09.16-.19.32-.28.47-.68.21-1.34.54-2.03.6-1.68.13-3.36.13-5.04.18-1.75,0-3.49.02-5.24-.03-.53-.01-1.05-.21-1.58-.32-.8.03-1.03-.65-1.41-1.14-.13-.23-.23-.47-.2-.75.57-1.24,1.58-.44,2.41-.52,1.45.1,2.91.25,4.37.28,2.25.05,4.5,0,6.74,0Z" style="fill: #1f5855; stroke-width: 0px;"/>
      <path d="M138.36,45.57c-3.79,1.94-7.58,3.88-11.37,5.82,0,0-.04.03-.04.03-.66-.44-1.17-1.01-1.53-1.72-.71-1.38-1.56-2.68-2.33-4.03-.26-.46-.79-1.03.02-1.52,2.35-.43,4.67.11,6.99.27.96.06,1.91.18,2.87.14,1.73-.08,3.44.02,5.09.62.13.1.23.24.3.39Z" style="fill: #2b797b; stroke-width: 0px;"/>
      <path d="M138.36,45.57c-.09,0-.18-.01-.28-.02.24-.87-.16-1.94.83-2.57.6.26,1.16.08,1.73-.15,1.15-.48,2.32-.89,3.48-1.34.45-.18.92-.49,1.43-.11.1.1.21.2.31.3-2.09,1.23-4.17,2.48-6.27,3.68-.34.19-.82.14-1.23.21Z" style="fill: #0c515b; stroke-width: 0px;"/>
      <path d="M146.08,40.53c-.07.1-.14.21-.2.31-.33.13-.54-.09-.69-.31-1.85-2.7-3.94-5.23-5.63-8.04-.02-.09-.06-.19-.03-.27,1.21-3.02,2.74-5.85,4.99-8.25.27-.31.54-.61.81-.92.09.4.23.79.25,1.19.13,3.01.23,6.03.34,9.04.8,2.4.59,4.82.18,7.25Z" style="fill: #9cab9c; stroke-width: 0px;"/>
      <path d="M146.08,40.53c-.06-2.42-.12-4.83-.18-7.25,1.46.48,2.92.94,4.37,1.44.41.14.77.38,1.16.58-1.78,1.74-3.57,3.49-5.35,5.23Z" style="fill: #afbcad; stroke-width: 0px;"/>
      <path d="M116.11,34.17c-.37-.18-.75-.36-1.12-.54-.19-.42.08-.72.32-.98,1.41-1.53,2.91-2.96,4.71-4.04,1.68-1.31,3.35-2.62,5.03-3.92.73-.36,1.46-.73,2.18-1.09-.23,1.68-.46,3.37-.7,5.05-.31,2.12-.64,4.24-.96,6.35-.42.62.16,1.26-.05,1.88-.06.18-.18.32-.25.49-.9,2.39-.94,2.42-3.34,2.1-.62,0-1.14-.38-1.75-.44-.56-.07-.99-.41-1.43-.73-1.11-1.23-2.25-2.45-2.66-4.14Z" style="fill: #04172a; stroke-width: 0px;"/>
      <path d="M125.3,36.94c.09-.65.19-1.3.28-1.95.03.29.07.59.1.88.1.03.19.06.29.09,1.63-3.05,3.25-6.1,4.89-9.14.34-.63.74-1.23,1.12-1.84,1.11,1.21,2.22,2.41,3.32,3.62.17.15.23.35.21.57-1.83,4.34-3.71,8.67-6.01,12.79-.24.35-.76.29-.96.68-1,.07-1.77-.33-2.3-1.17-.09-1.06-.61-1.99-.87-2.99-.13-.5-.49-1.01-.07-1.55Z" style="fill: #062738; stroke-width: 0px;"/>
      <path d="M135.32,29.16c0-.18-.02-.37-.03-.55,1.21-2.04,2.41-4.08,3.62-6.12,1.78.14,3.56.27,5.33.48.12.01.17.65.26,1-1.24,2.09-2.5,4.17-3.71,6.28-.4.71-.67,1.49-1,2.24.14.29.12.52-.23.64-1.29-1.46-3.07-2.39-4.25-3.97Z" style="fill: #166a76; stroke-width: 0px;"/>
      <path d="M120.02,28.61c-1.35,1.3-2.7,2.59-4.04,3.89-.36.35-.67.75-1,1.13-2.38-.74-4.77-1.48-7.15-2.22,3.56-.88,7.13-1.76,10.69-2.62.48-.12.99-.12,1.49-.18Z" style="fill: #052f4c; stroke-width: 0px;"/>
      <path d="M139.53,33.09c.09-.2.18-.4.27-.6,2.03,2.79,4.05,5.57,6.08,8.36-.11.18-.22.35-.33.53-1.92.74-3.84,1.46-5.74,2.23-.6.24-.95.25-.96-.51-.6-.72-.39-1.55-.33-2.36.14-1.91.46-3.79.49-5.71-.03-.7-.13-1.42.53-1.94Z" style="fill: #819084; stroke-width: 0px;"/>
      <path d="M128.91,65.87c.37-.1.74-.21,1.1-.31-.55,2.25-1.1,4.5-1.63,6.75-.13.53-.21,1.07-.31,1.6-3.3-.09-6.6-.2-9.9-.25-.77-.01-1.54.17-2.31.26,0,0-.03.02-.03.02-.08-.11-.11-.23-.08-.36.33-.58.93-.87,1.4-1.29.74-.5,1.53-.92,2.27-1.43,2.61-1.48,5.23-2.93,7.82-4.45.51-.3,1.02-.66,1.67-.53Z" style="fill: #0a7b78; stroke-width: 0px;"/>
      <path d="M107.51,91.41c-1.08-1.76-2.17-3.52-3.25-5.28,1.23-1.25,2.69-1.58,4.35-1.12,3.7,1.68,7.4,3.35,11.09,5.03-1.26.19-2.51.43-3.77.55-2.64.24-5.29.4-7.93.61-.17.01-.33.14-.49.22Z" style="fill: #086364; stroke-width: 0px;"/>
      <path d="M114.45,75.58c.78,2.16-1.17,5.36-3.36,5.57-1.6.15-3.2.33-4.78.56-.36.05-.69.35-1.03.54-.3.54-.69.54-1.15.21-1.49-1.07-1.9-4.88-.67-6.26.19-.21.42-.36.69-.43.73.1.51.61.29.91-.46.62,0,.9.34,1.25,1.24,2.18,4.19,1.84,5.24.01.2-.36.37-.75.71-1,.78-.12.86-1.24,1.73-1.25.67.07,1.32-.29,1.99-.11Z" style="fill: #04182d; stroke-width: 0px;"/>
      <path d="M114.45,75.58c-.65.1-1.31.2-1.96.31-.54.09-1.01-.09-1.41-.43-1.61-1.42-3.3-1.12-5.03-.29-.5.24-.95.58-1.54.55-.6.07-.91-.15-.69-.78.12-.34.28-.68.32-1.04.06-.33.18-.64.33-.94.48-.86,1.13-1.57,1.93-2.13,1.18-.77,2.42-.82,3.68-.24,1.55.71,3.14,1.33,4.64,2.14.44.24.93.42,1.13.96,0,.08-.02.16-.03.24-.46.55-.91,1.1-1.37,1.65Z" style="fill: #0b4451; stroke-width: 0px;"/>
      <path d="M104.43,73.81c-.09.39-.23.77-.26,1.16-.01.19.17.4.27.61.05.06.07.12.06.19-.01.06-.03.1-.05.1-1.75,1.42-1.79,5-.04,6.4.17.14.57,0,.87-.01-.04,1.23,1,1.47,1.79,1.94.5.29,1.02.55,1.54.82-1.45.37-2.9.75-4.35,1.12-1.01-1.3-2.03-2.6-3.04-3.9-.23-.35-.47-.7-.7-1.04-.32-.52-.09-1,.17-1.43.95-1.59,1.71-3.28,2.58-4.92.25-.48.49-1.02,1.18-1.02Z" style="fill: #063040; stroke-width: 0px;"/>
      <path d="M128.91,65.87c-3.14,1.77-6.29,3.54-9.43,5.31-1.21-1.43-2.58-2.76-3.07-4.68-.26-1-.83-1.86-1.39-2.71-.34-.51-.65-1.02-.49-1.68.05-.18.09-.37.23-.49,2.02-1.78,4.01-3.6,6.38-4.94,1.1-.75,2.21-1.49,3.31-2.24.25.02.5.04.75.06-.35,1.28.76,1.28,1.44,1.57.9.38,1.19.93,1.17,1.92-.02.98.32,1.96.46,2.95.23,1.64.43,3.28.64,4.92Z" style="fill: #2bdcb2; stroke-width: 0px;"/>
      <path d="M125.29,51.41c-.45.23-.89.48-1.36.67-.46.18-.95.29-1.43.43-2.61,1.13-5.42,1.4-8.18,1.84-2.68.43-5.33,1.1-8.05,1.27-.59-.12-1.17-.28-1.71-.54-.98-.46-1.96-.64-3.08-.52-1.57.18-2.03-.32-2.15-1.93.65-2.46,2.12-4.55,3.14-6.84.22-.5.5-.98.76-1.46.42-.63.86-1.24,1.53-1.64.31-.16.6-.36.95-.42,2.19.44,4.12,1.56,6.15,2.42,3.53,1.49,7.04,3,10.55,4.55,1.11.49,2.4.82,2.88,2.17Z" style="fill: #34dfb2; stroke-width: 0px;"/>
      <path d="M106.11,55.28c5.01-.88,10.02-1.76,15.03-2.64.45-.08.91-.1,1.37-.14-.53.38-1.02.85-1.61,1.1-.75.33-1.19.84-.45,1.34.75.51.75,1.05.69,1.75-1.75,1.47-3.5,2.93-5.24,4.41-.41.35-.79.75-1.18,1.13-.31.41-.62.83-1.08,1.1-.3.16-.61.3-.96.31-1.4-.17-2.57-.98-3.88-1.4-3.05-1.48-6.18-2.79-9.34-4.01-.47-.18-.98-.26-1.27-.74-.08-.23-.06-.45.05-.67.21-.32.52-.54.87-.63,2.29-.6,4.58-1.22,7-.91Z" style="fill: #19bda3; stroke-width: 0px;"/>
      <path d="M125.29,51.41c-3.69-1.75-7.36-3.54-11.08-5.23-2.85-1.29-5.76-2.45-8.64-3.67-.17-.28-.06-.57.12-.75,1.49-1.45,2.87-3.05,4.85-3.9,1.37.49,2.63,1.26,4.17,1.3.78.02,1.58.07,2.35.01,1.73-.14,3.03.47,3.92,1.96.24.39.49.79.75,1.17.29.75,1.34,1.11,1.11,2.13,1.37,2.33,2.74,4.65,4.1,6.98-.55,0-1.1,0-1.65,0Z" style="fill: #159c93; stroke-width: 0px;"/>
      <path d="M24.95,110.88c-.02-.17-.04-.33-.07-.5.7-2.76,1.4-5.51,2.11-8.27.89-3.47,1.79-6.94,2.69-10.4.33-.14.55.04.76.26,2.12,5.18,4.34,10.32,6.55,15.47,1.24,2.89,2.39,5.81,3.8,8.63.36,1.32,1.39,2.45,1.17,3.94-.09.11-.2.19-.34.23-.49.06-.9-.16-1.3-.39-4.67-2.72-9.52-5.1-14.16-7.86-.48-.28-.98-.53-1.2-1.09Z" style="fill: #071e28; stroke-width: 0px;"/>
      <path d="M32.74,84.49c1.2-.98,2.42-1.93,3.6-2.93,2.7-2.29,5.37-4.6,8.06-6.89.24-.2.56-.32.84-.47.74-.06.91.57,1.12,1.03,1.97,4.19,3.85,8.41,5.68,12.66.27.62.55,1.29.31,2.01-.35.53-.87.48-1.36.34-5.79-1.55-11.6-3.03-17.36-4.72-.18-.05-.35-.12-.51-.21-.21-.13-.31-.34-.39-.55,0-.09,0-.18,0-.27Z" style="fill: #032d39; stroke-width: 0px;"/>
      <path d="M32.74,84.76c.09.09.18.18.28.27,1.58.74,2.48,2.22,3.55,3.46,3.29,3.83,6.65,7.59,9.86,11.48.21.25.4.51.49.83.22.86-.19,1.57-.51,2.31-.23.54-.48,1.07-.44,1.68-.04.28-.16.5-.4.66-.12.05-.25.07-.39.07-.23-.04-.44-.16-.6-.33-3.77-3.96-7.97-7.47-11.8-11.36-.76-.77-1.55-1.45-2.56-1.84-.18-.09-.36-.19-.53-.28,1.02-2.32,2.04-4.64,3.06-6.95Z" style="fill: #104b41; stroke-width: 0px;"/>
      <path d="M24.95,110.88c5.55,3.06,11.11,6.13,16.66,9.19-.02.87-.78.93-1.34,1.13-2.03.72-4.08,1.38-6.14,2-1.9.43-3.66,1.44-5.68,1.37-.56-.15-.83-.58-.96-1.09-.96-3.89-2.1-7.73-2.68-11.7-.03-.23-.03-.46.09-.67-.01-.08,0-.15.04-.23Z" style="fill: #1d5b48; stroke-width: 0px;"/>
      <path d="M11.05,110.61c2.2,1.03,4.42,2.02,6.61,3.09,1.97.96,3.91,2.01,5.86,3.02.38.32.32.76.24,1.15-.57,2.61-1.1,5.22-1.84,7.79-.05.18-.18.32-.31.45-.46.34-.8.05-1.06-.28-2.98-3.79-6.12-7.45-8.86-11.42-.21-.75-.4-1.49-.89-2.14-.45-.58-.44-1.19.24-1.66Z" style="fill: #51a76d; stroke-width: 0px;"/>
      <path d="M21.34,126.23c.73-3.17,1.45-6.34,2.18-9.52.47-1.87.93-3.74,1.4-5.6,1.03,4.15,2.05,8.31,3.09,12.46.06.25.37.44.56.66.08.24-.05.4-.21.54-2.17.77-4.3,1.71-6.65,1.86-.21-.06-.38-.15-.37-.4Z" style="fill: #266b50; stroke-width: 0px;"/>
      <path d="M11.05,110.61c.11.68.18,1.37.34,2.04.13.54.37,1.05.56,1.57-.57,0-.73-.43-.88-.87-.67-.97-1.34-1.95-2.01-2.92.3-.13.59-.25.89-.38.37.19.74.37,1.11.56Z" style="fill: #57a474; stroke-width: 0px;"/>
      <path d="M52.2,89.76c-2.32-5.19-4.64-10.38-6.96-15.57,0-.09,0-.18,0-.28,4-.11,7.99-.21,11.99-.32,0,0-.01,0-.01,0,.19.25.34.51.35.84-.02,1.04-.46,1.97-.76,2.94-1.03,3.26-1.94,6.56-2.97,9.82-.29.91-.39,1.92-1.21,2.59-.15.07-.29.06-.42-.03Z" style="fill: #02414a; stroke-width: 0px;"/>
      <path d="M57.2,74.47c0-.29.02-.58.02-.87,2.07-.9,4.14-1.78,6.19-2.71.95-.43,1.88-.73,2.89-.26.74.75,1.48,1.5,2.23,2.25.34.14.5.41.55.75-.12.64.46,1.51-.59,1.86-.99-.4-2.01-.72-3.07-.88-1.33-.18-2.53.13-3.57.99-.75.62-1.6.83-2.55.56-.87-.34-1.25-1.3-2.1-1.68Z" style="fill: #063945; stroke-width: 0px;"/>
      <path d="M68.04,42.78c.27,0,.54,0,.82-.01,2.16.16,4.33.44,6.5.47,3.32.05,6.63-.06,9.95-.11.91-.01,1.82-.06,2.73-.06,4.71,0,9.43,0,14.14,0,.39,0,.78.17,1.17.26-1.22.39-1.88,1.35-2.69,2.3-1.2,1.43-2.98,2.3-4.48,3.45-.99.75-1.87,1.64-2.96,2.27-.3.17-.26.46-.29.73-.66,1.09-1.61,1.78-2.86,2.04-.41-.14-.79-.13-1.15.15-1.52,1.2-3.06.63-4.49-.1-.67-.35-1.31-.57-2.05-.6-1.41-.4-2.45-1.41-3.55-2.28-.71-.56-1.43-1.13-2.13-1.71-1.13-1.27-2.3-2.49-4.03-2.95-.81-.42-1.77-.65-2.07-1.69-.85-.72-1.71-1.44-2.56-2.17Z" style="fill: #013b47; stroke-width: 0px;"/>
      <path d="M76.92,49.47c.99.72,1.96,1.44,2.96,2.14.85.6,1.73,1.18,2.59,1.76,1.37.38,2.41,1.32,3.49,2.16.39.3.8.69.34,1.27-.34.27-.76.37-1.17.35-2.98-.14-5.94.42-8.92.16-.27-.03-.48-.19-.68-.36,0-.08-.01-.16-.02-.24-.96-2.13-1.9-4.27-2.9-6.39-.55-1.15-1.19-2.26-1.8-3.39-.07-.67-.14-1.34-.22-2.01.73.48,1.46.95,2.19,1.43,1.56.78,2.92,1.84,4.13,3.09Z" style="fill: #18abd7; stroke-width: 0px;"/>
      <path d="M66.09,41.11c.46.46.93.92,1.39,1.38-3.8,1.6-7.6,3.21-11.4,4.81-.29.12-.57.3-.85.45-.27-.99-.8-1.95-.4-3.02.11-.3.25-.65.49-.85,1.04-.88,2.23-1.6,3.16-2.58,1.81-1.91,3.33-2.18,5.57-.71.38.25.74.58,1.16.73.24.08.58-.13.88-.21Z" style="fill: #0d757d; stroke-width: 0px;"/>
      <path d="M75.54,56.97c.15,0,.3.01.45.02,1.6.47,2.73,1.71,4.13,2.52,1.91,1.45,3.89,2.82,5.85,4.2.27.24.48.51.51.89-.14.7-.72.93-1.26,1.17-2.32,1.04-4.67,2.03-7,3.04-.6.26-1.22.38-1.87.36-.17-1.35-.4-2.7-.48-4.06-.16-2.71-.22-5.42-.33-8.14Z" style="fill: #f3fef6; stroke-width: 0px;"/>
      <path d="M75.5,69.7l1.14-.24c.36-.31.77-.26,1.18-.16,2.54.63,5.08,1.21,7.64,1.73.32.06.61.21.85.43.11.11.17.23.19.38-.14.72-.76,1.02-1.28,1.38-3.47,2.38-6.92,4.78-10.4,7.13-.54.37-1.12,1.11-1.94.44-.29-.61-.02-1.18.13-1.74.86-3.11,1.75-6.2,2.49-9.34Z" style="fill: #88a797; stroke-width: 0px;"/>
      <path d="M75.5,69.7c.02.6.17,1.23.03,1.79-.78,3.15-1.63,6.29-2.46,9.43.04.15-.02.25-.15.32-.14,0-.27-.02-.39-.09-1.62-2.31-2.76-4.85-3.72-7.49-.1-.26-.19-.53-.29-.79,2.32-1.06,4.65-2.11,6.97-3.17Z" style="fill: #7e9083; stroke-width: 0px;"/>
      <path d="M86.37,71.71c-3.24-.75-6.49-1.5-9.73-2.25-.1-.09-.2-.19-.29-.28,2.76-1.21,5.53-2.4,8.29-3.63.61-.27,1.17-.68,1.75-1.02.05-.05.11-.1.16-.16.25-.05.45,0,.55.26.04.16.05.31.03.47.08,1.69.03,3.38.03,5.07,0,.5-.02,1.01-.34,1.44-.12.14-.27.17-.44.1Z" style="fill: #9cd3d7; stroke-width: 0px;"/>
      <path d="M110.56,38.05c-1.66,1.49-3.32,2.98-4.99,4.47-.19.17-.38.34-.57.52-.27-.19-.65-.2-.83-.53-3.06-1.1-6.11-2.19-9.17-3.29-.56-.2-1.12-.4-1.68-.61-.52-.43-1.24-.8-.92-1.62.28-.72.97-.89,1.7-.87.59.01,1.17-.07,1.72-.27,5.3-.19,10.59-.37,15.89-.57.73-.03,1.46-.17,2.19-.26-.58,1.6-2,2.29-3.35,3.04Z" style="fill: #045f7c; stroke-width: 0px;"/>
      <path d="M110.56,38.05c1.12-1.01,2.23-2.03,3.35-3.04.73-.28,1.47-.56,2.2-.84.93,1.29,1.87,2.59,2.8,3.88.59.64,1.29,1.18,1.7,1.97.23.43.66.83.22,1.37-.15-.11-.37-.19-.43-.33-.8-1.79-2.48-1.3-3.87-1.48-1.16-.15-2.39,0-3.52-.25-.87-.2-1.64-.84-2.45-1.28Z" style="fill: #159891; stroke-width: 0px;"/>
      <path d="M95.83,35.83c-.46.18-.91.45-1.38.53-1.99.34-2.07.47-1.12,2.24-1.94-.65-3.89-1.3-5.83-1.94.41-.18.8-.5,1.22-.52,2.37-.14,4.74-.21,7.11-.3Z" style="fill: #04597a; stroke-width: 0px;"/>
      <path d="M104.17,42.5c.28.18.55.35.83.53-.48.44-.96.89-1.44,1.33-.6.9-1.48,1.5-2.34,2.13-2.02,1.48-4.03,2.97-6.05,4.43-.69.5-1.36,1.14-2.34,1.06-.88-.27-.45-.55-.02-.87,2.42-1.8,4.84-3.61,7.25-5.42.25-.19.64-.4.68-.64.22-1.6,1.26-1.87,2.6-1.71.28-.28.56-.56.83-.84Z" style="fill: #073944; stroke-width: 0px;"/>
      <path d="M64.7,165.37c-2.5-1.02-5.01-2.04-7.51-3.06-.39-.39-.49-.88-.51-1.4-.28-5.26-.74-10.5-.9-15.77-.1-3.23-.42-6.45-.5-9.68-.02-.72-.1-1.5.53-2.07,1.76,1.58,3.52,3.16,5.27,4.74.53,3.86,1.06,7.71,1.58,11.57.59,4.36,1.17,8.72,1.75,13.08.11.86.19,1.73.28,2.59Z" style="fill: #044444; stroke-width: 0px;"/>
      <path d="M50.79,157.03c-1.85-2.03-3.7-4.07-5.56-6.1-.54-.94-.73-1.97-.79-3.05-.35-6.26-.97-12.5-1.54-18.75-.2-2.21-.34-4.42-.75-6.6-.08-.41-.07-.83.13-1.21.69-.69,1.15-.05,1.63.31,2.05,1.48,3.56,3.55,5.57,5.07.33.33.71.62.74,1.14.28.37.56.73.85,1.1.43.69.56,1.45.56,2.26,0,7.91,0,15.82-.02,23.74,0,.76.29,1.73-.82,2.1Z" style="fill: #034639; stroke-width: 0px;"/>
      <path d="M50.79,157.03c.1-.53.27-1.06.27-1.58.02-8.84.01-17.67.01-26.51,1.58,1.48,3.15,2.96,4.73,4.44.19,5.15.33,10.3.57,15.44.21,4.49.53,8.98.81,13.48-.83-.28-1.65-.56-2.48-.84-1.31-1.48-2.61-2.96-3.92-4.43Z" style="fill: #10513b; stroke-width: 0px;"/>
      <path d="M50.23,127.85c-.28-.27-.56-.55-.83-.82.05-1.17,1.04-1.15,1.71-1.11,2.94.16,5.9-.19,8.82.4.64.13,1.37.48,1.84-.37.15-.18.35-.23.57-.21.29.07.47.29.66.49,1.57,1.92,3.14,3.86,4.65,5.83.36.47.78.92.77,1.58-.68,1.6.84,1.28,1.5,1.71.17.11.31.25.4.43.05.13.04.26,0,.38-1.16,1.89-2.01,1.95-3.75.41-.53-.47-1.25-.71-1.89-1.06-3.24-1.78-6.4-3.74-9.76-5.27-1.61-.73-2.99-1.9-4.7-2.39Z" style="fill: #051422; stroke-width: 0px;"/>
      <path d="M70.33,136.16c-.02-.08-.05-.16-.08-.24-.26-.39-.18-.8-.05-1.2.8-2.42,1.73-4.79,2.53-7.21.12-.35.29-.69.66-.86.84.08.82.78.91,1.34.21,1.24.91,2.01,2.1,2.32,1.48.38,2.84,1.14,4.37,1.33.63.08.94.76,1.74.8-.57-.61-1.03-1.22.25-1.25.85.64,1.7,1.27,2.54,1.91-.08.48-.43.64-.83.7.19.03.43-.06.57.18-.68.15-1.35.3-2.03.44-1.78,0-3.46.56-5.17.98l-1.17.27c-.4.46-1.01.51-1.52.75-1.45.07-2.9.67-4.36.03-.16-.1-.31-.2-.47-.31Z" style="fill: #90ae8b; stroke-width: 0px;"/>
      <path d="M70.81,136.46c1.48-.09,2.97-.18,4.45-.28,1.41.54,2.24,1.7,3.02,2.9.09.15.19.3.28.45-1.24.62-2.17,1.96-3.81,1.65-1.31-1.57-2.62-3.15-3.93-4.72Z" style="fill: #ced5b4; stroke-width: 0px;"/>
      <path d="M74.74,141.18c.89-.56,1.76-1.16,2.68-1.65.29-.16.75,0,1.13,0,.4.42.8.84,1.2,1.26-.47,1.5-1.72,1.13-2.8,1.18-.48.02-.96.03-1.44.05-.26-.28-.51-.56-.77-.84Z" style="fill: #d6ddbc; stroke-width: 0px;"/>
      <path d="M100.01,81.13c-.13.72-.2,1.46-.41,2.16-2.12,6.98-4.29,13.94-6.38,20.92-.26.88-.62,1.15-1.52,1.13-3.79-.06-7.59-.03-11.38-.04-.21-.13-.29-.33-.31-.57,1.48-2.3.61-4.46-.49-6.55-.39-.75-.75-1.46-.85-2.31-.2-1.75-.63-3.44-1.48-5.01-.58-1.08-.52-2.23-.19-3.37.24-.85.18-1.59-.25-2.38-1.27-2.35-1.08-3.01,1.1-4.53.38-.26.64-.67,1.05-.9,3.06-.86,6.18-1.08,9.33-.87,3.19.22,6.32.86,9.48,1.31.23.03.46.06.68-.02.67-.15,1.19.11,1.63.6.09.14.09.28,0,.42Z" style="fill: #fbfcf5; stroke-width: 0px;"/>
      <path d="M80.26,104.78c.02.17.04.35.06.52-.02.07-.05.14-.06.21-.01.06-.03.13-.04.2-.68.78-1.59,1.26-2.39,1.89-1.29,1.01-2.5,2.06-3.07,3.67-.15.43-.38.87-.96.87-.3-.07-.5-.28-.6-.54-.92-2.37-2.32-4.53-3.17-6.93-.02-.16,0-.31.03-.46.26-6.36,1.23-12.65,1.72-18.98.05-.64.38-1.24.3-1.9-.05-.65.17-1.24.38-1.83.07-.14.18-.25.32-.34.08,0,.17-.02.25-.02.3.11.49.33.65.6,1.25,3.33,2.06,6.8,3.11,10.19,1.01,3.26,1.94,6.55,2.98,9.8.32,1,.57,2.01.51,3.07Z" style="fill: #b6c5ac; stroke-width: 0px;"/>
      <path d="M100.01,81.13c-.03-.07-.06-.15-.08-.23-.79-1.78-1.12-3.7-1.65-5.56-.42-1.46-.9-2.91-1.29-4.38-.13-.48-.32-.97-.12-1.49.43-.38.88-.19,1.29,0,2.01.93,3.95,2.01,5.98,2.9.3.13.54.36.6.71-.1.24-.21.48-.31.72-1.31,2.46-2.62,4.92-3.92,7.38-.16-.02-.33-.04-.49-.06Z" style="fill: #8b9d8b; stroke-width: 0px;"/>
      <path d="M99.98,114.75c-1.41-.53-2.82-1.07-4.23-1.6.96-.86,1.89.29,2.86.06.1-.58-.46-1.03-.27-1.69-.42.46-.97.88-1.09.03-.32-2.16-1.91-3.25-3.43-4.43-.33-.26-.66-.51-.65-.99.03-.13.1-.24.22-.31,1.98,1.24,4.02,2.41,5.26,4.52.25.67.5,1.34.76,2.01.19.8.39,1.61.58,2.41Z" style="fill: #266c97; stroke-width: 0px;"/>
      <path d="M80.26,105.51c3.93.03,7.87.05,11.8.1.44,0,.88.13,1.33.19,0,0-.07.1-.07.1-.12.1-.25.19-.39.27-.38.17-.78.09-1.18.11-.9.06-1.8-.01-2.7,0-2.47.23-4.94.09-7.41.09-.41,0-.82-.06-1.19-.29-.17-.11-.23-.26-.17-.45v-.14Z" style="fill: #25769f; stroke-width: 0px;"/>
      <path d="M70.27,104.78c.99,1.97,1.98,3.95,2.97,5.92.22.44.46.88.69,1.32.61,1.25-.29,2.07-.84,3,.18,1.23.36,2.46.54,3.68.74.35.81,1.11,1.1,1.74.08.36.13.73.09,1.1-.06.85-.7,1.12-1.36,1.37-3.11,1.16-6.29,2.1-9.42,3.22-1.12.4-1.33.14-1.42-1.55.02-1.67.9-3.08,1.37-4.61,1.8-4.63,3.46-9.32,5.29-13.94.2-.5.35-1.07.98-1.25Z" style="fill: #ecf2d0; stroke-width: 0px;"/>
      <path d="M73.09,115.01c.28-1,.56-2,.84-3,.8-2.88,3.14-4.38,5.37-5.98.28-.2.65-.26.98-.38,0,.08.01.16.02.24,1.09,1.73,1.31,3.74,1.77,5.67,0,.15-.05.28-.12.41-2.95,1.01-5.9,2.02-8.85,3.03Z" style="fill: #14557e; stroke-width: 0px;"/>
      <path d="M93.04,105.89c.09,0,.18,0,.27.01.34.34.65.71,1.01,1.03,1.48,1.32,3.35,2.37,3.24,5.06.32-.5.49-.78.76-1.21.31,1.09.59,2.07.87,3.04-.92-.22-1.83-.44-2.76-.65-.22-.05-.46-.02-.69-.03-1.36-.39-2.73-.77-4.09-1.16-.1-.12-.17-.24-.23-.38.23-1.99.49-3.97,1.61-5.71Z" style="fill: #1d709a; stroke-width: 0px;"/>
      <path d="M76.93,122.84c.12-.06.26-.11.37-.19,1.32-.97,2.4-.94,3.65.35.81.84,2.12,1.21,3.21,1.79.07.66-.5.7-.89.85-.9.35-1.82.66-2.76.9-.46.12-.91.23-1.02.79-.18.23-.4.36-.69.38-1.46-.75-2.86-1.55-3.36-3.29-.14-1.13.71-1.32,1.49-1.59Z" style="fill: #052234; stroke-width: 0px;"/>
      <path d="M89.16,124.79c1.61.46,3.22.91,4.82,1.39.46.14.87.4,1.31.61-.19.16-.38.32-.57.48-2.08.85-4.22,1.35-6.48,1.25-.78,0-1.37-.34-1.43-1.15-.08-1.1-.57-2.33.69-3.15.56.19,1.11.37,1.67.56Z" style="fill: #073345; stroke-width: 0px;"/>
      <path d="M79.44,127.28c-.2-.18-.4-.37-.64-.58,1.8-.65,3.58-1.28,5.36-1.92.46-.1.93-.19,1.39-.29.78.62,1.03,1.85.68,3.03-.29.99-1.07.99-1.85,1.03-1.74-.07-3.5-.06-4.94-1.27Z" style="fill: #0a3146; stroke-width: 0px;"/>
      <path d="M74.36,120.33c-.24-.55-.48-1.09-.73-1.64,2.49-.09,4.97-.19,7.46-.28.28.5.01.65-.44.67-.31.02-.64-.06-.94.1-1.1.75-2.21,1.49-3.31,2.24-.94.12-1.6-.28-2.05-1.09Z" style="fill: #256289; stroke-width: 0px;"/>
      <path d="M84.16,128.13c1.29.19,1.89-.3,1.67-1.65-.11-.66-.19-1.32-.28-1.99.65-.09,1.3-.18,1.94-.27-.08,1.12-.24,2.24-.19,3.35,0,.2.84.37,1.3.55.02.26-.12.42-.34.53-1.18.59-3.44.3-4.1-.53Z" style="fill: #05162e; stroke-width: 0px;"/>
      <path d="M97.2,118.45c-.74.07-1.5.09-2.23.24-.48.1-.92.37-1.38.57-1.53-.62-1.74.89-2.46,1.6-.55-1.46.24-2.71,1.79-2.72,1.42-.01,2.85.2,4.27.31Z" style="fill: #256d93; stroke-width: 0px;"/>
      <path d="M74.36,120.33c.68.36,1.37.72,2.05,1.09-.78,1.05-.7,1.27.52,1.42-.38.58-.76,1.16-1.15,1.75-1.05-.13-1.07-1.04-1.34-1.76-.02-.49.27-.97.02-1.46-.03-.34-.07-.68-.1-1.03Z" style="fill: #091d2f; stroke-width: 0px;"/>
      <path d="M79.72,119.18c.46-.26.91-.51,1.37-.77,1.44,1.01,1.76,2.08.98,3.45-1.08-.64-.3-2.93-2.35-2.68Z" style="fill: #1c557e; stroke-width: 0px;"/>
      <path d="M91.65,111.72c0,.09,0,.18,0,.27-3.24,0-6.48,0-9.71-.01-.02-.09-.02-.17-.03-.26.06-.06.12-.13.18-.19,1.69-.61,3.44-.26,5.17-.28.87.17,1.73-.13,2.6-.06.64.06,1.29.03,1.79.53Z" style="fill: #3490b7; stroke-width: 0px;"/>
      <path d="M84.16,128.13c1.48,0,2.96,0,4.45,0,1.65-.27,3.3-.56,4.96-.81.38-.06.77-.03,1.16-.05-1.2.95-2.39,1.9-3.59,2.85-.15-.08-.32-.26-.44-.23-3.11.76-6.19.59-9.28-.12-1.17-.15-2.26-1.11-2.53-2.24.19-.09.37-.17.56-.26,1.57.28,3.15.57,4.72.85Z" style="fill: #030f23; stroke-width: 0px;"/>
      <path d="M78.27,139.08c-1.01-.97-2.01-1.93-3.02-2.9.48-.17.95-.34,1.43-.51,1.92,0,2.95,1.28,3.87,2.71-.35.08-.71.14-1.05.24-.42.13-.82.3-1.23.45Z" style="fill: #1d544e; stroke-width: 0px;"/>
      <path d="M77.85,135.4c.06-.11.11-.31.18-.32,1.66-.23,3.33-.44,4.99-.65-1.47.32-2.95.65-4.42.97-.25,0-.5,0-.75,0Z" style="fill: #8dad95; stroke-width: 0px;"/>
      <path d="M85.05,133.98c-.21-.03-.42-.05-.81-.1.45-.33.76-.55,1.07-.77.32.27.65.54.97.81-.41.02-.82.05-1.23.07Z" style="fill: #95b191; stroke-width: 0px;"/>
      <path d="M78.88,127.54c.84.75,1.69,1.49,2.53,2.24.45.47.9.95,1.35,1.42-.18.13-.36.26-.55.39.25.17.59.28.74.52.15.23.11.59.15.89-.26,0-.59.12-.77,0-2.02-1.29-4.39-1.62-6.58-2.43-1.12-.42-1.67-1.25-1.87-2.38-.09-.49-.2-.98-.3-1.48-.42-1.54.21-2.77,1.16-3.91.35.59.69,1.19,1.04,1.78,1.03.98,2.07,1.97,3.1,2.95Z" style="fill: #8ead88; stroke-width: 0px;"/>
      <path d="M139.45,35.01c-.2,2.69-.41,5.39-.61,8.08-.25.82-.51,1.64-.76,2.45-1.66-.19-3.32-.37-4.99-.56-.98-.22-2.06-.09-2.92-.78-.52-.56-1.58-.64-1.54-1.71.18-.18.37-.36.55-.55,1.47-1.92,3.78-2.73,5.6-4.2,1.11-.9,2.36-1.6,3.54-2.4.33-.22.65-.54,1.12-.35Z" style="fill: #0d3246; stroke-width: 0px;"/>
      <path d="M130.3,43.89c.93.37,1.86.73,2.79,1.09-3.42-.19-6.83-.37-10.25-.55-.46-.64-.93-1.28-1.39-1.92.06-.11.13-.22.2-.33.88-1.04,2.01-.97,3.15-.63,1.71.51,3.33,1.23,4.86,2.15.2.12.41.2.65.2Z" style="fill: #205962; stroke-width: 0px;"/>
      <path d="M130.3,43.89c-.99-.32-1.98-.64-2.97-.96-1.24-.4-2.45-.95-3.72-1.16-.59-.1-1.28.46-1.92.72-.72-1.2-1.02-2.55-1.39-3.87.55.19,1.1.38,1.65.57,1.58.55,3.25.89,4.44,2.22.75.36,1.5.73,2.25,1.09.56.46,1.11.92,1.67,1.39Z" style="fill: #1d545e; stroke-width: 0px;"/>
      <path d="M126.39,41.41c-1.48-.74-2.96-1.48-4.44-2.22,1.81.39,2.78-.41,3.1-2.17,0-.04.16-.06.25-.09.35.99.74,1.96,1.02,2.96.13.47.05,1,.07,1.51Z" style="fill: #061b2f; stroke-width: 0px;"/>
      <path d="M120.3,38.63c1.19,1.03.95,2.57,1.39,3.87-.08,0-.16,0-.24,0-.21-.37-.42-.74-.62-1.11-.64-1.11-1.28-2.23-1.92-3.34.46.19.93.38,1.39.57Z" style="fill: #145761; stroke-width: 0px;"/>
      <path d="M139.45,35.01c-3.42,2.32-6.85,4.63-10.27,6.95,1.88-4.05,3.77-8.1,5.66-12.14.11-.24.32-.44.48-.66,1.55,1.15,3.47,1.91,4.21,3.93-.03.64-.05,1.28-.08,1.92Z" style="fill: #1a4658; stroke-width: 0px;"/>
      <path d="M115.86,73.69c-1.85-.84-3.71-1.64-5.53-2.53-1.34-.66-2.62-.85-3.92.02-.47-.55-.2-1.13-.06-1.69.26-1.11.5-2.23.85-3.31.26-.64.7-1.11,1.36-1.29,1.42-.38,2.62-1.43,4.18-1.39,1.25.36,1.2,1.62,1.73,2.48.48,1.17,1.08,2.29,1.68,3.4.32,1.07,1.35,1.89,1.12,3.16-.47.38-.93.77-1.4,1.15Z" style="fill: #d4ebec; stroke-width: 0px;"/>
      <path d="M117.26,72.54c-.47-1.02-.94-2.04-1.42-3.06-.34-1.22-1-2.3-1.56-3.42-.12-.49-.22-.96-.55-1.38-.38-.48-.6-1.04-.11-1.62.37-.28.74-.55,1.11-.83,1.62,2.36,2.02,5.38,4.1,7.5.35.36.45.96.66,1.45-.74.45-1.48.9-2.22,1.35Z" style="fill: #29d7b1; stroke-width: 0px;"/>
      <path d="M104.45,75.86c0-.09,0-.19,0-.28.43-.25.85-.54,1.3-.75,2.03-.98,4.01-1.38,5.82.48.25.25.62.39.93.58-.53.36-1.07.73-1.6,1.09-.34.09-.52.36-.74.59-2.11,2.2-3.28,2.3-5.7.5-1.7-.73.07-1.47,0-2.2Z" style="fill: #091323; stroke-width: 0px;"/>
      <path d="M104.45,78.06c.09,0,.21-.04.27,0,2.16,1.43,3.93.93,5.42-1.07.09-.12.49-.02.75-.02-.46,1.74-1.58,2.86-3.37,2.94-1.31.06-2.53-.44-3.08-1.85Z" style="fill: #956131; stroke-width: 0px;"/>
      <path d="M107.54,66.12c-.38,1.69-.75,3.37-1.13,5.06-.55.64-1.11,1.27-1.66,1.91-2.59-1.2-5.19-2.41-7.78-3.61-.16.08-.3.04-.4-.1-.07-.15-.1-.3-.09-.46.19-1.86.31-3.73.28-5.61,0-.46.05-.92.37-1.29.73-.24.66.38.79.76.51,1.57.67,1.54,2.28,1.23,1.39-.27,2.23-1.19,3.21-1.99,1.8.52,2.88,1.98,4.15,3.2.24.23.14.6,0,.91Z" style="fill: #afccc1; stroke-width: 0px;"/>
      <path d="M92.83,51.97c3.58-2.54,7.15-5.08,10.73-7.61-1.09,2.24-2.19,4.48-3.27,6.73-.22.45-.39.93-.58,1.4-.39,1.6-1.1,3.07-1.98,4.46-.1.12-.23.21-.36.28-.22.11-.46.14-.7.14-3.18-.05-6.35-.03-9.52-.4-.22-.12-.36-.29-.39-.55.66-1.38,1.92-1.98,3.28-2.43.93-.67,1.86-1.34,2.8-2.01Z" style="fill: #1ca3b0; stroke-width: 0px;"/>
      <path d="M97.52,56.73c.73-1.41,1.46-2.83,2.19-4.24-.08,1.05.16,2.04,1.45,1.65,1.94-.58,3.36.53,4.95,1.14-2.63.57-5.26,1.13-7.89,1.7-.35.25-.53.02-.7-.25Z" style="fill: #39dab4; stroke-width: 0px;"/>
      <path d="M107.54,66.12c-.16-.31-.24-.7-.49-.91-1.21-1.02-2.46-2-3.69-2.99-.97-.4-1.79-.95-2.12-2.02.66-1,1.58-.71,2.43-.43,1.83.6,3.5,1.58,5.34,2.15,1.25.48,2.5.97,3.75,1.45.09.05.13.11.1.17-.03.06-.06.09-.09.09-1.75.83-3.49,1.66-5.24,2.5Z" style="fill: #d3e9d1; stroke-width: 0px;"/>
      <path d="M101.39,60.29c.66.64,1.31,1.29,1.97,1.93-.44,1.1-1.18,1.83-2.41,1.96-.14.01-.28.02-.41.05-2.57.7-3.01.37-3.04-2.29-.85-1.67-.81-3.35,0-5.02,0-.07,0-.13.03-.2.23.08.47.17.7.25.04.17.08.33.12.5,1.05.91,2.55,1.32,3.05,2.81Z" style="fill: #abccc0; stroke-width: 0px;"/>
      <path d="M101.39,60.29c-1.02-.94-2.03-1.88-3.05-2.81,3.56,1.48,7.11,2.96,10.67,4.44-1.19-.42-2.41-.76-3.56-1.27-1.33-.59-2.64-1.01-4.06-.36Z" style="fill: #cbe8d5; stroke-width: 0px;"/>
      <path d="M112.78,63.63c0-.09,0-.17-.01-.25.28-.1.57-.21.85-.31.18.56.37,1.12.52,1.69.13.45.21.92.31,1.38-.09.13-.19.14-.28,0-.47-.83-.93-1.67-1.4-2.5Z" style="fill: #37cdb4; stroke-width: 0px;"/>
      <path d="M42.75,121.17c-.06.34-.21.68-.17,1.01.32,3.05.68,6.1,1,9.15.38,3.6.74,7.2,1.07,10.81.15,1.6.22,3.21.32,4.81.09,1.33.18,2.65.27,3.98-1.94-2.14-3.89-4.28-5.83-6.41-1.3-4.87-2.29-9.82-3.45-14.72-.55-2.34-1.09-4.68-1.84-6.97,2.06-.7,4.12-1.39,6.17-2.11.46-.16.88-.43,1.32-.65.1,0,.2,0,.29-.01.06,0,.12.01.18.02.23.08.42.24.57.43.13.21.25.42.09.67Z" style="fill: #0f4e3a; stroke-width: 0px;"/>
      <path d="M30.21,91.99c.61.19,1.39.2,1.81.59,2.84,2.64,5.6,5.35,8.38,8.05,1.62,1.56,3.23,3.13,4.84,4.7.66,1.01.2,1.87-.34,2.72-1.63,0-3.25-.2-4.91-.1-.28.54.21,1.65-.79,1.64-1.15-.01-1.04-1.35-1.64-2,.84,1.82,1.56,3.69,2.41,5.51.44.95,1.23,1.91.54,3.08-1.24-2.68-2.52-5.34-3.7-8.04-2.06-4.75-4.05-9.53-6.05-14.3-.25-.59-.37-1.23-.55-1.85Z" style="fill: #16543e; stroke-width: 0px;"/>
      <path d="M40.51,116.18c-.63-1.69-1.22-3.4-1.9-5.07-.46-1.14-1.09-2.22-1.54-3.36-.13-.33.09-.81.15-1.21.27.26.61.48.8.8.27.47.4,1.03.66,1.51.12.22.44.32.68.47.05-.25.16-.5.13-.73-.06-.42-.21-.83-.21-1.38,1.73,1.13,3.82-.61,5.4.91.39.37.33.85.24,1.3-.72,3.39-1.36,6.8-2.34,10.13-.05.18-.14.34-.26.48-.13.13-.27.14-.42.04,0,0,0,0,0,0-.47-1.29-.93-2.58-1.4-3.88Z" style="fill: #15563b; stroke-width: 0px;"/>
      <path d="M52.2,89.76c.09,0,.18,0,.27,0,.2.14.3.33.35.56.07.38.03.74-.11,1.1-2.02,2.6-3.13,5.71-4.72,8.55-.29.51-.43,1.33-1.37.91-3.04-3.55-6.08-7.1-9.12-10.65-1.49-1.74-3-3.47-4.5-5.2,4.95,1.3,9.9,2.59,14.84,3.89,1.2.32,2.39.69,3.6,1,.22.06.49-.1.74-.16Z" style="fill: #0d3c41; stroke-width: 0px;"/>
      <path d="M42.18,120.05c.51-2.41,1.03-4.82,1.54-7.24.33-1.57.64-3.14.96-4.7.19-.93.37-1.85.56-2.78.1,0,.19,0,.29,0,.68-.17,1.01.33,1.37.74,1.85,2.12,3.84,4.11,5.72,6.2.46.51,1.04.95.91,1.77-.16.54-.59.81-1.04,1.05-2.93,1.57-5.86,3.16-8.81,4.69-.44.23-.9.76-1.5.27Z" style="fill: #044b3b; stroke-width: 0px;"/>
      <path d="M46.63,100.88c.66-1.03,1.39-2.02,1.98-3.09.96-1.76,1.8-3.58,2.76-5.34.23-.41.72-.68,1.1-1.02.79.92.65,2.08.77,3.16.26,2.43.38,4.87.67,7.3.04.33,0,.66-.16.96-.32.43-.8.61-1.29.74-1.61.42-3.19.91-4.79,1.33-.61.16-1.25.42-1.83-.12-.1-.25-.33-.54-.27-.74.32-1.07.7-2.12,1.07-3.17Z" style="fill: #0f4642; stroke-width: 0px;"/>
      <path d="M45.83,104.79c2.57-.64,5.14-1.28,7.71-1.92.15.1.27.24.34.41.25,3.2.07,6.41.09,9.62,0,.42.03.96-.65.99-.95-1.12-1.86-2.26-2.84-3.34-1.62-1.77-3.29-3.49-4.94-5.23.1-.18.2-.36.3-.53Z" style="fill: #087e6c; stroke-width: 0px;"/>
      <path d="M34.12,122.83c.35.54.89,1.04,1.03,1.64,1.38,5.9,2.69,11.81,4,17.72.17.76.17,1.55.26,2.33-2.69-2.59-5.37-5.19-8.06-7.78-.93-3.51-2.01-6.98-2.95-10.48-.15-.56-.42-1.14-.09-1.74.09-.1.18-.19.27-.29,1.85-.46,3.7-.93,5.55-1.39Z" style="fill: #044439; stroke-width: 0px;"/>
      <path d="M28.3,124.52c1.09,3.69,2.19,7.37,3.24,11.07.1.34-.12.76-.19,1.15-3.25-3.41-6.49-6.82-9.74-10.23,2.23-.66,4.46-1.32,6.69-1.98Z" style="fill: #13533e; stroke-width: 0px;"/>
      <path d="M52.47,90.32c0-.19,0-.37,0-.56,1.29-4.13,2.59-8.26,3.88-12.39.3-.96.57-1.93.86-2.9,1.38-.58,1.24,1.01,1.95,1.38-.08.89.16,1.72.43,2.56.51,1.6,1.46,2.5,3.24,2.3.92-.1,1.8.37,2.73.29.66.03,1.26.21,1.79.6.69.51.13,1.46.76,2.07.22.21-.39.48-.75.54-.72.13-1.45-.12-2.21.11-.13-.03.02.22.01.03,0-.05.04-.03.13-.04.37-.02.65.03.53.52-4.3,1.79-8.44,3.94-12.76,5.68-.23.02-.42-.05-.59-.2Z" style="fill: #042a36; stroke-width: 0px;"/>
      <path d="M65.53,81.42c-1.42-.1-2.84-.13-4.24-.33-.48-.07-1.08-.44-1.3-.85-.55-1.05-.97-2.18-1.32-3.32-.09-.28.31-.71.48-1.07,1.03.08,1.92-.02,2.76-.85.97-.96,2.31-1.02,3.63-.8.33.39.78.41,1.24.41.29,0,.55.05.47.46-.68.2-.95.79-1.27,1.32.18.53.74.25,1.05.49.61,1.09.29,1.79-.87,1.82-.97.03-1.73-.53-2.51-1.02-.33-.21-.47-.65-.9-.68.25,1.09,1.2,1.66,1.79,2.48.41.6,1.21,1,1,1.92Z" style="fill: #051525; stroke-width: 0px;"/>
      <path d="M65.81,84.77c-.27-.14-.55-.28-.82-.41-.02-.1-.04-.2-.06-.3.98-.12,1.96-.25,3.07-.39-.56-.28-1-.51-1.28-.65-.4-.83,1.36,0,.48-1.04,1.78-.43,2.17-1.95,2.63-3.38.24-.76-.03-1.45-.58-2.03-.33-.35-.86-.61-.66-1.25.08-.55.15-1.1.23-1.65,1.32,2.5,2.64,4.99,3.95,7.49-.03.06-.04.13-.04.2-.37.9-.75,1.79-1.39,2.54-.77.83-1.11,2.04-2.28,2.51-1.25-.22-2.59-.25-3.25-1.63Z" style="fill: #072839; stroke-width: 0px;"/>
      <path d="M68.59,75.31c.25.26.47.56.76.78.99.77,1.3,1.73.85,2.9-.25.64-.65,1.22-.84,1.87-.34,1.19-1.06,1.47-2.15,1.11-.56-.18-1.11-.37-1.67-.55-.37-.55-.74-1.11-1.12-1.66.4-.44.96-.23,1.43-.34.95-.05,1.71-.51,2.63-1.3-.08.06-.37-.05-.22.07.02.02,0,.05-.08.11-.41.37-.89.62-1.44.72-2.43.09-3.42-.46-4.26-2.34-.11-.14-.21-.28-.32-.41.03-.04.06-.08.09-.12,1.03.69,2.01,1.46,3.1,2.04.4.22,1.05.05,1.56-.08.09-.02.02-.69.02-1.06,0-.2.08-.35.21-.49.8-.48-.2-1.03.06-1.53-.42-.09-.85-.14-1.24-.3-.18-.07-.29-.34-.43-.53,1.02.37,2.04.74,3.06,1.11Z" style="fill: #04101d; stroke-width: 0px;"/>
      <path d="M90.03,53.98c-1.02.73-2.04,1.46-3.07,2.19-.18.1-.28.41-.58.22-1.31-1-2.61-2.01-3.92-3.01.77-.29,1.38-.21,2.05.41,1.04.95,3.14.93,4.25.05.54-.42.92-.62,1.26.14Z" style="fill: #063a49; stroke-width: 0px;"/>
      <path d="M76.92,49.47c-1.38-1.03-2.75-2.06-4.13-3.09.59.25,1.26.4,1.74.79.86.69,1.6,1.53,2.39,2.31Z" style="fill: #033d50; stroke-width: 0px;"/>
      <path d="M86.39,56.39c.19-.07.38-.14.58-.22,0,.16,0,.31,0,.47.43,2.22.2,4.46.14,6.69-.01.47-.22.89-.73,1.06,0,0,0,.13,0,.13-.21-.19-.43-.39-.64-.58.25-1.26.26-2.53.13-4.09-1.45,1.5-2.81.54-4.19.23-.57-.13-1.12-.47-1.74-.22-1.32-.96-2.64-1.91-3.95-2.87,3.03-.1,6.07-.2,9.1-.33.44-.02.87-.18,1.3-.28Z" style="fill: #187094; stroke-width: 0px;"/>
      <path d="M79.94,59.86c.36-.18.78-.57,1.07-.49.94.26,1.83.97,2.75.98.81.01,1.62-.68,2.58-1.13,0,1.37.02,2.81-.03,4.24,0,.17-.37.33-.57.49-1.93-1.36-3.87-2.72-5.8-4.09Z" style="fill: #177398; stroke-width: 0px;"/>
      <path d="M73.3,81.72c-.09-.2-.19-.4-.28-.6.03-.07.04-.13.05-.2,2.57-1.72,5.14-3.43,7.7-5.16,1.88-1.27,3.74-2.55,5.61-3.82.66-.34,1.17.03,1.65.37,3.19,2.21,6.44,4.33,9.58,6.61.46.33,1.09.59,1,1.36-.35.11-.71.35-1.03.31-3.18-.41-6.35-1.03-9.54-1.27-2.18-.17-4.4.14-6.59.3-.86.06-1.72.28-2.58.43-1.76.87-3.67,1.28-5.57,1.69Z" style="fill: #f6f3db; stroke-width: 0px;"/>
      <path d="M98.62,80.27c-4.08-2.78-8.16-5.56-12.24-8.34,0-.08,0-.15,0-.23.08-.02.17-.03.26-.03,3.07-1.44,6.35-2.07,9.7-2.42.12-.01.24.12.36.2.09,0,.18.01.27.03,1.01,3.5,2.03,7,3.02,10.51.08.27-.03.6-.05.9-.44-.21-.88-.42-1.31-.63Z" style="fill: #9cac98; stroke-width: 0px;"/>
      <path d="M97.5,56.93c0,1.67,0,3.35,0,5.02-.09,1.26-.14,2.53-.29,3.79-.13,1.16-.36,2.31-.55,3.47-.56.2-1.08.03-1.58-.2-2.42-1.12-4.89-2.17-7.28-3.35-.39-.19-.92-.29-.89-.91,0-.1,0-.2,0-.3-.04-.39.23-.43.51-.45,1.06.47,1.91.2,2.67-.66.45-.51.92-1.06,1.53-1.35.92-.43,1.23-1.14,1.24-2.06,1.11-1.38,2.56-2.29,4.18-2.94.15-.02.3-.04.45-.06Z" style="fill: #dbe8d6; stroke-width: 0px;"/>
      <path d="M87.45,64.09c-.18.12-.37.24-.55.36-.17-.02-.35-.04-.52-.06.09-1.97.17-3.93.29-5.9.04-.62.19-1.24.29-1.86,3.36.12,6.72.23,10.08.35-1.33,1.02-2.65,2.04-3.98,3.05-1.57,1.76-3.41,3.16-5.61,4.05Z" style="fill: #165163; stroke-width: 0px;"/>
      <path d="M86.91,64.75c3.25,1.48,6.5,2.97,9.75,4.45,0,.08.02.17.03.25-3.35.74-6.7,1.48-10.05,2.23,0-1.83,0-3.66.04-5.48,0-.48.15-.96.24-1.44Z" style="fill: #a7b7a0; stroke-width: 0px;"/>
      <path d="M42.75,121.17c-.1-.18-.2-.37-.31-.55.5-.99,1.47-.8,2.27-.78,3.94.09,7.88.4,11.79.91,2.46.77,3.81,2.85,5.42,4.63.12.14.09.34,0,.52.1.34.2.68.37,1.23-1.21-.19-2.29-.46-3.37-.5-2.83-.11-5.67-.15-8.5-.16-.34,0-.68.36-1.01.55-.7-.57-1.42-1.12-2.1-1.73-1.53-1.36-3.04-2.75-4.55-4.13Z" style="fill: #04111f; stroke-width: 0px;"/>
      <path d="M61.92,125.9c-1.67-1.57-3.34-3.15-5.01-4.72.15-.25.4-.38.65-.49.66-.29.61-.68.24-1.19-.71-.97-1.57-1.81-2.4-2.66-1.12-1.14-1.85-2.33-1.73-4.13.2-3.16.06-6.35.06-9.52-.09-.86.55-1.07,1.17-1.3,1.63-.62,3.37-.9,4.93-1.74.79-.43.97.35,1.14.93-.05,1.62.33,3.2.36,4.82.35,3.71.66,7.43.77,11.16,0,.28.11.54.18.81.23,2.2.45,4.4.47,6.62,0,.49.17,1.03-.32,1.42-.17,0-.33,0-.5,0Z" style="fill: #062432; stroke-width: 0px;"/>
      <path d="M74.75,122.8c-.39,1.3-.77,2.61-1.16,3.91-1.11,3.07-2.22,6.14-3.33,9.21-.12-.1-.24-.2-.36-.29-.61-.58-1.55-.9-1.57-1.95-1.86-2.42-3.72-4.84-5.58-7.26-.06-.66-.54-1.38.26-1.93v1.53c1.45-.5,2.76-.96,4.07-1.42,2.17-.75,4.34-1.47,6.49-2.28.37-.14.6-.62.9-.95.09.48.19.96.28,1.44Z" style="fill: #e0e8c4; stroke-width: 0px;"/>
      <path d="M63.01,124.48c-.09.64-.17,1.29-.26,1.93-.11-.17-.22-.34-.33-.52-.18-2.64-.36-5.29-.54-7.93-.09-.34-.22-.69.19-1.1.73,1.15,1.87,1.9,2.32,3.19-.46,1.47-.93,2.95-1.39,4.42Z" style="fill: #8eb8b5; stroke-width: 0px;"/>
      <path d="M68.33,133.67c.52.65,1.04,1.3,1.57,1.95-.4-.05-.87,0-1.19-.18-.39-.24-.72-.65-.95-1.06-.06-.1.37-.47.57-.71Z" style="fill: #051624; stroke-width: 0px;"/>
      <path d="M73.3,81.72c1.86-.56,3.72-1.12,5.57-1.69-.39.38-.73.83-1.18,1.12-1.44.93-1.81,1.86-.83,3.28.83,1.2.86,2.22.5,3.59-.24.9.19,2.02.43,3.01.41,1.68.9,3.33,1.35,5,.12.44.09,1.01.36,1.3,1.51,1.56,1.36,3.64,1.87,5.52.29,1.09-.62,1.36-1.12,1.93-1.66-5.43-3.32-10.85-4.97-16.28-.68-2.25-1.33-4.52-1.99-6.78Z" style="fill: #fafbf0; stroke-width: 0px;"/>
      <path d="M60.88,105.86c-.1-1.62-.21-3.24-.31-4.86.8-2.81,2.57-5.15,3.79-7.76.46-.63.77-1.35,1.13-2.03.77-1.25,1.5-2.51,2.29-3.75.35-.55.75-1.03,1.35-1.32.65-.84,1.31-1.67,1.96-2.51.59.14.77-.75,1.39-.54-.35,3.41-.7,6.83-1.04,10.24-.31,3.24-.6,6.47-.91,9.71-.05.48-.18.96-.27,1.44-.83.28-1.58.06-2.38-.26-1.62-.65-3.16-1.49-4.85-1.96-1.35-.37-1.48-.29-1.52,1.16-.01.46.03.92-.03,1.38-.06.42.05.97-.6,1.07Z" style="fill: #8fb4ae; stroke-width: 0px;"/>
      <path d="M60.88,105.86c.07-1.1.16-2.19.2-3.29.04-1.02.5-1.34,1.44-.97,1.95.78,3.89,1.58,5.85,2.34.45.18.99.94,1.36-.1.18.21.35.42.53.64,0,.1,0,.2.01.29-1.96,5.09-3.91,10.18-5.87,15.28-.85-.85-1.69-1.7-2.47-2.49,0-.04-.02.18-.05.4-.26-2.79-.54-5.58-.79-8.37-.11-1.24-.15-2.48-.22-3.72Z" style="fill: #89b6af; stroke-width: 0px;"/>
      <path d="M72.48,83.09c-.43.27-.57,1.27-1.39.54.55-.76,1.09-1.52,1.64-2.29-.08.58-.17,1.16-.25,1.74Z" style="fill: #84bab5; stroke-width: 0px;"/>
      <path d="M81.92,111.72c-.54-1.94-1.09-3.88-1.63-5.82,2.96,0,5.92,0,8.88,0,.3.32.84-.09,1.18.45-2.04,1.27-3.23,3.74-6.03,3.99-.89.08-1.64.81-2.36,1.39h-.03Z" style="fill: #1d84b3; stroke-width: 0px;"/>
      <path d="M81.95,111.71c.39-1.45,1.71-1.79,2.85-2,1.37-.25,2.33-.88,3.18-1.9.52-.63,1.19-1.12,1.74-1.62-.02,0-.29-.15-.56-.3.93,0,1.85,0,2.78,0,.19.13.44.3.26.54-.92,1.25-1.7,2.61-2.76,3.76-.62.68-1.33,1.26-2.23,1.53-1.76,0-3.51,0-5.27,0Z" style="fill: #2089b8; stroke-width: 0px;"/>
      <path d="M87.22,111.72c1.22-1.34,2.47-2.66,3.64-4.04.45-.52.73-1.19,1.08-1.79.37,0,.73,0,1.1,0-.46,1.94-.93,3.88-1.39,5.83-1.48,0-2.96,0-4.44,0Z" style="fill: #2493bd; stroke-width: 0px;"/>
      <path d="M114.18,66.13c.09,0,.19,0,.28,0,.46,1.12.92,2.23,1.38,3.35-.56-1.11-1.11-2.23-1.67-3.35Z" style="fill: #3cceb4; stroke-width: 0px;"/>
      <path d="M108.47,76.54c-.69.44-1.03.76-1.41.84-.19.04-.47-.38-.7-.59.29-.24.56-.58.89-.67.24-.07.57.18,1.22.43Z" style="fill: #dee5e4; stroke-width: 0px;"/>
      <path d="M53.86,103.1c0,3.1.08,6.2-.03,9.3-.06,1.58.58,2.72,1.58,3.79.95,1.01,1.88,2.03,2.79,3.07,1.12,1.27,1.02,1.56-.6,1.88-.22.04-.46.02-.69.03-4.3-.28-8.59-.57-12.89-.82-.52-.03-1.05.17-1.58.27-.18-.19-.36-.38-.54-.57.09,0,.19,0,.28,0,3.61-1.9,7.21-3.81,10.81-5.72.14-.08.22-.29.32-.43.09-.48.26-.95.26-1.43.02-3.12.01-6.24.01-9.36.09-.14.18-.14.26,0Z" style="fill: #052933; stroke-width: 0px;"/>
      <path d="M65.78,91.43c-.36.65-.71,1.3-1.07,1.95-2.01.31-3.13,1.96-4.57,3.09-1.37,1.07-2.48,2.47-3.87,3.51-.9.67-2.05.99-2.69,2.02-.17-.98-.41-1.94-.5-2.93-.24-2.54-.41-5.1-.61-7.64,0-.37,0-.74,0-1.11.19,0,.38,0,.57,0,1.01-.37,2.03-.4,3.11-.29,2.61.24,5.22.43,7.83.64.69.06,1.4.06,1.81.77Z" style="fill: #042430; stroke-width: 0px;"/>
      <path d="M53.58,102c.03-1.07.58-1.6,1.62-1.89.61-.17,1.15-.68,1.65-1.12,1.94-1.73,3.87-3.47,5.75-5.27.69-.66,1.35-.61,2.12-.34-1.38,2.54-2.76,5.08-4.14,7.62-.31-.7-.24-.55-.82-.3-1.24.53-2.57.85-3.83,1.34-.72.28-1.38.71-2.06,1.07-.09,0-.18,0-.26,0-.02-.08-.04-.16-.05-.23.01-.29.02-.58.04-.87Z" style="fill: #05212e; stroke-width: 0px;"/>
      <path d="M65.78,91.43c-1.5-.18-3-.41-4.51-.54-2.74-.23-5.49-.39-8.23-.58,2.93-1.39,5.85-2.83,8.81-4.16,1.27-.57,2.64-.93,3.96-1.38,1.11.46,2.21.92,3.32,1.37-1.12,1.76-2.23,3.52-3.35,5.28Z" style="fill: #064a50; stroke-width: 0px;"/>
      <path d="M65.82,79.78c-.47-.01-.93-.02-1.4-.03-.68-.79-1.37-1.57-2.01-2.4-.1-.13.04-.45.07-.69,1.18,1.34,2.5,2.34,4.44,2,.09.83-.83.65-1.1,1.12Z" style="fill: #956131; stroke-width: 0px;"/>
      <path d="M67.2,75.03c.25.33.58.63.69,1,.04.15-.41.45-.64.68-.66-.22-1.46.07-2.01-.56.28-.14.56-.28.83-.41-.2-.15-.4-.3-.94-.7h2.06Z" style="fill: #111b2c; stroke-width: 0px;"/>
      <path d="M65.25,76.14c.67.19,1.34.38,2.01.56-.11.11-.22.23-.34.34-.8.15-1.74.56-1.67-.9Z" style="fill: #e2e5e6; stroke-width: 0px;"/>
      <path d="M65.82,79.78c.37-.37.74-.74,1.1-1.12.69-.51,1.37-1.02,2.06-1.53,0,1.44-1.21,2.45-3.16,2.64Z" style="fill: #956131; stroke-width: 0px;"/>
      <path d="M87.45,64.09c1.87-1.35,3.74-2.7,5.61-4.05.31.99.16,1.59-.96,2.09-.91.4-1.54,1.4-2.33,2.1-.8.71-1.6.87-2.32-.14Z" style="fill: #d4e7d4; stroke-width: 0px;"/>
    </g>
  </g>
</svg>