<?xml version="1.0" encoding="UTF-8"?>
<svg id="uuid-380f5c75-6665-4d0e-9ef1-57295a2c03fc" data-name="Lager 2" xmlns="http://www.w3.org/2000/svg" viewBox="0 0 538.35 576">
  <g id="uuid-6d582fb5-9c67-4e1c-a524-d40420bd3c78" data-name="Lager 3">
    <rect width="538.35" height="576" style="fill: #0E1625; stroke-width: 0px;"/>
  </g>
  <g id="uuid-ac758f10-a298-43a3-9ffc-36fe467a0186" data-name="Lager 4 kopia">
    <path d="M153.62,283.69l8.3-8.3c.26-.26.26-.68,0-.94l-8.2-8.2v17.44" style="fill: #07496a; stroke-width: 0px;"/>
    <path d="M387.9,283.97l-8.3-8.3c-.26-.26-.26-.68,0-.94l8.2-8.2v17.44" style="fill: #07496a; stroke-width: 0px;"/>
    <path d="M202.76,205.99l28.34-6.57c1.63-.38,3.3-.57,4.98-.57h22.99c1.55,0,3.06.53,4.27,1.5l7.06,5.65,8.95-5.99c1.12-.75,2.44-1.15,3.79-1.15h23.49c1.58,0,3.16.17,4.71.51l30.5,6.64,4.51.76,3.85-4.95-5.2-1.2-29.96-7.18c-3.63-.87-7.35-1.31-11.08-1.31h-27.27c-1.65,0-3.25.58-4.52,1.65l-1.57,1.32-1.93-1.5c-1.23-.95-2.74-1.47-4.29-1.47h-27.24c-3.58,0-7.16.4-10.66,1.19l-31.47,7.11-7.08.51-.99,4.4,6.07,3.09,9.76-2.42" style="fill: #07496a; stroke-width: 0px;"/>
  </g>
  <g id="uuid-157fa6f6-86c3-4038-b209-164723873cea" data-name="bjeorn raster">
    <g>
      <path d="M194.48,77.43v11.83c0,4.69-3.78,8.47-8.47,8.47h-32.9v-20.3M153.11,77.43v-33.6h5.74v13.3h27.16c4.69,0,8.47,3.78,8.47,8.47v11.83M188.74,77.43v-11.83c0-1.47-1.26-2.73-2.73-2.73h-24.36c-1.54,0-2.8,1.26-2.8,2.73v11.83M158.85,77.43v11.83c0,1.47,1.26,2.73,2.8,2.73h24.36c1.47,0,2.73-1.26,2.73-2.73v-11.83" style="fill: #45b4a0; stroke-width: 0px;"/>
      <path d="M208.62,106.2c0,4.76-3.78,8.54-8.54,8.54h-17.15v-5.81h17.15c1.47,0,2.73-1.26,2.73-2.73v-49.08h5.81v49.08ZM208.62,43.83v5.74h-5.81v-5.74h5.81Z" style="fill: #45b4a0; stroke-width: 0px;"/>
      <path d="M256.29,65.6v14.7h-35.63v8.96c0,1.47,1.26,2.73,2.73,2.73h32.9v5.74h-32.9c-4.69,0-8.47-3.78-8.47-8.47v-23.66c0-4.69,3.78-8.47,8.47-8.47h24.36c4.76,0,8.54,3.78,8.54,8.47ZM250.48,74.56v-8.96c0-1.47-1.19-2.73-2.73-2.73h-24.36c-1.47,0-2.73,1.26-2.73,2.73v8.96h29.82Z" style="fill: #45b4a0; stroke-width: 0px;"/>
      <path d="M296.19,57.13c4.76,0,8.54,3.78,8.54,8.47v23.66c0,4.69-3.78,8.47-8.54,8.47h-24.36c-4.69,0-8.47-3.78-8.47-8.47v-23.66c0-4.69,3.78-8.47,8.47-8.47h24.36ZM271.83,62.87c-1.47,0-2.73,1.26-2.73,2.73v23.66c0,1.47,1.26,2.73,2.73,2.73h24.36c1.54,0,2.73-1.26,2.73-2.73v-23.66c0-1.47-1.19-2.73-2.73-2.73h-24.36Z" style="fill: #45b4a0; stroke-width: 0px;"/>
      <path d="M342.46,57.13v5.74h-22.82c-1.47,0-2.73,1.26-2.73,2.73v32.13h-5.74v-32.13c0-4.69,3.78-8.47,8.47-8.47h22.82Z" style="fill: #45b4a0; stroke-width: 0px;"/>
      <path d="M388.52,65.6v32.13h-5.74v-32.13c0-1.47-1.26-2.73-2.73-2.73h-24.36c-1.54,0-2.8,1.26-2.8,2.73v32.13h-5.74v-40.6h32.9c4.69,0,8.47,3.78,8.47,8.47Z" style="fill: #45b4a0; stroke-width: 0px;"/>
    </g>
  </g>
  <g id="uuid-392efdb0-e961-4a0e-8c62-f06b037fb85b" data-name="Lager 1">
    <g>
      <path d="M270.32,221.11c3.06-3.04,5.64-5.61,8.23-8.18,4.54-4.48,4.54-4.34,10.81-4.49,9.73-.23,19.35.55,28.87,2.59.49.11.99.22,1.48.36.3.08.6.22,1.08.39-.81.96-1.53,1.78-2.22,2.63-2.61,3.25-4.28,6.91-4.79,11.07-.1.79-.29,1.41.93,1.56,7.97.95,14.25,5.34,20.09,10.34,3.99,3.42,7.58,7.31,11.32,11.02.77.76,1.42,1.64,2.12,2.46-.08,1.09-.7,1.89-1.43,2.63-1.06,1.11-2.1,2.23-3.14,3.34-1.56,1.66-2.86,1.75-4.33.1-4.6-5.14-9.91-9.55-14.57-14.63-1.79-1.95-2.57-1.88-4.64.1-2.17,2.08-2.2,2.46-.2,4.51,2.32,2.37,4.71,4.67,7.02,7.05,1.82,1.88,2.85,8.32,1.68,10.6-.88,1.71-2.04.87-2.87.03-2.46-2.48-5.31-4.54-7.66-7.11-1.88-2.06-3.96-2.92-6.74-2.77-5.68.31-11.38-.33-17.05.35-.11.06-.22.1-.32.16-.2.13-.4.25-.61.37-2.48,1.83-4.43,4.22-6.63,6.34-1.46,1.4-2.2,3-1.46,5.04,1.44,11.46,2.69,22.95,3.91,34.43.28,2.62.64,5.23.8,7.85.09,1.34.19,2.9-1.93,2.82-1.09-.1-2.18-.28-3.27-.29-9.78-.01-19.56.03-29.35-.02-1.35,0-2.18.44-2.97,1.48-1.85,2.43-4.55,4.5-5.55,7.21-1,2.71-.39,6.03-.44,9.08-.05,2.89.05,5.79-.09,8.67-.05,1.16.29,1.9,1.09,2.66,3.35,3.15,6.71,6.28,9.94,9.54,1.3,1.31,2.63,2.02,4.48,1.76.75-.11,1.53,0,2.29.02.67.62.33,1.31-.06,1.81-2.97,3.84-5.93,7.69-9.56,10.96-4.51.01-9.01.06-13.52,0-.53,0-1.23-.49-1.55-.96-3.33-4.82-6.64-9.65-9.85-14.55-.43-.66-.55-1.75-.37-2.55,4.02-17.61,8.08-35.21,12.17-52.8,1.28-5.53,2.61-11.04,4.03-16.53.26-.99.89-1.96,1.56-2.76,1.2-1.42,2.57-2.7,3.87-4.04.78-2.1,2.7-3.25,4.06-4.85,1.26-1.49,1.54-2.79-.12-4.11-.13-.11-.26-.23-.36-.36-3.95-5.38-9.05-7.75-15.84-6.75-3.25.48-6.63.18-9.94.05-2.32-.09-4.06.7-5.63,2.37-2.44,2.61-5.01,5.1-7.58,7.59-.72.7-1.49,1.64-2.62,1.2-1.16-.45-1-1.67-1.02-2.67-.11-4.55.47-8.75,4.47-11.86,1.92-1.49,3.28-3.67,5.22-5.22,1.45-1.16,1.13-2.18-.19-3.3-2.84-2.43-2.95-2.48-5.59.15-4.4,4.39-8.77,8.81-13.19,13.17-2.36,2.33-3.19,2.38-5.47-.03-1.52-1.62-3.82-2.7-4.12-5.28,6.21-7.39,12.98-14.16,21.2-19.34,3.64-2.29,7.59-3.84,11.88-4.28,1.57-.16,1.7-.78,1.41-2.08-1.11-5.01-3.33-9.41-7.45-13.38,3.63-.77,6.87-1.55,10.13-2.14,8.76-1.59,17.63-1.05,26.46-1.06.73,0,1.6.51,2.18,1.04" style="fill: #fafbfc; stroke-width: 0px;"/>
      <path d="M211.06,269.49c-.06.23.04,7.32,0,7.57.02,5.11.97,5.49-2.23,8.67-3.92,3.89-7.83,7.79-11.77,11.66-5.21,5.12-10.46,10.2-15.69,15.3-.54.53-1.1,1.03-1.94,1.82-.19-.9-.43-1.5-.44-2.1-.04-3.66-.1-7.32.02-10.98.03-.91.5-2.01,1.14-2.66,3.46-3.51,6.91-7.07,10.63-10.3,2.27-1.97,3.86-4.53,6.17-6.41.89-.72.7-1.36-.08-2.08-1.31-1.21-2.56-2.5-3.81-3.77-1.8-1.83-2.05-1.74-3.8.06-2.93,3.03-5.99,5.93-9.44,9.32-.13-6.82,1.65-12.76,3.83-18.52,2.22-5.87,5.14-11.44,9.32-16.23,1.93,2.03,3.86,4.06,5.8,6.09.94.98,1.59.39,2.32-.35,4.85-4.91,9.72-9.79,14.58-14.68.36-.36.69-.76,1.06-1.11,1.67-1.57,1.8-1.57,3.5.04.25.23.49.48.74.71,3.36,2.99,3.31,2.94-.04,6.18-2.45,2.37-4.75,4.88-7.07,7.37-.43.47-.86,1.15-.88,1.75-.09,2.87-.04,5.75-.04,8.88.56-.42,1.11-.74,1.54-1.17,3.14-3.13,6.28-6.25,9.35-9.44.9-.94,1.86-1.3,3.15-1.29,6.39.05,12.78-.02,19.17.08.99.02,2.19.47,2.92,1.13,2.58,2.35,4.96,4.91,7.49,7.32.98.94,1.24,1.68.14,2.72-1.98,1.86-3.88,3.79-5.82,5.7-2.3-2.23-4.56-4.51-6.95-6.65-.56-.5-1.55-.71-2.35-.72-3.74-.06-7.49.02-11.23,0-1.38,0-2.35.55-3.31,1.54-2.73,2.8-5.55,5.52-8.4,8.2-1.73,1.62-1.78,1.56-3.37-.11-.99-1.05-1.96-2.13-3.01-3.12" style="fill: #45b4a0; stroke-width: 0px;"/>
      <path d="M288.06,312.08c1.06-.38,1.29-1.14,1.17-2.2-.79-6.75-1.56-13.5-2.31-20.26-.61-5.49-1.18-10.98-1.78-16.46-.2-1.86-.45-3.71-.62-5.57-.04-.46.15-.94.23-1.41,2.7.57,3.92,2.92,5.64,4.67,1.2,1.29,2.25,2.78,3.64,3.82,1.37,1.02,1.82,2.27,2.18,3.8,3.87,16.37,7.86,32.71,11.69,49.09,1.18,5.04,2,10.16,2.98,15.24.03.16,0,.36.08.5,2.13,3.66.69,6.6-1.61,9.6-2.51,3.29-4.68,6.84-7.03,10.26-.32.47-.81.83-1.22,1.24-4.36.56-8.73.08-13.1.24-1.6.06-3.2-.17-4.79.14-2.63-1.55-5.24-3.13-7.9-4.63-1.35-.76-1.77-1.83-1.79-3.34-.04-4.72-.1-4.72,4.61-4.72.85,0,1.71-.08,2.55.02,1.59.19,2.69-.45,3.79-1.58,3.29-3.37,6.68-6.63,10.07-9.89.86-.82,1.14-1.58,1.07-2.86-.25-5.01-.3-10.04-.28-15.06,0-1.57-.47-2.76-1.48-3.89-1.98-2.21-3.88-4.5-5.81-6.75Z" style="fill: #9da197; stroke-width: 0px;"/>
      <path d="M149.17,243.33c-1.52-12.45.48-23.15,8.34-32.65,9.33-11.27,23.75-15.27,37.5-10.27,3.83,1.39,7.22,4.03,10.8,6.09,3.93,3.8,7.4,7.94,9.92,12.84.62,1.21.49,1.48-.73,2.16-3.1,1.73-6.01,3.79-9.16,5.83-.44-.93-.9-1.98-1.42-3-4.25-8.39-11.64-14.29-24.01-12.93-8.72.96-16.63,8.08-18.92,17.32-.98,3.95-1.58,7.92-.51,11.96.49.47.95.98,1.07,1.66.63,3.42,3.11,6.08,3.84,9.45-1.87,3.31-3.91,6.56-6.73,9.13-2.63-1.96-6.5-5.52-8.52-11.1-.37-1.04-.65-2.04-.85-2.99" style="fill: #fafbfc; stroke-width: 0px;"/>
      <path d="M335.46,206.53c3.12-2.07,5.95-4.55,9.54-5.93,9.46-3.62,18.73-3.14,27.62,1.49,11.97,6.23,18.65,16.33,20.26,29.66.68,5.63-.17,11.19-2.14,16.55-.26.71-.49,1.43-.73,2.14-1.96,3.54-4.06,6.98-7.13,9.7-.73.22-1.13-.27-1.44-.75-1.19-1.86-2.69-3.46-4.09-5.14-1.33-1.59-1.54-3.25-.47-5.13,1.22-2.13,2.08-4.42,2.51-6.86.13-.75.29-1.5.95-2,.14-2.5.66-5.05.37-7.5-1.06-9.05-7.89-19.89-20.34-21.51-8.92-1.16-17.35,1.79-22.6,11.7-.75,1.42-1.43,2.88-2.25,4.55-1.4-1.06-2.73-2.16-4.16-3.12-1.55-1.04-3.12-2.07-4.8-2.85-1.27-.59-1.25-1.09-.66-2.21,2.52-4.77,5.7-9.02,9.56-12.78Z" style="fill: #fafbfc; stroke-width: 0px;"/>
      <path d="M330.89,284.22c-.55-.54-.63-1.72-.64-2.6-.06-3.57,0-7.15,0-10.72,0-.56-.07-1.12-.1-1.69-1.51,1.38-2.97,2.63-4.33,3.98-1.78,1.76-1.71,1.75-3.56-.06-2.74-2.67-5.55-5.27-8.31-7.93-1.22-1.18-2.56-1.76-4.34-1.69-3.06.13-6.13.11-9.2,0-1.67-.07-2.91.42-4.06,1.63-1.04,1.09-2.3,1.97-3.46,2.94-.82-1.2-.77-2.58-.64-3.91.31-3.09-.12-6.27,1.05-9.26l.06.12c.26-.23.12.17.17-.16.04-.24-.1-.3-.31-.17.74-.27,1.47-.76,2.21-.77,6.21-.07,12.43-.1,18.64,0,.97.02,2.11.57,2.85,1.24,2.9,2.62,5.67,5.39,8.5,8.1.72.68,1.48,1.32,2.67,2.38,0-3.48.06-6.38-.06-9.27-.02-.53-.78-1.06-1.25-1.54-2.94-2.96-5.85-5.94-8.87-8.82-.95-.91-1.22-1.54-.06-2.4.47-.35.84-.84,1.28-1.24,4.26-3.91,3.05-3.52,6.77.09,4.33,4.21,8.58,8.49,12.86,12.76,2.76,2.75,2.74,2.75,5.4-.11.75-.8,1.58-1.52,2.37-2.28,3.16-4.35,1.35.69,2.06.96,1.2.46,1.69.98.95,2.46-.73,3.34-.1,5.63-.09,8.77.61,2.41.34,4.98,1.79,7.32.47.76-.81,1.89-1.76,2.5-2.16,1.48-3.73,3.55-5.48,5.44-.85.91-.63,1.61.19,2.38,1.74,1.63,3.43,3.29,5.15,4.94.23,1.94,1.01,3.83.63,5.83-.18.31-.51.52-.56.88,0-.03,0,.03,0,.03,0,0,.03-.12.04-.15.2-.42.49-.61.94-.54,1.07.56,1.2,1.58,1.16,2.59-.05,1.25-.04,2.48.09,3.74.14,1.34-.17,2.62-2.08,2.14l-.03-.03" style="fill: #45b4a0; stroke-width: 0px;"/>
      <path d="M294.56,399.44c0,4.65.04,8.8-.04,12.96-.01.68-.39,1.51-.87,1.99-7.37,7.45-14.79,14.84-22.16,22.28-.72.73-1.19.69-1.84.02-1.55-1.58-3.09-3.17-4.69-4.69-3.84-3.65-7.76-7.22-11.56-10.91-2.24-2.18-4.36-4.49-6.45-6.81-.39-.44-.57-1.21-.58-1.83-.05-4.15-.03-8.3-.03-12.99,1.01.92,1.7,1.5,2.32,2.12,6.79,6.81,13.6,13.61,20.34,20.48,1.15,1.18,1.76,1.24,2.97,0,6.77-6.94,13.65-13.77,20.49-20.64.59-.59,1.21-1.15,2.1-1.98Z" style="fill: #9da197; stroke-width: 0px;"/>
      <path d="M254.87,467.19c-1.29-1.34-1.86-2.6-1.81-4.43.11-4.08-.03-8.17.05-12.25.03-1.48-.43-2.55-1.51-3.56-6.98-6.5-13.88-13.08-20.89-19.54-1.05-.96-1.56-1.86-1.54-3.25.06-3.81.02-7.62.02-11.43.2-.13.39-.26.59-.39,2.54,2.34,5.13,4.62,7.6,7.03,7.91,7.7,15.76,15.48,23.69,23.16,1.26,1.22,1.78,2.46,1.76,4.22-.08,8.25-.02,16.5-.01,24.75,0,.6.11,1.22-.04,1.78-.1.38-.51.86-.87.94" style="fill: #45b4a0; stroke-width: 0px;"/>
      <path d="M368.97,423.22c2.4-2.39,4.77-4.82,7.22-7.16.87-.83,1.22-1.69,1.22-2.9-.04-9.7.02-19.4-.06-29.1-.01-1.58.33-2.11,1.93-2.02,2.29.12,4.6.09,6.89-.01,1.17-.05,1.63.11,1.61,1.46-.14,11.4-.18,22.81-.3,34.21,0,.77-.22,1.77-.72,2.27-5.87,5.91-11.81,11.74-17.73,17.59-.43-4.78-.32-9.56-.06-14.34Z" style="fill: #fafbfc; stroke-width: 0px;"/>
      <path d="M171.58,437.59c-5.76-5.9-11.53-11.79-17.23-17.74-.44-.46-.56-1.38-.56-2.09-.03-11.33.02-22.66-.05-33.98,0-1.63.5-2.04,2.04-1.95,2.12.13,4.26.15,6.38,0,1.66-.12,1.94.53,1.93,2.04-.07,9.62,0,19.25-.07,28.87-.01,1.48.42,2.51,1.47,3.54,2.29,2.27,5.25,4.35,6.4,7.14,1.12,2.7.32,6.19.35,9.34.01,1.51,0,3.02,0,4.53-.22.1-.44.2-.66.3Z" style="fill: #fafbfc; stroke-width: 0px;"/>
      <path d="M187.5,380.16c-.14,3.11-.38,6.22-.37,9.32,0,2.6.25,5.2.54,7.79.07.65.68,1.31,1.18,1.82,3.23,3.26,6.48,6.49,9.77,9.69,1.13,1.1,1.85,2.19,1.74,3.95-.2,3.21,0,6.43-.05,9.65,0,.59-.36,1.17-.56,1.76-.51-.27-1.12-.43-1.51-.82-3.59-3.54-7.14-7.11-10.7-10.68-2.41-2.41-4.81-4.83-7.23-7.23-.93-.92-1.59-1.85-1.58-3.3.07-9.44.05-18.88.07-28.32,0-.42.09-.84.14-1.26.9-.28,1.44.34,2,.84,2.36,2.09,4.54,4.35,6.56,6.78Z" style="fill: #45b4a0; stroke-width: 0px;"/>
      <path d="M229.43,304.13c0,4.58.05,8.81-.05,13.03-.02.69-.63,1.49-1.17,2.03-2.69,2.71-5.43,5.38-8.2,8.02-1.13,1.08-1.5,2.31-1.49,3.86.07,6.93.03,13.87.03,21.39-2.68-2.6-4.95-4.97-7.4-7.13-1.66-1.46-2.31-3.06-2.23-5.29.18-4.93.04-9.86.13-14.8.01-.85.22-1.96.78-2.51,6-5.91,12.08-11.73,18.14-17.56.34-.33.78-.56,1.47-1.05Z" style="fill: #fafbfc; stroke-width: 0px;"/>
      <path d="M322.55,351.5c0-3.03,0-6.06,0-9.1.01-4-.03-8,.09-11.99.04-1.32-.36-2.21-1.29-3.11-2.85-2.8-5.65-5.65-8.36-8.58-.62-.67-1.08-1.74-1.1-2.65-.12-3.82-.05-7.64-.05-11.93.8.64,1.38,1.03,1.87,1.51,5.79,5.63,11.6,11.24,17.33,16.93.63.63,1.11,1.72,1.13,2.61.11,5.36.1,10.71.05,16.07,0,.78-.22,1.77-.72,2.29-2.73,2.78-5.58,5.44-8.38,8.15-.18-.07-.37-.14-.55-.2Z" style="fill: #9da197; stroke-width: 0px;"/>
      <path d="M197.5,322.82c0-4.82-.09-8.96.07-13.1.03-.84.85-1.77,1.52-2.45,6.91-7.03,13.86-14.02,20.97-21.19,2.59,2.4,5.06,4.67,7.62,7.04-10.01,9.85-19.87,19.55-30.18,29.7Z" style="fill: #fafbfc; stroke-width: 0px;"/>
      <path d="M340.86,424.55c0-4.61-.08-9.02.07-13.42.03-.85.83-1.8,1.51-2.47,3.26-3.21,6.58-6.37,9.94-9.48.95-.89,1.47-1.82,1.29-3.12-.05-.33-.02-.68-.02-1.02q-.01-5.61,4.1-9.33c1.31-1.18,2.7-2.29,4.26-3.61.18.64.42,1.07.42,1.5.02,6.12.06,12.25-.04,18.37-.01.9-.5,1.99-1.13,2.64-5.66,5.76-11.39,11.45-17.12,17.14-.9.89-1.92,1.65-3.26,2.8Z" style="fill: #07496a; stroke-width: 0px;"/>
      <path d="M343.51,322.44c-1.26-1.16-2.14-1.93-2.96-2.74-7.33-7.24-14.64-14.49-21.98-21.73-1.33-1.31-2.7-2.6-4.1-3.84-.7-.61-.97-1.06-.15-1.82,1.63-1.5,3.23-3.03,4.75-4.64.95-1,1.63-1.07,2.67-.04,3.75,3.72,7.6,7.32,11.38,11.02,3.04,2.98,5.99,6.05,9.05,9.02,1,.97,1.4,1.98,1.37,3.37-.08,3.61-.03,7.23-.03,11.41Z" style="fill: #9da197; stroke-width: 0px;"/>
      <path d="M168.85,306.86c.06.91.12,1.31.12,1.7,0,11.04.02,22.09.01,33.13,0,2.69-.04,2.69-2.63,2.7-1.78,0-3.57-.05-5.35.03-1.16.05-1.67-.26-1.66-1.54.05-8.58.02-17.16.04-25.75,0-.49,0-1.12.29-1.46,2.62-3.19,5.61-5.99,9.18-8.82Z" style="fill: #45b4a0; stroke-width: 0px;"/>
      <path d="M372.84,307.05c2.77,2.75,5.59,5.45,8.28,8.27.5.53.71,1.52.72,2.31.05,8.26-.02,16.52.08,24.78.02,1.78-.64,2.17-2.22,2.08-1.78-.11-3.57-.01-5.36-.02-2.22-.01-2.24-.02-2.24-2.21,0-7.07.03-14.13.04-21.2,0-4.09,0-8.17.02-12.26,0-.49.07-.97.1-1.46.19-.09.39-.19.58-.28Z" style="fill: #45b4a0; stroke-width: 0px;"/>
      <path d="M218.71,410.34c-4.89-4.78-9.43-9.22-13.99-13.65-2.37-2.3-4.82-4.51-7.15-6.84-.49-.49-.89-1.32-.9-2-.08-4.32-.04-8.63-.04-13.62,2,1.91,3.59,3.38,5.12,4.9,5.22,5.21,10.39,10.47,15.64,15.65.99.98,1.37,1.99,1.35,3.36-.07,3.9-.03,7.8-.03,12.2Z" style="fill: #45b4a0; stroke-width: 0px;"/>
      <path d="M218.94,382.41c-2.68-2.65-5.02-4.95-7.34-7.26-4.52-4.49-9.04-8.98-13.51-13.52-.46-.46-.77-1.28-.78-1.94-.07-3.99-.04-7.98-.04-12.31.64.5,1.1.79,1.49,1.16,6.4,6.2,12.77,12.41,19.18,18.6.71.69,1.07,1.33,1.04,2.4-.1,4.08-.04,8.16-.04,12.88Z" style="fill: #fafbfc; stroke-width: 0px;"/>
      <path d="M322.18,410.09c0-4.46-.05-8.45.04-12.43.02-.76.35-1.72.88-2.24,6.95-6.87,13.95-13.67,20.95-20.49.03-.03.16.02.39.07,0,4.1.04,8.23-.04,12.36-.01.67-.47,1.48-.97,1.97-6.67,6.67-13.37,13.3-20.08,19.93-.22.22-.52.37-1.17.82Z" style="fill: #9da197; stroke-width: 0px;"/>
      <path d="M386.5,290.34c1.62,1.18,1.32,3.57,1.29,5.32-.07,4.14-.02,8.28-.02,12.8-.84-.75-1.47-1.26-2.04-1.83-5.23-5.24-10.41-10.53-15.71-15.7-.88-.86-.9-1.68-.96-2.69-.28-4.3-.61-8.6-.9-12.9-.02-.29.03-.64.19-.85.08-.11.54-.09.72.04.55.39,1.08.82,1.57,1.29,3.81,3.65,7.59,7.33,11.41,10.97" style="fill: #fafbfc; stroke-width: 0px;"/>
      <path d="M343.97,347.25c0,4.58.03,8.7-.04,12.83,0,.5-.42,1.08-.81,1.47-6.67,6.67-13.36,13.32-20.05,19.97-.17.17-.41.28-1,.68,0-3.07.26-5.91-.06-8.69-.44-3.82.9-6.46,3.75-9.01,5.76-5.16,11.17-10.7,16.73-16.07.34-.33.74-.59,1.49-1.17Z" style="fill: #9da197; stroke-width: 0px;"/>
      <path d="M153.87,307.59c0-12.47-.12-10.25-.12-15,0-.19.07-.39.2-.53,2.09-2.29,4.1-4.66,6.31-6.82,3.39-3.31,6.94-6.46,10.42-9.67.54-.49,1.09-.97,1.68-1.49-.12,4.54-.29,8.84-.3,13.14,0,1.79-.46,3.09-1.82,4.4" style="fill: #fafbfc; stroke-width: 0px;"/>
      <path d="M270.34,370.06c1.29.32,2.68.44,3.84,1.01,5.47,2.67,11.18,3.77,17.24,3.05,1.06-.13,2.14-.02,3.61-.02-3.92,4.13-7.53,8.01-11.26,11.79-.57.58-1.64.93-2.49.95-3.47.07-6.95-.03-10.43-.06-1.09-.75-1.36-1.87-1.38-3.08-.05-2.52-.17-5.03.09-7.54-.06-2.07-.65-4.2.76-6.09Z" style="fill: #9da197; stroke-width: 0px;"/>
      <path d="M185.28,448.46c-4.84-4.84-4.03-4.4-4.03-8.54,0-4.81.22-8.61.22-12.55,0-2.83-.03-3.56-.03-5.83,2.88,2.76,5.39,5.35,8.1,7.71,2.29,1.99,2.61,4.39,2.53,7.23-.17,6.02-.05,12.04-.05,18.06-.26.17-.51.33-.77.5" style="fill: #fafbfc; stroke-width: 0px;"/>
      <path d="M380.34,240.25c.1,3.53-1.31,6.63-2.97,9.58-.78,1.39-.89,2.28.23,3.55,1.89,2.14,3.53,4.49,5.28,6.75-2.21,2.33-4.42,4.66-6.72,7.08-3.81-4.21-7.53-8.31-11.3-12.47,4.37-3.53,7.52-7.88,9.29-13.16.33-.99.92-1.32,1.87-1.32,1.44.01,2.88-.01,4.33-.02Z" style="fill: #9da197; stroke-width: 0px;"/>
      <path d="M187.9,352.88c-3.09-3.12-5.83-5.84-8.48-8.64-.39-.41-.47-1.25-.47-1.89-.04-4.58-.04-9.17,0-13.75,0-.56.06-1.3.41-1.64,2.63-2.6,5.34-5.13,8.02-7.67.18.12.36.25.54.37v33.23Z" style="fill: #45b4a0; stroke-width: 0px;"/>
      <path d="M221.37,476.7c-.37-4.38,3.93-10.25,9.37-10.12,5.79.14,10.23,4.39,10.35,10.36.1,4.99-4.8,10.03-9.68,10.16-4.46.12-10.71-3.93-10.04-10.4Z" style="fill: #45b4a0; stroke-width: 0px;"/>
      <path d="M309.8,467.12c5.63-.67,10.12,4.37,10,9.79-.14,6.82-4.06,9.69-10.7,10.01-5.03.24-8.9-4.25-8.98-10.28-.06-4.46,3.57-10.06,9.67-9.51Z" style="fill: #45b4a0; stroke-width: 0px;"/>
      <path d="M349.47,274.84c.93.51,2.01.86,2.76,1.56,2.54,2.35,4.94,4.85,7.45,7.24.54.52,1.29.83,2.37,1.51-.52-3.22-.79-5.91-1.42-8.52-1.31-5.52-2.89-11-5.72-15.94-1.96-3.42-4.43-6.55-6.68-9.8" style="fill: #07496a; stroke-width: 0px;"/>
      <path d="M353.84,319.37c2.5,2.47,5.04,4.9,7.46,7.45.45.47.58,1.39.59,2.11.05,4.58.05,9.17,0,13.75,0,.71-.18,1.61-.63,2.1-2.46,2.66-5.03,5.21-7.91,8.16v-33.31c.16-.08.33-.17.49-.25Z" style="fill: #07496a; stroke-width: 0px;"/>
      <path d="M255.02,318.86c.98-.37,1.96-1.04,2.94-1.05,8.48-.08,16.96,0,25.44-.08,1.41-.01,2.2.59,2.87,1.64.41,3.32-1.69,5.89-4.87,5.9-7.23.02-14.45,0-21.67,0-2.59-.17-4.73-3.1-4.71-6.42Z" style="fill: #fafbfc; stroke-width: 0px;"/>
      <path d="M161.25,353.62c4.99,0,9.5,4.52,9.44,9.46-.07,5.48-4.11,9.45-9.59,9.42-5.13-.02-9.16-4.06-9.25-9.24-.09-5.37,4.07-9.63,9.4-9.64Z" style="fill: #45b4a0; stroke-width: 0px;"/>
      <path d="M370.35,363.27c.06-5.39,4.14-9.66,9.19-9.62,5.22.04,9.34,4.36,9.35,9.79,0,4.92-4.3,9.04-9.5,9.01-5.56-.04-9.16-4.36-9.04-9.18Z" style="fill: #45b4a0; stroke-width: 0px;"/>
      <path d="M236.79,406.89c-2.42-2.48-4.88-4.92-7.24-7.46-.41-.44-.58-1.23-.6-1.87-.12-3.38-.18-6.77-.21-10.15-.03-3.24,0-6.49,0-9.74.2-.08.41-.15.61-.23,2.5,2.49,5.03,4.95,7.46,7.51.47.49.76,1.36.77,2.06.06,6.55.03,13.11.03,19.66-.27.07-.54.14-.81.21Z" style="fill: #9da197; stroke-width: 0px;"/>
      <path d="M200.5,442.51c.36.1.87.09,1.11.33,2.36,2.4,4.71,4.83,7,7.3.42.45.86,1.12.86,1.69.06,6.16.04,12.32-.44,18.75-2.89-2.94-5.79-5.87-8.64-8.85-.3-.31-.42-.91-.41-1.37.15-5.94.34-11.87.52-17.85Z" style="fill: #fafbfc; stroke-width: 0px;"/>
      <path d="M312.37,378.1c0,6.45.01,12.91-.03,19.36,0,.54-.23,1.2-.59,1.59-2.52,2.74-5.1,5.43-8.11,8.6,0-1.16,0-1.78,0-2.4,0-5.7-.04-11.4.03-17.1.01-.94.25-2.12.84-2.77,2.33-2.56,4.85-4.96,7.3-7.42.18.05.36.1.55.15Z" style="fill: #9da197; stroke-width: 0px;"/>
      <path d="M253.79,479.94c3.1,3.11,6.2,6.21,9.29,9.33.2.2.38.54.37.81-.13,5.05-.29,10.1-.47,15.89-2.57-2.4-4.72-4.43-6.89-6.44-2.8-2.59-3.17-5.85-2.94-9.44.21-3.27.04-6.56.04-9.85.2-.1.39-.2.59-.3Z" style="fill: #45b4a0; stroke-width: 0px;"/>
      <path d="M349.59,293.82l.04.04" style="fill: #07496a; stroke-width: 0px;"/>
      <path d="M349.32,287.59c1.44,1.28,2.91,2.51,4.3,3.85,2.32,2.23,4.62,4.49,6.84,6.82.65.69,1.36,1.67,1.39,2.54.14,4.22.06,8.45.06,13.25l-12.36-11.94" style="fill: #07496a; stroke-width: 0px;"/>
      <path d="M340.63,452.26c0,2.07,0,4.14,0,6.21-.01,1.17.2,2.35-.14,3.51-2.87,2.73-5.74,5.46-8.75,8.32,0-2.82,0-5.65,0-8.48,0-3.05-.05-6.11.05-9.16.03-.84.32-1.87.87-2.45,2.51-2.63,5.15-5.13,7.74-7.68.2.16.28.37.25.62v1.01c0,.32,0,.64,0,.96l-.02,2.64c.03,1.5.05,3-.01,4.5Z" style="fill: #9da197; stroke-width: 0px;"/>
      <path d="M270.34,370.06c-.04,1.96-.08,3.93-.12,5.89-1.46,1.82-3.76,2.08-5.7,2.97-3.14,1.44-6.78,2.24-7.44,6.49-3.55-3.61-7.09-7.22-10.86-11.05.78-.09,1.39-.23,2-.23,2.29-.02,4.57-.05,6.86.03,3.28.12,6.36-.54,9.35-1.9,1.91-.87,3.94-1.48,5.91-2.2Z" style="fill: #fafbfc; stroke-width: 0px;"/>
      <path d="M187.5,380.16c-1.32-1.11-2.67-2.2-3.95-3.35-1.56-1.39-3.07-2.84-4.61-4.26v-16.37c1.35,1.33,2.53,2.86,4.05,3.9,3.92,2.7,5.15,6.28,4.61,10.9-.35,3.02-.09,6.12-.1,9.18Z" style="fill: #fafbfc; stroke-width: 0px;"/>
      <path d="M218.2,442.66c-2.44-2.56-4.91-5.1-7.3-7.7-.55-.6-1.16-1.43-1.18-2.17-.12-3.96-.05-7.92.43-12.16,1.44,1.35,2.78,2.83,4.35,4.01,3.64,2.72,5.22,6.15,4.51,10.71-.24,1.56.08,3.21.11,4.82.01.72-.06,1.44-.1,2.15-.27.11-.54.22-.81.33Z" style="fill: #45b4a0; stroke-width: 0px;"/>
      <path d="M331.24,421c0,4.19.02,8.07-.03,11.95,0,.46-.26,1.01-.59,1.34-2.55,2.56-5.14,5.08-7.72,7.61-1.01.99-1.36.17-1.37-.64-.04-3.48.02-6.96.05-10.44,0-.16.02-.37.12-.49,2.77-3.38,5.45-6.85,9.53-9.34Z" style="fill: #45b4a0; stroke-width: 0px;"/>
      <path d="M362.33,356.63c0,3.99.04,7.9-.03,11.8-.01.79-.2,1.77-.68,2.32-2.45,2.77-5.03,5.43-7.88,8.46,0-4.97-.02-9.44.03-13.91,0-.45.28-.99.6-1.32,2.38-2.42,4.8-4.8,7.23-7.18.14-.14.44-.11.73-.18Z" style="fill: #9da197; stroke-width: 0px;"/>
      <path d="M237.7,461.36c-2.95-3.14-5.51-5.81-7.98-8.55-.46-.51-.81-1.33-.82-2.01-.08-3.82-.04-7.65-.04-11.92,3.37,2.65,6.08,5.38,8.52,8.38.32.39.3,1.12.3,1.69.02,3.91.01,7.82.01,12.42Z" style="fill: #9da197; stroke-width: 0px;"/>
      <path d="M257.08,385.41c-.55-3.25.98-4.94,4.01-5.91,3.11-.99,6.1-2.35,9.14-3.55.06,2.36.07,4.73.19,7.09.06,1.25.3,2.49.46,3.74-3.7-.01-7.39-.07-11.09-.02-1.21.02-2.15-.2-2.7-1.35Z" style="fill: #bcc0b4; stroke-width: 0px;"/>
      <path d="M232.71,279.09c-3.15-.57-5.36-2.76-4.91-4.88.43-2.03,3.19-3.14,6.39-2.59,3.23.56,5.44,2.67,5.05,4.81-.39,2.12-3.19,3.26-6.53,2.66Z" style="fill: #9da197; stroke-width: 0px;"/>
      <path d="M312.64,274.35c.38,1.96-1.66,3.71-5.02,4.32-3.08.56-5.74-.43-6.12-2.27-.38-1.86,1.7-3.71,4.79-4.28,3.3-.61,5.99.34,6.35,2.24Z" style="fill: #9da197; stroke-width: 0px;"/>
      <path d="M293.29,254.9c-.18,3.05-.4,6.11-.53,9.16-.06,1.33.07,2.67.12,4.01-.83.92-1.65,1.85-2.48,2.77-.95-.74-1.93-1.46-2.86-2.23-.95-.79-1.85-1.62-2.78-2.44-.83-1.18-.87-2.13.33-3.24,2.81-2.6,5.47-5.35,8.2-8.04Z" style="fill: #07496a; stroke-width: 0px;"/>
      <path d="M254.58,364.96c2.42-3.01,4.89-6,7.25-9.05.9-1.15,1.58-2.47,2.36-3.72,3.64-.13,3.42-.11,3.72,3.51.21,2.6-.75,4.12-2.87,5.29-1.19.65-2.36,1.39-3.38,2.27-2.1,1.8-4.43,2.34-7.08,1.7Z" style="fill: #9da197; stroke-width: 0px;"/>
      <path d="M259.14,325.05c7.22-.03,14.44-.12,21.65-.03,1.55.02,2.6-.29,3.32-1.67.7-1.34,1.43-2.65,2.15-3.97.78,1.64,1.82,3.21,2.27,4.94.73,2.78.99,5.68,1.59,8.49.34,1.6-.07,2.23-1.73,2-.83-.11-1.67-.11-2.65-.18.47-2.26,1.06-4.3-.54-6.35-1.59-2.05-3.31-2.97-5.98-2.9-6.7.18-13.41.04-20.12.03-.17-.1-.22-.18-.16-.26.06-.07.12-.11.19-.11Z" style="fill: #9da197; stroke-width: 0px;"/>
      <path d="M259.14,325.05c-.01.12-.02.24-.03.36-.99,1.02-2.04,1.99-2.96,3.06-1.27,1.48-.88,3.18-.33,4.8.41,1.19-.02,1.55-1.14,1.48-.42-.03-.85,0-1.27,0-2.1-.02-2.14-.03-1.83-2.11.48-3.26.89-6.54,1.58-9.75.3-1.41,1.22-2.68,1.86-4.02,1,1.76,1.97,3.54,3.02,5.28.23.38.73.61,1.1.9Z" style="fill: #bcc0b4; stroke-width: 0px;"/>
      <path d="M281.21,339.4c-1.44,1.92-4.11,2.74-5.88,1.9-.29-.14-.59-.62-.6-.95-.06-1.95-.03-3.9-.06-5.85-.01-1.02.58-1.47,1.43-1.18.4.13.81.91.81,1.4,0,3.25-.03,3.25,3.2,4.18.31.09.6.27,1.1.5Z" style="fill: #9da197; stroke-width: 0px;"/>
      <path d="M267.24,337.54c0,.34.04.69,0,1.02-.14.95-.21,2.67-.49,2.71-1.54.2-3.15.07-4.7-.14-.33-.05-.71-.91-.73-1.42-.01-.25.74-.8,1.11-.77,2.25.17,2.46-1.23,2.47-2.92,0-.67.11-1.38.36-2,.14-.35.7-.78,1.02-.74.32.04.8.58.83.94.11,1.09.04,2.21.04,3.31.03,0,.07,0,.1,0Z" style="fill: #9da197; stroke-width: 0px;"/>
      <path d="M283.22,364.78c.81-.13,1.62-.36,2.43-.37,5.15-.03,10.31-.02,15.46-.02-.26.17-.52.49-.78.49-5.7-.01-11.4-.06-17.1-.1Z" style="fill: #bcc0b4; stroke-width: 0px;"/>
      <path d="M368.97,423.22c.02,4.78.04,9.56.06,14.34-.18-.15-.52-.3-.52-.45,0-4.34.02-8.67.07-13.01,0-.3.26-.59.39-.88Z" style="fill: #07496a; stroke-width: 0px;"/>
      <path d="M340.63,452.26c0-1.5,0-3,.01-4.5,0,1.5,0,3-.01,4.5Z" style="fill: #07496a; stroke-width: 0px;"/>
      <path d="M340.49,461.98l.14-3.51c-.05,1.17-.09,2.34-.14,3.51Z" style="fill: #07496a; stroke-width: 0px;"/>
      <path d="M340.66,443.15c-.08-.21-.16-.42-.25-.62.12-.06.23-.12.35-.19-.03.27-.07.54-.1.81Z" style="fill: #07496a; stroke-width: 0px;"/>
      <path d="M340.66,445.12c0-.32,0-.64,0-.96,0,.32,0,.64,0,.96Z" style="fill: #07496a; stroke-width: 0px;"/>
      <path d="M398,351.07c.03.19.06.38.09.57-.08-.13-.17-.25-.22-.39-.02-.04.08-.12.13-.19Z" style="fill: #07496a; stroke-width: 0px;"/>
      <path d="M270.27,256.89c-6.06-6.21-12.11-12.41-18.17-18.6-1.07-1.09-2.13-2.22-3.35-3.14-1.26-.96-1.01-1.64-.03-2.58,1.71-1.65,3.35-3.37,5.25-5.31,5.52,5.67,10.96,11.26,16.31,16.76,4.11-4.02,7.92-7.75,11.74-11.48,1.4-1.36,2.86-2.67,4.21-4.08.87-.92,1.44-.79,2.23.11,1.35,1.53,2.78,2.99,4.24,4.41.75.73.88,1.21.03,2.03-7.39,7.14-14.73,14.34-22.47,21.88Z" style="fill: #111d2f; stroke-width: 0px;"/>
      <path d="M293.21,254.68c.07.05.15.1.19.17.02.03-.03.11-.05.17-.16-.06-.21-.18-.14-.34Z" style="fill: #07496a; stroke-width: 0px;"/>
      <path d="M349.63,293.86s-.04-.04-.04-.04" style="fill: #07496a; stroke-width: 0px;"/>
      <path d="M231.2,482.44c-2.94-.04-5.34-2.66-5.25-5.73.08-2.74,2.55-5.3,5.17-5.36,2.92-.07,5.56,2.75,5.5,5.86-.06,2.96-2.45,5.27-5.42,5.23Z" style="fill: #111d2f; stroke-width: 0px;"/>
      <path d="M315.19,476.7c.01,3.23-2.11,5.74-4.87,5.78-3.01.04-5.34-2.25-5.38-5.28-.03-3.16,2.37-5.86,5.19-5.83,2.85.03,5.05,2.34,5.06,5.33Z" style="fill: #111d2f; stroke-width: 0px;"/>
      <path d="M161.24,368.11c-2.76-.03-4.89-2.32-4.79-5.15.09-2.66,2.57-5.11,5.13-5.06,2.56.05,5.03,2.68,4.93,5.23-.12,3.01-2.24,5.01-5.27,4.97Z" style="fill: #111d2f; stroke-width: 0px;"/>
      <path d="M384.33,363.18c-.03,2.81-2.09,4.96-4.71,4.93-2.75-.03-5.01-2.3-5.03-5.03-.02-2.71,2.31-5.12,4.96-5.14,2.65-.02,4.81,2.34,4.79,5.23Z" style="fill: #111d2f; stroke-width: 0px;"/>
      <path d="M287.43,479.94c-3.1,3.11-6.2,6.21-9.29,9.33-.2.2-.38.54-.37.81.13,5.05.29,10.1.47,15.89,2.57-2.4,4.72-4.43,6.89-6.44,2.8-2.59,3.17-5.85,2.94-9.44-.21-3.27-.04-6.56-.04-9.85-.2-.1-.39-.2-.59-.3Z" style="fill: #07496a; stroke-width: 0px;"/>
      <ellipse cx="234.17" cy="275.36" rx="1.6" ry="1.57" style="fill: #111d2f; stroke-width: 0px;"/>
      <ellipse cx="306.41" cy="275.36" rx="1.6" ry="1.57" style="fill: #111d2f; stroke-width: 0px;"/>
      <path d="M303.02,464.1c2.95-3.14,5.51-5.81,7.98-8.55.46-.51.81-1.33.82-2.01.08-3.82.04-7.65.04-11.92-3.37,2.65-6.08,5.38-8.52,8.38-.32.39-.3,1.12-.3,1.69-.02,3.91-.01,7.82-.01,12.42Z" style="fill: #9da197; stroke-width: 0px;"/>
      <path d="M286.43,467.19c1.29-1.34,1.86-2.6,1.81-4.43-.11-4.08.03-8.17-.05-12.25-.03-1.48.43-2.55,1.51-3.56,6.98-6.5,13.88-13.08,20.89-19.54,1.05-.96,1.56-1.86,1.54-3.25-.06-3.81-.02-7.62-.02-11.43-.2-.13-.39-.26-.59-.39-2.54,2.34-5.13,4.62-7.6,7.03-7.91,7.7-15.76,15.48-23.69,23.16-1.26,1.22-1.78,2.46-1.76,4.22.08,8.25.02,16.5.01,24.75,0,.6-.11,1.22.04,1.78.1.38.51.86.87.94" style="fill: #45b4a0; stroke-width: 0px;"/>
      <path d="M355.81,448.46c4.84-4.84,4.03-4.4,4.03-8.54,0-4.81-.22-8.61-.22-12.55,0-2.83.03-3.56.03-5.83-2.88,2.76-5.39,5.35-8.1,7.71-2.29,1.99-2.61,4.39-2.53,7.23.17,6.02.05,12.04.05,18.06.26.17.51.33.77.5" style="fill: #fafbfc; stroke-width: 0px;"/>
    </g>
    <path d="M161.15,240.85c-.1,3.53,1.68,6.63,3.35,9.58.78,1.39.89,2.28-.23,3.55-1.89,2.14-3.53,4.49-5.28,6.75,2.21,2.33,4.42,4.66,6.72,7.08,3.81-4.21,7.53-8.31,11.3-12.47-4.37-3.53-7.52-7.88-9.29-13.16-.33-.99-.92-1.32-1.87-1.32-1.44.01-3.26-.01-4.7-.02Z" style="fill: #9da197; stroke-width: 0px;"/>
  </g>
</svg>